<ttFont>
    <TTGlyph name="" xMin="117" yMin="981" xMax="334" yMax="1462">
      <contour>
        <pt x="117" y="1462" on="1"/>
        <pt x="334" y="1462" on="1"/>
        <pt x="272" y="981" on="1"/>
        <pt x="178" y="981" on="1"/>
      </contour>
    </TTGlyph>
    <TTGlyph name="#1" xMin="117" yMin="-262" xMax="643" yMax="1556">
      <contour>
        <pt x="330" y="649" on="1"/>
        <pt x="330" y="527" on="0"/>
        <pt x="349" y="289" on="0"/>
        <pt x="413" y="76" on="0"/>
        <pt x="538" y="-104" on="0"/>
        <pt x="643" y="-168" on="1"/>
        <pt x="643" y="-262" on="1"/>
        <pt x="502" y="-206" on="0"/>
        <pt x="302" y="-46" on="0"/>
        <pt x="175" y="175" on="0"/>
        <pt x="117" y="464" on="0"/>
        <pt x="117" y="649" on="1"/>
        <pt x="117" y="834" on="0"/>
        <pt x="175" y="1121" on="0"/>
        <pt x="302" y="1341" on="0"/>
        <pt x="502" y="1500" on="0"/>
        <pt x="643" y="1556" on="1"/>
        <pt x="643" y="1464" on="1"/>
        <pt x="538" y="1400" on="0"/>
        <pt x="413" y="1221" on="0"/>
        <pt x="349" y="1009" on="0"/>
        <pt x="330" y="771" on="0"/>
      </contour>
    </TTGlyph>
    <TTGlyph name="#10" xMin="135" yMin="0" xMax="977" yMax="1470">
      <contour>
        <pt x="197" y="0" on="1"/>
        <pt x="197" y="86" on="1"/>
        <pt x="334" y="86" on="1"/>
        <pt x="369" y="86" on="0"/>
        <pt x="430" y="96" on="0"/>
        <pt x="475" y="127" on="0"/>
        <pt x="502" y="185" on="0"/>
        <pt x="502" y="233" on="1"/>
        <pt x="502" y="1309" on="1"/>
        <pt x="463" y="1261" on="0"/>
        <pt x="393" y="1183" on="0"/>
        <pt x="329" y="1127" on="0"/>
        <pt x="268" y="1096" on="0"/>
        <pt x="238" y="1096" on="1"/>
        <pt x="193" y="1096" on="0"/>
        <pt x="135" y="1157" on="0"/>
        <pt x="135" y="1206" on="1"/>
        <pt x="166" y="1214" on="0"/>
        <pt x="229" y="1237" on="0"/>
        <pt x="300" y="1274" on="0"/>
        <pt x="383" y="1327" on="0"/>
        <pt x="434" y="1364" on="1"/>
        <pt x="578" y="1470" on="1"/>
        <pt x="709" y="1470" on="1"/>
        <pt x="709" y="233" on="1"/>
        <pt x="709" y="185" on="0"/>
        <pt x="735" y="127" on="0"/>
        <pt x="781" y="96" on="0"/>
        <pt x="842" y="86" on="0"/>
        <pt x="877" y="86" on="1"/>
        <pt x="977" y="86" on="1"/>
        <pt x="977" y="0" on="1"/>
      </contour>
    </TTGlyph>
    <TTGlyph name="#11" xMin="104" yMin="0" xMax="995" yMax="1483">
      <contour>
        <pt x="944" y="1141" on="1"/>
        <pt x="944" y="1069" on="0"/>
        <pt x="898" y="933" on="0"/>
        <pt x="810" y="790" on="0"/>
        <pt x="683" y="636" on="0"/>
        <pt x="602" y="547" on="1"/>
        <pt x="256" y="164" on="1"/>
        <pt x="729" y="164" on="1"/>
        <pt x="775" y="164" on="0"/>
        <pt x="835" y="190" on="0"/>
        <pt x="873" y="232" on="0"/>
        <pt x="894" y="287" on="0"/>
        <pt x="901" y="317" on="1"/>
        <pt x="909" y="354" on="1"/>
        <pt x="995" y="354" on="1"/>
        <pt x="985" y="0" on="1"/>
        <pt x="104" y="0" on="1"/>
        <pt x="104" y="150" on="1"/>
        <pt x="446" y="545" on="1"/>
        <pt x="528" y="640" on="0"/>
        <pt x="639" y="790" on="0"/>
        <pt x="707" y="923" on="0"/>
        <pt x="737" y="1050" on="0"/>
        <pt x="737" y="1120" on="1"/>
        <pt x="737" y="1179" on="0"/>
        <pt x="712" y="1274" on="0"/>
        <pt x="661" y="1343" on="0"/>
        <pt x="582" y="1380" on="0"/>
        <pt x="528" y="1380" on="1"/>
        <pt x="458" y="1380" on="0"/>
        <pt x="371" y="1330" on="0"/>
        <pt x="321" y="1246" on="0"/>
        <pt x="303" y="1136" on="0"/>
        <pt x="303" y="1075" on="1"/>
        <pt x="266" y="1075" on="0"/>
        <pt x="202" y="1087" on="0"/>
        <pt x="154" y="1118" on="0"/>
        <pt x="127" y="1169" on="0"/>
        <pt x="127" y="1208" on="1"/>
        <pt x="127" y="1267" on="0"/>
        <pt x="178" y="1368" on="0"/>
        <pt x="279" y="1442" on="0"/>
        <pt x="429" y="1483" on="0"/>
        <pt x="528" y="1483" on="1"/>
        <pt x="625" y="1483" on="0"/>
        <pt x="779" y="1434" on="0"/>
        <pt x="887" y="1345" on="0"/>
        <pt x="944" y="1219" on="0"/>
      </contour>
    </TTGlyph>
    <TTGlyph name="#12" xMin="119" yMin="-20" xMax="1026" yMax="1483">
      <contour>
        <pt x="508" y="90" on="1"/>
        <pt x="569" y="90" on="0"/>
        <pt x="679" y="124" on="0"/>
        <pt x="763" y="202" on="0"/>
        <pt x="813" y="328" on="0"/>
        <pt x="813" y="420" on="1"/>
        <pt x="813" y="485" on="0"/>
        <pt x="762" y="590" on="0"/>
        <pt x="666" y="664" on="0"/>
        <pt x="528" y="705" on="0"/>
        <pt x="442" y="705" on="1"/>
        <pt x="377" y="705" on="1"/>
        <pt x="377" y="809" on="1"/>
        <pt x="442" y="809" on="1"/>
        <pt x="510" y="809" on="0"/>
        <pt x="627" y="854" on="0"/>
        <pt x="714" y="936" on="0"/>
        <pt x="764" y="1053" on="0"/>
        <pt x="764" y="1126" on="1"/>
        <pt x="764" y="1186" on="0"/>
        <pt x="740" y="1280" on="0"/>
        <pt x="687" y="1346" on="0"/>
        <pt x="604" y="1380" on="0"/>
        <pt x="545" y="1380" on="1"/>
        <pt x="475" y="1380" on="0"/>
        <pt x="387" y="1330" on="0"/>
        <pt x="337" y="1246" on="0"/>
        <pt x="319" y="1136" on="0"/>
        <pt x="319" y="1075" on="1"/>
        <pt x="282" y="1075" on="0"/>
        <pt x="218" y="1087" on="0"/>
        <pt x="170" y="1118" on="0"/>
        <pt x="143" y="1169" on="0"/>
        <pt x="143" y="1208" on="1"/>
        <pt x="143" y="1267" on="0"/>
        <pt x="194" y="1368" on="0"/>
        <pt x="296" y="1442" on="0"/>
        <pt x="446" y="1483" on="0"/>
        <pt x="545" y="1483" on="1"/>
        <pt x="642" y="1483" on="0"/>
        <pt x="800" y="1439" on="0"/>
        <pt x="913" y="1356" on="0"/>
        <pt x="975" y="1235" on="0"/>
        <pt x="975" y="1157" on="1"/>
        <pt x="975" y="1088" on="0"/>
        <pt x="926" y="966" on="0"/>
        <pt x="838" y="867" on="0"/>
        <pt x="718" y="797" on="0"/>
        <pt x="647" y="780" on="1"/>
        <pt x="685" y="776" on="0"/>
        <pt x="771" y="757" on="0"/>
        <pt x="855" y="721" on="0"/>
        <pt x="932" y="667" on="0"/>
        <pt x="991" y="589" on="0"/>
        <pt x="1026" y="486" on="0"/>
        <pt x="1026" y="418" on="1"/>
        <pt x="1026" y="336" on="0"/>
        <pt x="982" y="206" on="0"/>
        <pt x="905" y="109" on="0"/>
        <pt x="803" y="41" on="0"/>
        <pt x="687" y="-1" on="0"/>
        <pt x="565" y="-20" on="0"/>
        <pt x="506" y="-20" on="1"/>
        <pt x="405" y="-20" on="0"/>
        <pt x="259" y="17" on="0"/>
        <pt x="164" y="79" on="0"/>
        <pt x="119" y="162" on="0"/>
        <pt x="119" y="207" on="1"/>
        <pt x="119" y="269" on="0"/>
        <pt x="189" y="338" on="0"/>
        <pt x="248" y="338" on="1"/>
        <pt x="248" y="284" on="0"/>
        <pt x="283" y="193" on="0"/>
        <pt x="349" y="127" on="0"/>
        <pt x="446" y="90" on="0"/>
      </contour>
    </TTGlyph>
    <TTGlyph name="#13" xMin="35" yMin="0" xMax="1116" yMax="1462">
      <contour>
        <pt x="862" y="401" on="1"/>
        <pt x="862" y="233" on="1"/>
        <pt x="862" y="185" on="0"/>
        <pt x="889" y="127" on="0"/>
        <pt x="934" y="96" on="0"/>
        <pt x="996" y="86" on="0"/>
        <pt x="1030" y="86" on="1"/>
        <pt x="1057" y="86" on="1"/>
        <pt x="1057" y="0" on="1"/>
        <pt x="440" y="0" on="1"/>
        <pt x="440" y="86" on="1"/>
        <pt x="498" y="86" on="1"/>
        <pt x="533" y="86" on="0"/>
        <pt x="594" y="96" on="0"/>
        <pt x="639" y="127" on="0"/>
        <pt x="666" y="185" on="0"/>
        <pt x="666" y="233" on="1"/>
        <pt x="666" y="401" on="1"/>
        <pt x="35" y="401" on="1"/>
        <pt x="35" y="485" on="1"/>
        <pt x="668" y="1462" on="1"/>
        <pt x="862" y="1462" on="1"/>
        <pt x="862" y="516" on="1"/>
        <pt x="1116" y="516" on="1"/>
        <pt x="1116" y="401" on="1"/>
      </contour>
      <contour>
        <pt x="666" y="895" on="1"/>
        <pt x="666" y="940" on="0"/>
        <pt x="668" y="1048" on="0"/>
        <pt x="671" y="1160" on="0"/>
        <pt x="676" y="1271" on="0"/>
        <pt x="680" y="1319" on="1"/>
        <pt x="673" y="1305" on="0"/>
        <pt x="647" y="1258" on="0"/>
        <pt x="614" y="1200" on="0"/>
        <pt x="577" y="1136" on="0"/>
        <pt x="540" y="1075" on="0"/>
        <pt x="508" y="1022" on="0"/>
        <pt x="496" y="1004" on="1"/>
        <pt x="182" y="516" on="1"/>
        <pt x="666" y="516" on="1"/>
      </contour>
    </TTGlyph>
    <TTGlyph name="#14" xMin="113" yMin="-20" xMax="995" yMax="1460">
      <contour>
        <pt x="489" y="100" on="1"/>
        <pt x="552" y="100" on="0"/>
        <pt x="659" y="135" on="0"/>
        <pt x="738" y="216" on="0"/>
        <pt x="782" y="349" on="0"/>
        <pt x="782" y="446" on="1"/>
        <pt x="782" y="527" on="0"/>
        <pt x="738" y="647" on="0"/>
        <pt x="656" y="727" on="0"/>
        <pt x="542" y="766" on="0"/>
        <pt x="471" y="766" on="1"/>
        <pt x="418" y="766" on="0"/>
        <pt x="341" y="758" on="0"/>
        <pt x="282" y="745" on="0"/>
        <pt x="238" y="729" on="0"/>
        <pt x="219" y="721" on="1"/>
        <pt x="170" y="735" on="1"/>
        <pt x="236" y="1460" on="1"/>
        <pt x="920" y="1460" on="1"/>
        <pt x="930" y="1151" on="1"/>
        <pt x="844" y="1151" on="1"/>
        <pt x="836" y="1212" on="1"/>
        <pt x="833" y="1234" on="0"/>
        <pt x="822" y="1265" on="0"/>
        <pt x="798" y="1286" on="0"/>
        <pt x="757" y="1296" on="0"/>
        <pt x="725" y="1296" on="1"/>
        <pt x="328" y="1296" on="1"/>
        <pt x="289" y="846" on="1"/>
        <pt x="320" y="857" on="0"/>
        <pt x="437" y="879" on="0"/>
        <pt x="528" y="879" on="1"/>
        <pt x="627" y="879" on="0"/>
        <pt x="798" y="825" on="0"/>
        <pt x="924" y="717" on="0"/>
        <pt x="995" y="554" on="0"/>
        <pt x="995" y="446" on="1"/>
        <pt x="995" y="342" on="0"/>
        <pt x="928" y="170" on="0"/>
        <pt x="801" y="47" on="0"/>
        <pt x="617" y="-20" on="0"/>
        <pt x="500" y="-20" on="1"/>
        <pt x="386" y="-20" on="0"/>
        <pt x="237" y="19" on="0"/>
        <pt x="149" y="79" on="0"/>
        <pt x="113" y="152" on="0"/>
        <pt x="113" y="186" on="1"/>
        <pt x="113" y="243" on="0"/>
        <pt x="176" y="307" on="0"/>
        <pt x="242" y="307" on="1"/>
        <pt x="242" y="263" on="0"/>
        <pt x="273" y="187" on="0"/>
        <pt x="334" y="132" on="0"/>
        <pt x="427" y="100" on="0"/>
      </contour>
    </TTGlyph>
    <TTGlyph name="#15" xMin="125" yMin="-20" xMax="1040" yMax="1483">
      <contour>
        <pt x="659" y="1384" on="1"/>
        <pt x="505" y="1384" on="0"/>
        <pt x="347" y="1081" on="0"/>
        <pt x="336" y="782" on="1"/>
        <pt x="361" y="803" on="0"/>
        <pt x="422" y="842" on="0"/>
        <pt x="494" y="871" on="0"/>
        <pt x="579" y="889" on="0"/>
        <pt x="629" y="889" on="1"/>
        <pt x="723" y="889" on="0"/>
        <pt x="875" y="831" on="0"/>
        <pt x="982" y="723" on="0"/>
        <pt x="1040" y="567" on="0"/>
        <pt x="1040" y="469" on="1"/>
        <pt x="1040" y="361" on="0"/>
        <pt x="981" y="181" on="0"/>
        <pt x="868" y="52" on="0"/>
        <pt x="705" y="-20" on="0"/>
        <pt x="600" y="-20" on="1"/>
        <pt x="498" y="-20" on="0"/>
        <pt x="324" y="65" on="0"/>
        <pt x="197" y="248" on="0"/>
        <pt x="125" y="535" on="0"/>
        <pt x="125" y="737" on="1"/>
        <pt x="125" y="834" on="0"/>
        <pt x="154" y="1020" on="0"/>
        <pt x="212" y="1186" on="0"/>
        <pt x="300" y="1326" on="0"/>
        <pt x="419" y="1427" on="0"/>
        <pt x="569" y="1483" on="0"/>
        <pt x="659" y="1483" on="1"/>
        <pt x="745" y="1483" on="0"/>
        <pt x="872" y="1447" on="0"/>
        <pt x="956" y="1387" on="0"/>
        <pt x="997" y="1309" on="0"/>
        <pt x="997" y="1268" on="1"/>
        <pt x="997" y="1209" on="0"/>
        <pt x="917" y="1145" on="0"/>
        <pt x="840" y="1145" on="1"/>
        <pt x="840" y="1195" on="0"/>
        <pt x="821" y="1282" on="0"/>
        <pt x="777" y="1347" on="0"/>
        <pt x="709" y="1384" on="0"/>
      </contour>
      <contour>
        <pt x="588" y="784" on="1"/>
        <pt x="548" y="784" on="0"/>
        <pt x="474" y="763" on="0"/>
        <pt x="409" y="730" on="0"/>
        <pt x="355" y="687" on="0"/>
        <pt x="334" y="666" on="1"/>
        <pt x="336" y="512" on="0"/>
        <pt x="375" y="294" on="0"/>
        <pt x="445" y="156" on="0"/>
        <pt x="545" y="92" on="0"/>
        <pt x="606" y="92" on="1"/>
        <pt x="716" y="92" on="0"/>
        <pt x="831" y="263" on="0"/>
        <pt x="831" y="449" on="1"/>
        <pt x="831" y="624" on="0"/>
        <pt x="706" y="784" on="0"/>
      </contour>
    </TTGlyph>
    <TTGlyph name="#16" xMin="121" yMin="0" xMax="1047" yMax="1460">
      <contour>
        <pt x="389" y="0" on="1"/>
        <pt x="872" y="1296" on="1"/>
        <pt x="334" y="1296" on="1"/>
        <pt x="224" y="1296" on="0"/>
        <pt x="215" y="1192" on="1"/>
        <pt x="207" y="1090" on="1"/>
        <pt x="121" y="1090" on="1"/>
        <pt x="131" y="1460" on="1"/>
        <pt x="1047" y="1460" on="1"/>
        <pt x="1047" y="1401" on="1"/>
        <pt x="543" y="0" on="1"/>
      </contour>
    </TTGlyph>
    <TTGlyph name="#17" xMin="94" yMin="-20" xMax="1051" yMax="1483">
      <contour>
        <pt x="94" y="367" on="1"/>
        <pt x="94" y="441" on="0"/>
        <pt x="141" y="552" on="0"/>
        <pt x="225" y="639" on="0"/>
        <pt x="339" y="709" on="0"/>
        <pt x="406" y="741" on="1"/>
        <pt x="348" y="774" on="0"/>
        <pt x="250" y="851" on="0"/>
        <pt x="180" y="943" on="0"/>
        <pt x="141" y="1052" on="0"/>
        <pt x="141" y="1116" on="1"/>
        <pt x="141" y="1187" on="0"/>
        <pt x="191" y="1319" on="0"/>
        <pt x="297" y="1421" on="0"/>
        <pt x="466" y="1483" on="0"/>
        <pt x="584" y="1483" on="1"/>
        <pt x="680" y="1483" on="0"/>
        <pt x="830" y="1430" on="0"/>
        <pt x="933" y="1336" on="0"/>
        <pt x="987" y="1207" on="0"/>
        <pt x="987" y="1130" on="1"/>
        <pt x="987" y="1063" on="0"/>
        <pt x="947" y="961" on="0"/>
        <pt x="875" y="880" on="0"/>
        <pt x="773" y="815" on="0"/>
        <pt x="711" y="784" on="1"/>
        <pt x="787" y="748" on="0"/>
        <pt x="912" y="666" on="0"/>
        <pt x="1002" y="570" on="0"/>
        <pt x="1051" y="458" on="0"/>
        <pt x="1051" y="391" on="1"/>
        <pt x="1051" y="294" on="0"/>
        <pt x="981" y="141" on="0"/>
        <pt x="853" y="35" on="0"/>
        <pt x="671" y="-20" on="0"/>
        <pt x="559" y="-20" on="1"/>
        <pt x="444" y="-20" on="0"/>
        <pt x="270" y="40" on="0"/>
        <pt x="153" y="145" on="0"/>
        <pt x="94" y="286" on="0"/>
      </contour>
      <contour>
        <pt x="569" y="74" on="1"/>
        <pt x="636" y="74" on="0"/>
        <pt x="745" y="115" on="0"/>
        <pt x="822" y="187" on="0"/>
        <pt x="864" y="287" on="0"/>
        <pt x="864" y="346" on="1"/>
        <pt x="864" y="398" on="0"/>
        <pt x="826" y="487" on="0"/>
        <pt x="740" y="570" on="0"/>
        <pt x="603" y="649" on="0"/>
        <pt x="504" y="692" on="1"/>
        <pt x="407" y="640" on="0"/>
        <pt x="293" y="474" on="0"/>
        <pt x="293" y="358" on="1"/>
        <pt x="293" y="294" on="0"/>
        <pt x="328" y="190" on="0"/>
        <pt x="397" y="115" on="0"/>
        <pt x="501" y="74" on="0"/>
      </contour>
      <contour>
        <pt x="805" y="1135" on="1"/>
        <pt x="805" y="1182" on="0"/>
        <pt x="780" y="1272" on="0"/>
        <pt x="725" y="1343" on="0"/>
        <pt x="636" y="1386" on="0"/>
        <pt x="571" y="1386" on="1"/>
        <pt x="514" y="1386" on="0"/>
        <pt x="425" y="1349" on="0"/>
        <pt x="365" y="1284" on="0"/>
        <pt x="334" y="1194" on="0"/>
        <pt x="334" y="1141" on="1"/>
        <pt x="334" y="1086" on="0"/>
        <pt x="369" y="998" on="0"/>
        <pt x="438" y="926" on="0"/>
        <pt x="542" y="863" on="0"/>
        <pt x="610" y="831" on="1"/>
        <pt x="668" y="860" on="0"/>
        <pt x="743" y="921" on="0"/>
        <pt x="787" y="994" on="0"/>
        <pt x="805" y="1081" on="0"/>
      </contour>
    </TTGlyph>
    <TTGlyph name="#18" xMin="104" yMin="-23" xMax="1020" yMax="1483">
      <contour>
        <pt x="467" y="90" on="1"/>
        <pt x="637" y="90" on="0"/>
        <pt x="799" y="394" on="0"/>
        <pt x="809" y="702" on="1"/>
        <pt x="787" y="675" on="0"/>
        <pt x="728" y="625" on="0"/>
        <pt x="653" y="586" on="0"/>
        <pt x="562" y="563" on="0"/>
        <pt x="508" y="563" on="1"/>
        <pt x="419" y="563" on="0"/>
        <pt x="270" y="615" on="0"/>
        <pt x="163" y="719" on="0"/>
        <pt x="104" y="875" on="0"/>
        <pt x="104" y="979" on="1"/>
        <pt x="104" y="1090" on="0"/>
        <pt x="164" y="1275" on="0"/>
        <pt x="277" y="1408" on="0"/>
        <pt x="440" y="1483" on="0"/>
        <pt x="543" y="1483" on="1"/>
        <pt x="647" y="1483" on="0"/>
        <pt x="821" y="1403" on="0"/>
        <pt x="949" y="1235" on="0"/>
        <pt x="1020" y="975" on="0"/>
        <pt x="1020" y="795" on="1"/>
        <pt x="1020" y="688" on="0"/>
        <pt x="993" y="483" on="0"/>
        <pt x="936" y="301" on="0"/>
        <pt x="847" y="149" on="0"/>
        <pt x="724" y="38" on="0"/>
        <pt x="564" y="-23" on="0"/>
        <pt x="465" y="-23" on="1"/>
        <pt x="378" y="-23" on="0"/>
        <pt x="263" y="8" on="0"/>
        <pt x="196" y="58" on="0"/>
        <pt x="168" y="122" on="0"/>
        <pt x="168" y="154" on="1"/>
        <pt x="168" y="192" on="0"/>
        <pt x="206" y="244" on="0"/>
        <pt x="229" y="252" on="1"/>
        <pt x="243" y="220" on="0"/>
        <pt x="284" y="161" on="0"/>
        <pt x="343" y="116" on="0"/>
        <pt x="419" y="90" on="0"/>
      </contour>
      <contour>
        <pt x="553" y="684" on="1"/>
        <pt x="603" y="685" on="0"/>
        <pt x="686" y="712" on="0"/>
        <pt x="750" y="757" on="0"/>
        <pt x="797" y="817" on="0"/>
        <pt x="811" y="850" on="1"/>
        <pt x="811" y="854" on="1"/>
        <pt x="809" y="989" on="0"/>
        <pt x="769" y="1184" on="0"/>
        <pt x="699" y="1310" on="0"/>
        <pt x="602" y="1370" on="0"/>
        <pt x="543" y="1370" on="1"/>
        <pt x="434" y="1370" on="0"/>
        <pt x="315" y="1180" on="0"/>
        <pt x="315" y="999" on="1"/>
        <pt x="315" y="915" on="0"/>
        <pt x="345" y="795" on="0"/>
        <pt x="405" y="719" on="0"/>
        <pt x="494" y="684" on="0"/>
      </contour>
    </TTGlyph>
    <TTGlyph name="#19" xMin="166" yMin="-14" xMax="424" yMax="1108">
      <contour>
        <pt x="166" y="125" on="1"/>
        <pt x="166" y="165" on="0"/>
        <pt x="186" y="218" on="0"/>
        <pt x="221" y="250" on="0"/>
        <pt x="268" y="264" on="0"/>
        <pt x="295" y="264" on="1"/>
        <pt x="321" y="264" on="0"/>
        <pt x="368" y="250" on="0"/>
        <pt x="403" y="218" on="0"/>
        <pt x="424" y="165" on="0"/>
        <pt x="424" y="125" on="1"/>
        <pt x="424" y="86" on="0"/>
        <pt x="403" y="32" on="0"/>
        <pt x="368" y="0" on="0"/>
        <pt x="321" y="-14" on="0"/>
        <pt x="295" y="-14" on="1"/>
        <pt x="268" y="-14" on="0"/>
        <pt x="221" y="0" on="0"/>
        <pt x="186" y="32" on="0"/>
        <pt x="166" y="86" on="0"/>
      </contour>
      <contour>
        <pt x="166" y="969" on="1"/>
        <pt x="166" y="1009" on="0"/>
        <pt x="186" y="1062" on="0"/>
        <pt x="221" y="1094" on="0"/>
        <pt x="268" y="1108" on="0"/>
        <pt x="295" y="1108" on="1"/>
        <pt x="321" y="1108" on="0"/>
        <pt x="368" y="1094" on="0"/>
        <pt x="403" y="1062" on="0"/>
        <pt x="424" y="1009" on="0"/>
        <pt x="424" y="969" on="1"/>
        <pt x="424" y="930" on="0"/>
        <pt x="403" y="876" on="0"/>
        <pt x="368" y="843" on="0"/>
        <pt x="321" y="829" on="0"/>
        <pt x="295" y="829" on="1"/>
        <pt x="268" y="829" on="0"/>
        <pt x="221" y="843" on="0"/>
        <pt x="186" y="876" on="0"/>
        <pt x="166" y="930" on="0"/>
      </contour>
    </TTGlyph>
    <TTGlyph name="#2" xMin="66" yMin="-262" xMax="592" yMax="1556">
      <contour>
        <pt x="379" y="649" on="1"/>
        <pt x="379" y="771" on="0"/>
        <pt x="360" y="1009" on="0"/>
        <pt x="295" y="1221" on="0"/>
        <pt x="171" y="1400" on="0"/>
        <pt x="66" y="1464" on="1"/>
        <pt x="66" y="1556" on="1"/>
        <pt x="207" y="1500" on="0"/>
        <pt x="407" y="1341" on="0"/>
        <pt x="533" y="1121" on="0"/>
        <pt x="592" y="834" on="0"/>
        <pt x="592" y="649" on="1"/>
        <pt x="592" y="464" on="0"/>
        <pt x="533" y="175" on="0"/>
        <pt x="407" y="-46" on="0"/>
        <pt x="207" y="-206" on="0"/>
        <pt x="66" y="-262" on="1"/>
        <pt x="66" y="-168" on="1"/>
        <pt x="171" y="-104" on="0"/>
        <pt x="295" y="76" on="0"/>
        <pt x="360" y="289" on="0"/>
        <pt x="379" y="527" on="0"/>
      </contour>
    </TTGlyph>
    <TTGlyph name="#20" xMin="61" yMin="-315" xMax="397" yMax="1108">
      <contour>
        <pt x="397" y="86" on="1"/>
        <pt x="397" y="21" on="0"/>
        <pt x="361" y="-101" on="0"/>
        <pt x="280" y="-205" on="0"/>
        <pt x="153" y="-288" on="0"/>
        <pt x="61" y="-315" on="1"/>
        <pt x="61" y="-229" on="1"/>
        <pt x="162" y="-197" on="0"/>
        <pt x="256" y="-105" on="0"/>
        <pt x="256" y="-45" on="1"/>
        <pt x="256" y="-25" on="0"/>
        <pt x="234" y="2" on="0"/>
        <pt x="200" y="23" on="0"/>
        <pt x="162" y="43" on="0"/>
        <pt x="128" y="71" on="0"/>
        <pt x="106" y="112" on="0"/>
        <pt x="106" y="143" on="1"/>
        <pt x="106" y="202" on="0"/>
        <pt x="183" y="264" on="0"/>
        <pt x="240" y="264" on="1"/>
        <pt x="272" y="264" on="0"/>
        <pt x="328" y="241" on="0"/>
        <pt x="372" y="196" on="0"/>
        <pt x="397" y="129" on="0"/>
      </contour>
      <contour>
        <pt x="129" y="969" on="1"/>
        <pt x="129" y="1009" on="0"/>
        <pt x="149" y="1062" on="0"/>
        <pt x="184" y="1094" on="0"/>
        <pt x="231" y="1108" on="0"/>
        <pt x="258" y="1108" on="1"/>
        <pt x="284" y="1108" on="0"/>
        <pt x="331" y="1094" on="0"/>
        <pt x="366" y="1062" on="0"/>
        <pt x="387" y="1009" on="0"/>
        <pt x="387" y="969" on="1"/>
        <pt x="387" y="930" on="0"/>
        <pt x="366" y="876" on="0"/>
        <pt x="331" y="843" on="0"/>
        <pt x="284" y="829" on="0"/>
        <pt x="258" y="829" on="1"/>
        <pt x="231" y="829" on="0"/>
        <pt x="184" y="843" on="0"/>
        <pt x="149" y="876" on="0"/>
        <pt x="129" y="930" on="0"/>
      </contour>
    </TTGlyph>
    <TTGlyph name="#21" xMin="133" yMin="225" xMax="1012" yMax="1241">
      <contour>
        <pt x="133" y="696" on="1"/>
        <pt x="133" y="768" on="1"/>
        <pt x="1012" y="1241" on="1"/>
        <pt x="1012" y="1104" on="1"/>
        <pt x="324" y="731" on="1"/>
        <pt x="1012" y="362" on="1"/>
        <pt x="1012" y="225" on="1"/>
      </contour>
    </TTGlyph>
    <TTGlyph name="#22" xMin="133" yMin="469" xMax="1012" yMax="993">
      <contour>
        <pt x="1012" y="590" on="1"/>
        <pt x="1012" y="469" on="1"/>
        <pt x="133" y="469" on="1"/>
        <pt x="133" y="590" on="1"/>
      </contour>
      <contour>
        <pt x="1012" y="993" on="1"/>
        <pt x="1012" y="872" on="1"/>
        <pt x="133" y="872" on="1"/>
        <pt x="133" y="993" on="1"/>
      </contour>
    </TTGlyph>
    <TTGlyph name="#23" xMin="133" yMin="225" xMax="1012" yMax="1241">
      <contour>
        <pt x="133" y="225" on="1"/>
        <pt x="133" y="362" on="1"/>
        <pt x="821" y="731" on="1"/>
        <pt x="133" y="1104" on="1"/>
        <pt x="133" y="1241" on="1"/>
        <pt x="1012" y="768" on="1"/>
        <pt x="1012" y="696" on="1"/>
      </contour>
    </TTGlyph>
    <TTGlyph name="#24" xMin="88" yMin="-14" xMax="920" yMax="1483">
      <contour>
        <pt x="522" y="412" on="1"/>
        <pt x="397" y="412" on="1"/>
        <pt x="397" y="723" on="1"/>
        <pt x="486" y="759" on="0"/>
        <pt x="607" y="854" on="0"/>
        <pt x="680" y="965" on="0"/>
        <pt x="711" y="1086" on="0"/>
        <pt x="711" y="1147" on="1"/>
        <pt x="711" y="1200" on="0"/>
        <pt x="685" y="1287" on="0"/>
        <pt x="631" y="1348" on="0"/>
        <pt x="546" y="1382" on="0"/>
        <pt x="487" y="1382" on="1"/>
        <pt x="423" y="1382" on="0"/>
        <pt x="336" y="1340" on="0"/>
        <pt x="282" y="1268" on="0"/>
        <pt x="258" y="1173" on="0"/>
        <pt x="258" y="1120" on="1"/>
        <pt x="221" y="1120" on="0"/>
        <pt x="159" y="1137" on="0"/>
        <pt x="114" y="1170" on="0"/>
        <pt x="88" y="1220" on="0"/>
        <pt x="88" y="1253" on="1"/>
        <pt x="88" y="1302" on="0"/>
        <pt x="133" y="1386" on="0"/>
        <pt x="228" y="1448" on="0"/>
        <pt x="372" y="1483" on="0"/>
        <pt x="471" y="1483" on="1"/>
        <pt x="568" y="1483" on="0"/>
        <pt x="732" y="1433" on="0"/>
        <pt x="852" y="1338" on="0"/>
        <pt x="920" y="1200" on="0"/>
        <pt x="920" y="1112" on="1"/>
        <pt x="920" y="1028" on="0"/>
        <pt x="867" y="890" on="0"/>
        <pt x="765" y="776" on="0"/>
        <pt x="617" y="682" on="0"/>
        <pt x="522" y="643" on="1"/>
      </contour>
      <contour>
        <pt x="328" y="125" on="1"/>
        <pt x="328" y="165" on="0"/>
        <pt x="348" y="218" on="0"/>
        <pt x="383" y="250" on="0"/>
        <pt x="430" y="264" on="0"/>
        <pt x="457" y="264" on="1"/>
        <pt x="483" y="264" on="0"/>
        <pt x="530" y="250" on="0"/>
        <pt x="565" y="218" on="0"/>
        <pt x="586" y="165" on="0"/>
        <pt x="586" y="125" on="1"/>
        <pt x="586" y="86" on="0"/>
        <pt x="565" y="32" on="0"/>
        <pt x="530" y="0" on="0"/>
        <pt x="483" y="-14" on="0"/>
        <pt x="457" y="-14" on="1"/>
        <pt x="430" y="-14" on="0"/>
        <pt x="383" y="0" on="0"/>
        <pt x="348" y="32" on="0"/>
        <pt x="328" y="86" on="0"/>
      </contour>
    </TTGlyph>
    <TTGlyph name="#25" xMin="133" yMin="-291" xMax="1778" yMax="1462">
      <contour>
        <pt x="1778" y="803" on="1"/>
        <pt x="1778" y="655" on="0"/>
        <pt x="1706" y="416" on="0"/>
        <pt x="1590" y="248" on="0"/>
        <pt x="1447" y="158" on="0"/>
        <pt x="1376" y="158" on="1"/>
        <pt x="1285" y="158" on="0"/>
        <pt x="1164" y="256" on="0"/>
        <pt x="1135" y="344" on="1"/>
        <pt x="1124" y="344" on="1"/>
        <pt x="1103" y="304" on="0"/>
        <pt x="1050" y="236" on="0"/>
        <pt x="983" y="186" on="0"/>
        <pt x="900" y="158" on="0"/>
        <pt x="848" y="158" on="1"/>
        <pt x="786" y="158" on="0"/>
        <pt x="673" y="200" on="0"/>
        <pt x="588" y="286" on="0"/>
        <pt x="537" y="418" on="0"/>
        <pt x="537" y="508" on="1"/>
        <pt x="537" y="563" on="0"/>
        <pt x="562" y="691" on="0"/>
        <pt x="615" y="818" on="0"/>
        <pt x="698" y="937" on="0"/>
        <pt x="814" y="1028" on="0"/>
        <pt x="965" y="1083" on="0"/>
        <pt x="1059" y="1083" on="1"/>
        <pt x="1125" y="1083" on="0"/>
        <pt x="1220" y="1047" on="0"/>
        <pt x="1251" y="1022" on="1"/>
        <pt x="1333" y="1065" on="1"/>
        <pt x="1382" y="1065" on="1"/>
        <pt x="1278" y="543" on="1"/>
        <pt x="1275" y="519" on="0"/>
        <pt x="1271" y="495" on="1"/>
        <pt x="1268" y="475" on="0"/>
        <pt x="1264" y="427" on="0"/>
        <pt x="1264" y="406" on="1"/>
        <pt x="1264" y="370" on="0"/>
        <pt x="1285" y="317" on="0"/>
        <pt x="1319" y="282" on="0"/>
        <pt x="1364" y="266" on="0"/>
        <pt x="1389" y="266" on="1"/>
        <pt x="1434" y="266" on="0"/>
        <pt x="1528" y="338" on="0"/>
        <pt x="1604" y="477" on="0"/>
        <pt x="1653" y="679" on="0"/>
        <pt x="1653" y="809" on="1"/>
        <pt x="1653" y="943" on="0"/>
        <pt x="1567" y="1148" on="0"/>
        <pt x="1414" y="1287" on="0"/>
        <pt x="1201" y="1358" on="0"/>
        <pt x="1073" y="1358" on="1"/>
        <pt x="973" y="1358" on="0"/>
        <pt x="780" y="1302" on="0"/>
        <pt x="608" y="1193" on="0"/>
        <pt x="461" y="1036" on="0"/>
        <pt x="355" y="835" on="0"/>
        <pt x="295" y="591" on="0"/>
        <pt x="295" y="451" on="1"/>
        <pt x="295" y="280" on="0"/>
        <pt x="393" y="39" on="0"/>
        <pt x="560" y="-114" on="0"/>
        <pt x="781" y="-184" on="0"/>
        <pt x="905" y="-184" on="1"/>
        <pt x="989" y="-184" on="0"/>
        <pt x="1139" y="-155" on="0"/>
        <pt x="1270" y="-107" on="0"/>
        <pt x="1381" y="-46" on="0"/>
        <pt x="1425" y="-14" on="1"/>
        <pt x="1473" y="-88" on="1"/>
        <pt x="1422" y="-126" on="0"/>
        <pt x="1296" y="-199" on="0"/>
        <pt x="1149" y="-256" on="0"/>
        <pt x="980" y="-291" on="0"/>
        <pt x="885" y="-291" on="1"/>
        <pt x="720" y="-291" on="0"/>
        <pt x="444" y="-200" on="0"/>
        <pt x="245" y="-16" on="0"/>
        <pt x="133" y="260" on="0"/>
        <pt x="133" y="446" on="1"/>
        <pt x="133" y="591" on="0"/>
        <pt x="196" y="854" on="0"/>
        <pt x="315" y="1080" on="0"/>
        <pt x="484" y="1263" on="0"/>
        <pt x="696" y="1392" on="0"/>
        <pt x="945" y="1462" on="0"/>
        <pt x="1085" y="1462" on="1"/>
        <pt x="1257" y="1462" on="0"/>
        <pt x="1517" y="1360" on="0"/>
        <pt x="1691" y="1183" on="0"/>
        <pt x="1778" y="942" on="0"/>
      </contour>
      <contour>
        <pt x="727" y="479" on="1"/>
        <pt x="727" y="371" on="0"/>
        <pt x="814" y="266" on="0"/>
        <pt x="883" y="266" on="1"/>
        <pt x="935" y="266" on="0"/>
        <pt x="1011" y="311" on="0"/>
        <pt x="1063" y="383" on="0"/>
        <pt x="1095" y="475" on="0"/>
        <pt x="1104" y="522" on="1"/>
        <pt x="1182" y="938" on="1"/>
        <pt x="1169" y="967" on="0"/>
        <pt x="1104" y="999" on="0"/>
        <pt x="1067" y="999" on="1"/>
        <pt x="1006" y="999" on="0"/>
        <pt x="907" y="946" on="0"/>
        <pt x="832" y="860" on="0"/>
        <pt x="778" y="749" on="0"/>
        <pt x="743" y="633" on="0"/>
        <pt x="727" y="523" on="0"/>
      </contour>
    </TTGlyph>
    <TTGlyph name="#3" xMin="84" yMin="774" xMax="928" yMax="1556">
      <contour>
        <pt x="84" y="1268" on="1"/>
        <pt x="156" y="1430" on="1"/>
        <pt x="471" y="1231" on="1"/>
        <pt x="418" y="1556" on="1"/>
        <pt x="596" y="1556" on="1"/>
        <pt x="539" y="1233" on="1"/>
        <pt x="856" y="1425" on="1"/>
        <pt x="928" y="1266" on="1"/>
        <pt x="582" y="1165" on="1"/>
        <pt x="928" y="1065" on="1"/>
        <pt x="856" y="907" on="1"/>
        <pt x="539" y="1098" on="1"/>
        <pt x="596" y="774" on="1"/>
        <pt x="418" y="774" on="1"/>
        <pt x="469" y="1098" on="1"/>
        <pt x="156" y="903" on="1"/>
        <pt x="84" y="1063" on="1"/>
        <pt x="428" y="1165" on="1"/>
      </contour>
    </TTGlyph>
    <TTGlyph name="#4" xMin="133" yMin="293" xMax="1012" yMax="1171">
      <contour>
        <pt x="633" y="672" on="1"/>
        <pt x="633" y="293" on="1"/>
        <pt x="510" y="293" on="1"/>
        <pt x="510" y="672" on="1"/>
        <pt x="133" y="672" on="1"/>
        <pt x="133" y="793" on="1"/>
        <pt x="510" y="793" on="1"/>
        <pt x="510" y="1171" on="1"/>
        <pt x="633" y="1171" on="1"/>
        <pt x="633" y="793" on="1"/>
        <pt x="1012" y="793" on="1"/>
        <pt x="1012" y="672" on="1"/>
      </contour>
    </TTGlyph>
    <TTGlyph name="#5" xMin="61" yMin="-315" xMax="397" yMax="264">
      <contour>
        <pt x="397" y="86" on="1"/>
        <pt x="397" y="21" on="0"/>
        <pt x="361" y="-101" on="0"/>
        <pt x="280" y="-205" on="0"/>
        <pt x="153" y="-288" on="0"/>
        <pt x="61" y="-315" on="1"/>
        <pt x="61" y="-229" on="1"/>
        <pt x="162" y="-197" on="0"/>
        <pt x="256" y="-105" on="0"/>
        <pt x="256" y="-45" on="1"/>
        <pt x="256" y="-25" on="0"/>
        <pt x="234" y="2" on="0"/>
        <pt x="200" y="23" on="0"/>
        <pt x="162" y="43" on="0"/>
        <pt x="128" y="71" on="0"/>
        <pt x="106" y="112" on="0"/>
        <pt x="106" y="143" on="1"/>
        <pt x="106" y="202" on="0"/>
        <pt x="183" y="264" on="0"/>
        <pt x="240" y="264" on="1"/>
        <pt x="272" y="264" on="0"/>
        <pt x="328" y="241" on="0"/>
        <pt x="372" y="196" on="0"/>
        <pt x="397" y="129" on="0"/>
      </contour>
    </TTGlyph>
    <TTGlyph name="#6" xMin="51" yMin="481" xMax="584" yMax="635">
      <contour>
        <pt x="51" y="481" on="1"/>
        <pt x="51" y="635" on="1"/>
        <pt x="584" y="635" on="1"/>
        <pt x="584" y="481" on="1"/>
      </contour>
    </TTGlyph>
    <TTGlyph name="#7" xMin="164" yMin="-14" xMax="422" yMax="264">
      <contour>
        <pt x="164" y="125" on="1"/>
        <pt x="164" y="165" on="0"/>
        <pt x="184" y="218" on="0"/>
        <pt x="219" y="250" on="0"/>
        <pt x="266" y="264" on="0"/>
        <pt x="293" y="264" on="1"/>
        <pt x="319" y="264" on="0"/>
        <pt x="366" y="250" on="0"/>
        <pt x="401" y="218" on="0"/>
        <pt x="422" y="165" on="0"/>
        <pt x="422" y="125" on="1"/>
        <pt x="422" y="86" on="0"/>
        <pt x="401" y="32" on="0"/>
        <pt x="366" y="0" on="0"/>
        <pt x="319" y="-14" on="0"/>
        <pt x="293" y="-14" on="1"/>
        <pt x="266" y="-14" on="0"/>
        <pt x="219" y="0" on="0"/>
        <pt x="184" y="32" on="0"/>
        <pt x="164" y="86" on="0"/>
      </contour>
    </TTGlyph>
    <TTGlyph name="#8" xMin="0" yMin="-248" xMax="590" yMax="1556">
      <contour>
        <pt x="121" y="-248" on="1"/>
        <pt x="0" y="-248" on="1"/>
        <pt x="471" y="1556" on="1"/>
        <pt x="590" y="1556" on="1"/>
      </contour>
    </TTGlyph>
    <TTGlyph name="#9" xMin="92" yMin="-20" xMax="1053" yMax="1483">
      <contour>
        <pt x="1053" y="733" on="1"/>
        <pt x="1053" y="564" on="0"/>
        <pt x="994" y="286" on="0"/>
        <pt x="874" y="88" on="0"/>
        <pt x="694" y="-20" on="0"/>
        <pt x="573" y="-20" on="1"/>
        <pt x="447" y="-20" on="0"/>
        <pt x="265" y="88" on="0"/>
        <pt x="148" y="286" on="0"/>
        <pt x="92" y="565" on="0"/>
        <pt x="92" y="735" on="1"/>
        <pt x="92" y="905" on="0"/>
        <pt x="148" y="1181" on="0"/>
        <pt x="265" y="1377" on="0"/>
        <pt x="448" y="1483" on="0"/>
        <pt x="575" y="1483" on="1"/>
        <pt x="695" y="1483" on="0"/>
        <pt x="874" y="1377" on="0"/>
        <pt x="994" y="1181" on="0"/>
        <pt x="1053" y="904" on="0"/>
      </contour>
      <contour>
        <pt x="305" y="733" on="1"/>
        <pt x="305" y="581" on="0"/>
        <pt x="333" y="342" on="0"/>
        <pt x="396" y="177" on="0"/>
        <pt x="499" y="90" on="0"/>
        <pt x="573" y="90" on="1"/>
        <pt x="648" y="90" on="0"/>
        <pt x="750" y="177" on="0"/>
        <pt x="813" y="342" on="0"/>
        <pt x="840" y="581" on="0"/>
        <pt x="840" y="733" on="1"/>
        <pt x="840" y="885" on="0"/>
        <pt x="813" y="1123" on="0"/>
        <pt x="750" y="1287" on="0"/>
        <pt x="649" y="1372" on="0"/>
        <pt x="575" y="1372" on="1"/>
        <pt x="500" y="1372" on="0"/>
        <pt x="397" y="1287" on="0"/>
        <pt x="333" y="1123" on="0"/>
        <pt x="305" y="885" on="0"/>
      </contour>
    </TTGlyph>
    <TTGlyph name=".notdef" xMin="102" yMin="0" xMax="922" yMax="1462">
      <contour>
        <pt x="102" y="0" on="1"/>
        <pt x="102" y="1462" on="1"/>
        <pt x="922" y="1462" on="1"/>
        <pt x="922" y="0" on="1"/>
      </contour>
      <contour>
        <pt x="201" y="98" on="1"/>
        <pt x="823" y="98" on="1"/>
        <pt x="823" y="1364" on="1"/>
        <pt x="201" y="1364" on="1"/>
      </contour>
    </TTGlyph>
    <TTGlyph name="ampersand" xMin="74" yMin="-20" xMax="1501" yMax="1483">
      <contour>
        <pt x="1174" y="0" on="1"/>
        <pt x="1004" y="180" on="1"/>
        <pt x="967" y="138" on="0"/>
        <pt x="878" y="65" on="0"/>
        <pt x="770" y="11" on="0"/>
        <pt x="639" y="-20" on="0"/>
        <pt x="561" y="-20" on="1"/>
        <pt x="438" y="-20" on="0"/>
        <pt x="255" y="42" on="0"/>
        <pt x="134" y="155" on="0"/>
        <pt x="74" y="313" on="0"/>
        <pt x="74" y="410" on="1"/>
        <pt x="74" y="497" on="0"/>
        <pt x="121" y="626" on="0"/>
        <pt x="206" y="724" on="0"/>
        <pt x="327" y="798" on="0"/>
        <pt x="401" y="829" on="1"/>
        <pt x="362" y="875" on="0"/>
        <pt x="303" y="960" on="0"/>
        <pt x="264" y="1044" on="0"/>
        <pt x="244" y="1132" on="0"/>
        <pt x="244" y="1182" on="1"/>
        <pt x="244" y="1250" on="0"/>
        <pt x="288" y="1360" on="0"/>
        <pt x="382" y="1440" on="0"/>
        <pt x="529" y="1483" on="0"/>
        <pt x="631" y="1483" on="1"/>
        <pt x="729" y="1483" on="0"/>
        <pt x="867" y="1437" on="0"/>
        <pt x="954" y="1357" on="0"/>
        <pt x="993" y="1251" on="0"/>
        <pt x="993" y="1192" on="1"/>
        <pt x="993" y="1126" on="0"/>
        <pt x="955" y="1024" on="0"/>
        <pt x="872" y="938" on="0"/>
        <pt x="741" y="861" on="0"/>
        <pt x="647" y="821" on="1"/>
        <pt x="1020" y="426" on="1"/>
        <pt x="1034" y="472" on="0"/>
        <pt x="1052" y="567" on="0"/>
        <pt x="1063" y="658" on="0"/>
        <pt x="1067" y="745" on="0"/>
        <pt x="1067" y="782" on="1"/>
        <pt x="1067" y="862" on="1"/>
        <pt x="1436" y="862" on="1"/>
        <pt x="1436" y="776" on="1"/>
        <pt x="1417" y="776" on="1"/>
        <pt x="1383" y="776" on="0"/>
        <pt x="1317" y="768" on="0"/>
        <pt x="1260" y="739" on="0"/>
        <pt x="1215" y="684" on="0"/>
        <pt x="1202" y="637" on="1"/>
        <pt x="1184" y="571" on="0"/>
        <pt x="1137" y="417" on="0"/>
        <pt x="1102" y="340" on="1"/>
        <pt x="1292" y="137" on="1"/>
        <pt x="1307" y="122" on="0"/>
        <pt x="1339" y="102" on="0"/>
        <pt x="1382" y="90" on="0"/>
        <pt x="1441" y="86" on="0"/>
        <pt x="1483" y="86" on="1"/>
        <pt x="1501" y="86" on="1"/>
        <pt x="1501" y="0" on="1"/>
      </contour>
      <contour>
        <pt x="580" y="94" on="1"/>
        <pt x="640" y="94" on="0"/>
        <pt x="743" y="119" on="0"/>
        <pt x="829" y="163" on="0"/>
        <pt x="901" y="224" on="0"/>
        <pt x="930" y="260" on="1"/>
        <pt x="477" y="745" on="1"/>
        <pt x="430" y="719" on="0"/>
        <pt x="355" y="656" on="0"/>
        <pt x="302" y="573" on="0"/>
        <pt x="274" y="469" on="0"/>
        <pt x="274" y="403" on="1"/>
        <pt x="274" y="328" on="0"/>
        <pt x="318" y="213" on="0"/>
        <pt x="399" y="134" on="0"/>
        <pt x="511" y="94" on="0"/>
      </contour>
      <contour>
        <pt x="813" y="1190" on="1"/>
        <pt x="813" y="1231" on="0"/>
        <pt x="793" y="1301" on="0"/>
        <pt x="748" y="1352" on="0"/>
        <pt x="675" y="1382" on="0"/>
        <pt x="623" y="1382" on="1"/>
        <pt x="532" y="1382" on="0"/>
        <pt x="434" y="1276" on="0"/>
        <pt x="434" y="1188" on="1"/>
        <pt x="434" y="1149" on="0"/>
        <pt x="450" y="1081" on="0"/>
        <pt x="485" y="1014" on="0"/>
        <pt x="539" y="942" on="0"/>
        <pt x="578" y="899" on="1"/>
        <pt x="638" y="925" on="0"/>
        <pt x="727" y="983" on="0"/>
        <pt x="785" y="1052" on="0"/>
        <pt x="813" y="1136" on="0"/>
      </contour>
    </TTGlyph>
    <TTGlyph name="dollar" xMin="135" yMin="-162" xMax="1001" yMax="1556">
      <contour>
        <pt x="621" y="1401" on="1"/>
        <pt x="713" y="1399" on="0"/>
        <pt x="842" y="1362" on="0"/>
        <pt x="924" y="1301" on="0"/>
        <pt x="961" y="1219" on="0"/>
        <pt x="961" y="1171" on="1"/>
        <pt x="961" y="1105" on="0"/>
        <pt x="873" y="1038" on="0"/>
        <pt x="799" y="1038" on="1"/>
        <pt x="799" y="1083" on="0"/>
        <pt x="784" y="1174" on="0"/>
        <pt x="745" y="1249" on="0"/>
        <pt x="675" y="1301" on="0"/>
        <pt x="621" y="1307" on="1"/>
        <pt x="621" y="829" on="1"/>
        <pt x="713" y="789" on="0"/>
        <pt x="855" y="709" on="0"/>
        <pt x="951" y="616" on="0"/>
        <pt x="1001" y="503" on="0"/>
        <pt x="1001" y="430" on="1"/>
        <pt x="1001" y="276" on="0"/>
        <pt x="803" y="105" on="0"/>
        <pt x="621" y="86" on="1"/>
        <pt x="621" y="-162" on="1"/>
        <pt x="518" y="-162" on="1"/>
        <pt x="518" y="82" on="1"/>
        <pt x="467" y="82" on="0"/>
        <pt x="363" y="91" on="0"/>
        <pt x="264" y="112" on="0"/>
        <pt x="173" y="144" on="0"/>
        <pt x="135" y="166" on="1"/>
        <pt x="135" y="481" on="1"/>
        <pt x="221" y="481" on="1"/>
        <pt x="221" y="424" on="0"/>
        <pt x="264" y="317" on="0"/>
        <pt x="343" y="232" on="0"/>
        <pt x="452" y="177" on="0"/>
        <pt x="518" y="172" on="1"/>
        <pt x="518" y="678" on="1"/>
        <pt x="422" y="721" on="0"/>
        <pt x="289" y="805" on="0"/>
        <pt x="207" y="898" on="0"/>
        <pt x="170" y="1006" on="0"/>
        <pt x="170" y="1073" on="1"/>
        <pt x="170" y="1142" on="0"/>
        <pt x="219" y="1254" on="0"/>
        <pt x="309" y="1337" on="0"/>
        <pt x="438" y="1388" on="0"/>
        <pt x="518" y="1397" on="1"/>
        <pt x="518" y="1556" on="1"/>
        <pt x="621" y="1556" on="1"/>
      </contour>
      <contour>
        <pt x="813" y="399" on="1"/>
        <pt x="813" y="440" on="0"/>
        <pt x="793" y="505" on="0"/>
        <pt x="747" y="561" on="0"/>
        <pt x="674" y="609" on="0"/>
        <pt x="621" y="633" on="1"/>
        <pt x="621" y="178" on="1"/>
        <pt x="713" y="194" on="0"/>
        <pt x="813" y="311" on="0"/>
      </contour>
      <contour>
        <pt x="354" y="1090" on="1"/>
        <pt x="354" y="1047" on="0"/>
        <pt x="375" y="982" on="0"/>
        <pt x="417" y="932" on="0"/>
        <pt x="478" y="892" on="0"/>
        <pt x="518" y="874" on="1"/>
        <pt x="518" y="1303" on="1"/>
        <pt x="478" y="1294" on="0"/>
        <pt x="416" y="1255" on="0"/>
        <pt x="375" y="1200" on="0"/>
        <pt x="354" y="1130" on="0"/>
      </contour>
    </TTGlyph>
    <TTGlyph name="exclam" xMin="211" yMin="-14" xMax="469" yMax="1462">
      <contour>
        <pt x="221" y="1462" on="1"/>
        <pt x="459" y="1462" on="1"/>
        <pt x="387" y="412" on="1"/>
        <pt x="293" y="412" on="1"/>
      </contour>
      <contour>
        <pt x="211" y="125" on="1"/>
        <pt x="211" y="165" on="0"/>
        <pt x="231" y="218" on="0"/>
        <pt x="266" y="250" on="0"/>
        <pt x="313" y="264" on="0"/>
        <pt x="340" y="264" on="1"/>
        <pt x="366" y="264" on="0"/>
        <pt x="413" y="250" on="0"/>
        <pt x="448" y="218" on="0"/>
        <pt x="469" y="165" on="0"/>
        <pt x="469" y="125" on="1"/>
        <pt x="469" y="86" on="0"/>
        <pt x="448" y="32" on="0"/>
        <pt x="413" y="0" on="0"/>
        <pt x="366" y="-14" on="0"/>
        <pt x="340" y="-14" on="1"/>
        <pt x="313" y="-14" on="0"/>
        <pt x="266" y="0" on="0"/>
        <pt x="231" y="32" on="0"/>
        <pt x="211" y="86" on="0"/>
      </contour>
    </TTGlyph>
    <TTGlyph name="numbersign" xMin="82" yMin="0" xMax="1063" yMax="1462">
      <contour>
        <pt x="397" y="537" on="1"/>
        <pt x="682" y="537" on="1"/>
        <pt x="758" y="938" on="1"/>
        <pt x="473" y="938" on="1"/>
      </contour>
      <contour>
        <pt x="1038" y="537" on="1"/>
        <pt x="1038" y="416" on="1"/>
        <pt x="780" y="416" on="1"/>
        <pt x="702" y="0" on="1"/>
        <pt x="580" y="0" on="1"/>
        <pt x="657" y="416" on="1"/>
        <pt x="373" y="416" on="1"/>
        <pt x="295" y="0" on="1"/>
        <pt x="172" y="0" on="1"/>
        <pt x="250" y="416" on="1"/>
        <pt x="82" y="416" on="1"/>
        <pt x="82" y="537" on="1"/>
        <pt x="272" y="537" on="1"/>
        <pt x="350" y="938" on="1"/>
        <pt x="106" y="938" on="1"/>
        <pt x="106" y="1059" on="1"/>
        <pt x="373" y="1059" on="1"/>
        <pt x="446" y="1462" on="1"/>
        <pt x="571" y="1462" on="1"/>
        <pt x="496" y="1059" on="1"/>
        <pt x="780" y="1059" on="1"/>
        <pt x="856" y="1462" on="1"/>
        <pt x="979" y="1462" on="1"/>
        <pt x="903" y="1059" on="1"/>
        <pt x="1063" y="1059" on="1"/>
        <pt x="1063" y="938" on="1"/>
        <pt x="881" y="938" on="1"/>
        <pt x="805" y="537" on="1"/>
      </contour>
    </TTGlyph>
    <TTGlyph name="percent" xMin="92" yMin="-20" xMax="1743" yMax="1483">
      <contour>
        <pt x="764" y="1030" on="1"/>
        <pt x="764" y="927" on="0"/>
        <pt x="722" y="759" on="0"/>
        <pt x="638" y="639" on="0"/>
        <pt x="512" y="573" on="0"/>
        <pt x="428" y="573" on="1"/>
        <pt x="340" y="573" on="0"/>
        <pt x="213" y="639" on="0"/>
        <pt x="131" y="759" on="0"/>
        <pt x="92" y="927" on="0"/>
        <pt x="92" y="1030" on="1"/>
        <pt x="92" y="1133" on="0"/>
        <pt x="131" y="1300" on="0"/>
        <pt x="213" y="1419" on="0"/>
        <pt x="341" y="1483" on="0"/>
        <pt x="430" y="1483" on="1"/>
        <pt x="514" y="1483" on="0"/>
        <pt x="639" y="1419" on="0"/>
        <pt x="722" y="1300" on="0"/>
        <pt x="764" y="1133" on="0"/>
      </contour>
      <contour>
        <pt x="276" y="1030" on="1"/>
        <pt x="276" y="942" on="0"/>
        <pt x="292" y="803" on="0"/>
        <pt x="328" y="707" on="0"/>
        <pt x="386" y="657" on="0"/>
        <pt x="428" y="657" on="1"/>
        <pt x="470" y="657" on="0"/>
        <pt x="528" y="707" on="0"/>
        <pt x="563" y="803" on="0"/>
        <pt x="578" y="942" on="0"/>
        <pt x="578" y="1030" on="1"/>
        <pt x="578" y="1117" on="0"/>
        <pt x="563" y="1253" on="0"/>
        <pt x="528" y="1348" on="0"/>
        <pt x="472" y="1397" on="0"/>
        <pt x="430" y="1397" on="1"/>
        <pt x="388" y="1397" on="0"/>
        <pt x="329" y="1348" on="0"/>
        <pt x="292" y="1253" on="0"/>
        <pt x="276" y="1117" on="0"/>
      </contour>
      <contour>
        <pt x="1743" y="436" on="1"/>
        <pt x="1743" y="333" on="0"/>
        <pt x="1701" y="165" on="0"/>
        <pt x="1617" y="45" on="0"/>
        <pt x="1491" y="-20" on="0"/>
        <pt x="1407" y="-20" on="1"/>
        <pt x="1319" y="-20" on="0"/>
        <pt x="1191" y="45" on="0"/>
        <pt x="1110" y="165" on="0"/>
        <pt x="1071" y="333" on="0"/>
        <pt x="1071" y="436" on="1"/>
        <pt x="1071" y="539" on="0"/>
        <pt x="1110" y="706" on="0"/>
        <pt x="1192" y="825" on="0"/>
        <pt x="1320" y="889" on="0"/>
        <pt x="1409" y="889" on="1"/>
        <pt x="1493" y="889" on="0"/>
        <pt x="1618" y="825" on="0"/>
        <pt x="1701" y="706" on="0"/>
        <pt x="1743" y="539" on="0"/>
      </contour>
      <contour>
        <pt x="1255" y="436" on="1"/>
        <pt x="1255" y="348" on="0"/>
        <pt x="1271" y="209" on="0"/>
        <pt x="1307" y="113" on="0"/>
        <pt x="1365" y="63" on="0"/>
        <pt x="1407" y="63" on="1"/>
        <pt x="1449" y="63" on="0"/>
        <pt x="1507" y="113" on="0"/>
        <pt x="1541" y="209" on="0"/>
        <pt x="1556" y="348" on="0"/>
        <pt x="1556" y="436" on="1"/>
        <pt x="1556" y="523" on="0"/>
        <pt x="1541" y="659" on="0"/>
        <pt x="1507" y="754" on="0"/>
        <pt x="1451" y="803" on="0"/>
        <pt x="1409" y="803" on="1"/>
        <pt x="1367" y="803" on="0"/>
        <pt x="1308" y="754" on="0"/>
        <pt x="1271" y="659" on="0"/>
        <pt x="1255" y="523" on="0"/>
      </contour>
      <contour>
        <pt x="616" y="0" on="1"/>
        <pt x="481" y="0" on="1"/>
        <pt x="1212" y="1462" on="1"/>
        <pt x="1346" y="1462" on="1"/>
      </contour>
    </TTGlyph>
    <TTGlyph name="quotedbl" xMin="117" yMin="981" xMax="719" yMax="1462">
      <contour>
        <pt x="502" y="1462" on="1"/>
        <pt x="719" y="1462" on="1"/>
        <pt x="657" y="981" on="1"/>
        <pt x="563" y="981" on="1"/>
      </contour>
      <contour>
        <pt x="117" y="1462" on="1"/>
        <pt x="334" y="1462" on="1"/>
        <pt x="272" y="981" on="1"/>
        <pt x="178" y="981" on="1"/>
      </contour>
    </TTGlyph>
    <TTGlyph name="uni1780" xMin="250" yMin="0" xMax="1624" yMax="1501">
      <contour>
        <pt x="302" y="0" on="1"/>
        <pt x="250" y="0" on="0"/>
        <pt x="250" y="60" on="1"/>
        <pt x="250" y="89" on="0"/>
        <pt x="261" y="130" on="1"/>
        <pt x="332" y="386" on="1"/>
        <pt x="415" y="682" on="0"/>
        <pt x="564" y="885" on="1"/>
        <pt x="721" y="1100" on="0"/>
        <pt x="928" y="1100" on="1"/>
        <pt x="1159" y="1100" on="0"/>
        <pt x="1292" y="951" on="1"/>
        <pt x="1424" y="802" on="0"/>
        <pt x="1467" y="575" on="1"/>
        <pt x="1488" y="467" on="0"/>
        <pt x="1488" y="372" on="1"/>
        <pt x="1488" y="265" on="0"/>
        <pt x="1462" y="174" on="1"/>
        <pt x="1413" y="0" on="0"/>
        <pt x="1265" y="0" on="1"/>
        <pt x="1152" y="0" on="0"/>
        <pt x="1090" y="199" on="1"/>
        <pt x="1054" y="306" on="1"/>
        <pt x="1144" y="228" on="1"/>
        <pt x="1234" y="150" on="0"/>
        <pt x="1266" y="150" on="1"/>
        <pt x="1298" y="150" on="0"/>
        <pt x="1315" y="209" on="1"/>
        <pt x="1336" y="286" on="0"/>
        <pt x="1336" y="376" on="1"/>
        <pt x="1336" y="458" on="0"/>
        <pt x="1319" y="550" on="1"/>
        <pt x="1283" y="736" on="0"/>
        <pt x="1187" y="843" on="1"/>
        <pt x="1091" y="950" on="0"/>
        <pt x="928" y="950" on="1"/>
        <pt x="926" y="950" on="1"/>
        <pt x="797" y="950" on="0"/>
        <pt x="689" y="802" on="1"/>
        <pt x="554" y="617" on="0"/>
        <pt x="481" y="358" on="1"/>
        <pt x="409" y="98" on="1"/>
        <pt x="380" y="0" on="0"/>
      </contour>
      <contour>
        <pt x="476" y="1222" on="1"/>
        <pt x="374" y="1298" on="0"/>
        <pt x="374" y="1350" on="1"/>
        <pt x="375" y="1501" on="0"/>
        <pt x="625" y="1501" on="1"/>
        <pt x="1475" y="1501" on="1"/>
        <pt x="1624" y="1501" on="0"/>
        <pt x="1624" y="1426" on="1"/>
        <pt x="1624" y="1351" on="0"/>
        <pt x="1474" y="1351" on="1"/>
        <pt x="625" y="1351" on="1"/>
        <pt x="529" y="1351" on="0"/>
        <pt x="529" y="1290" on="1"/>
        <pt x="529" y="1282" on="0"/>
        <pt x="530" y="1274" on="1"/>
        <pt x="554" y="1157" on="1"/>
      </contour>
    </TTGlyph>
    <TTGlyph name="uni178017B6" xMin="250" yMin="0" xMax="2204" yMax="1500">
      <contour>
        <pt x="302" y="0" on="1"/>
        <pt x="250" y="0" on="0"/>
        <pt x="250" y="60" on="1"/>
        <pt x="250" y="89" on="0"/>
        <pt x="261" y="130" on="1"/>
        <pt x="332" y="386" on="1"/>
        <pt x="415" y="682" on="0"/>
        <pt x="564" y="885" on="1"/>
        <pt x="721" y="1100" on="0"/>
        <pt x="928" y="1100" on="1"/>
        <pt x="1159" y="1100" on="0"/>
        <pt x="1292" y="951" on="1"/>
        <pt x="1424" y="802" on="0"/>
        <pt x="1467" y="575" on="1"/>
        <pt x="1488" y="467" on="0"/>
        <pt x="1488" y="372" on="1"/>
        <pt x="1488" y="265" on="0"/>
        <pt x="1462" y="174" on="1"/>
        <pt x="1413" y="0" on="0"/>
        <pt x="1265" y="0" on="1"/>
        <pt x="1152" y="0" on="0"/>
        <pt x="1090" y="199" on="1"/>
        <pt x="1054" y="306" on="1"/>
        <pt x="1144" y="228" on="1"/>
        <pt x="1234" y="150" on="0"/>
        <pt x="1266" y="150" on="1"/>
        <pt x="1298" y="150" on="0"/>
        <pt x="1315" y="209" on="1"/>
        <pt x="1336" y="286" on="0"/>
        <pt x="1336" y="376" on="1"/>
        <pt x="1336" y="458" on="0"/>
        <pt x="1319" y="550" on="1"/>
        <pt x="1283" y="736" on="0"/>
        <pt x="1187" y="843" on="1"/>
        <pt x="1091" y="950" on="0"/>
        <pt x="928" y="950" on="1"/>
        <pt x="926" y="950" on="1"/>
        <pt x="797" y="950" on="0"/>
        <pt x="689" y="802" on="1"/>
        <pt x="554" y="617" on="0"/>
        <pt x="481" y="358" on="1"/>
        <pt x="409" y="98" on="1"/>
        <pt x="380" y="0" on="0"/>
      </contour>
      <contour>
        <pt x="476" y="1221" on="1"/>
        <pt x="374" y="1297" on="0"/>
        <pt x="374" y="1349" on="1"/>
        <pt x="374" y="1500" on="0"/>
        <pt x="625" y="1500" on="1"/>
        <pt x="1615" y="1500" on="1"/>
        <pt x="1878" y="1500" on="0"/>
        <pt x="2063" y="1302" on="1"/>
        <pt x="2204" y="1151" on="0"/>
        <pt x="2204" y="966" on="1"/>
        <pt x="2204" y="908" on="0"/>
        <pt x="2190" y="846" on="1"/>
        <pt x="2054" y="174" on="1"/>
        <pt x="2015" y="0" on="0"/>
        <pt x="1857" y="0" on="1"/>
        <pt x="1744" y="0" on="0"/>
        <pt x="1713" y="100" on="1"/>
        <pt x="1709" y="113" on="0"/>
        <pt x="1709" y="130" on="1"/>
        <pt x="1709" y="243" on="0"/>
        <pt x="1886" y="536" on="1"/>
        <pt x="1793" y="301" on="0"/>
        <pt x="1793" y="226" on="1"/>
        <pt x="1793" y="212" on="0"/>
        <pt x="1796" y="204" on="1"/>
        <pt x="1816" y="150" on="0"/>
        <pt x="1858" y="150" on="1"/>
        <pt x="1894" y="150" on="0"/>
        <pt x="1907" y="209" on="1"/>
        <pt x="2044" y="876" on="1"/>
        <pt x="2053" y="918" on="0"/>
        <pt x="2053" y="957" on="1"/>
        <pt x="2053" y="1092" on="0"/>
        <pt x="1948" y="1204" on="1"/>
        <pt x="1812" y="1350" on="0"/>
        <pt x="1614" y="1350" on="1"/>
        <pt x="625" y="1350" on="1"/>
        <pt x="529" y="1350" on="0"/>
        <pt x="529" y="1289" on="1"/>
        <pt x="529" y="1281" on="0"/>
        <pt x="530" y="1273" on="1"/>
        <pt x="554" y="1156" on="1"/>
      </contour>
    </TTGlyph>
    <TTGlyph name="uni178017C5" xMin="250" yMin="0" xMax="2301" yMax="2000">
      <contour>
        <pt x="261" y="130" on="1"/>
        <pt x="332" y="386" on="1"/>
        <pt x="415" y="682" on="0"/>
        <pt x="564" y="885" on="1"/>
        <pt x="721" y="1100" on="0"/>
        <pt x="928" y="1100" on="1"/>
        <pt x="1159" y="1100" on="0"/>
        <pt x="1292" y="951" on="1"/>
        <pt x="1424" y="802" on="0"/>
        <pt x="1467" y="575" on="1"/>
        <pt x="1488" y="467" on="0"/>
        <pt x="1488" y="372" on="1"/>
        <pt x="1488" y="265" on="0"/>
        <pt x="1462" y="174" on="1"/>
        <pt x="1413" y="0" on="0"/>
        <pt x="1265" y="0" on="1"/>
        <pt x="1152" y="0" on="0"/>
        <pt x="1090" y="199" on="1"/>
        <pt x="1054" y="306" on="1"/>
        <pt x="1144" y="228" on="1"/>
        <pt x="1234" y="150" on="0"/>
        <pt x="1266" y="150" on="1"/>
        <pt x="1298" y="150" on="0"/>
        <pt x="1315" y="209" on="1"/>
        <pt x="1336" y="286" on="0"/>
        <pt x="1336" y="376" on="1"/>
        <pt x="1336" y="458" on="0"/>
        <pt x="1319" y="550" on="1"/>
        <pt x="1283" y="736" on="0"/>
        <pt x="1187" y="843" on="1"/>
        <pt x="1091" y="950" on="0"/>
        <pt x="928" y="950" on="1"/>
        <pt x="926" y="950" on="1"/>
        <pt x="797" y="950" on="0"/>
        <pt x="689" y="802" on="1"/>
        <pt x="554" y="617" on="0"/>
        <pt x="481" y="358" on="1"/>
        <pt x="409" y="98" on="1"/>
        <pt x="380" y="0" on="0"/>
        <pt x="302" y="0" on="1"/>
        <pt x="250" y="0" on="0"/>
        <pt x="250" y="60" on="1"/>
        <pt x="250" y="89" on="0"/>
      </contour>
      <contour>
        <pt x="2016" y="1110" on="1"/>
        <pt x="1990" y="1159" on="0"/>
        <pt x="1948" y="1204" on="1"/>
        <pt x="1812" y="1350" on="0"/>
        <pt x="1614" y="1350" on="1"/>
        <pt x="625" y="1350" on="1"/>
        <pt x="529" y="1350" on="0"/>
        <pt x="529" y="1289" on="1"/>
        <pt x="529" y="1281" on="0"/>
        <pt x="530" y="1273" on="1"/>
        <pt x="554" y="1156" on="1"/>
        <pt x="476" y="1221" on="1"/>
        <pt x="374" y="1297" on="0"/>
        <pt x="374" y="1349" on="1"/>
        <pt x="374" y="1500" on="0"/>
        <pt x="625" y="1500" on="1"/>
        <pt x="1615" y="1500" on="1"/>
        <pt x="1875" y="1500" on="0"/>
        <pt x="2059" y="1306" on="1"/>
        <pt x="2147" y="1701" on="1"/>
        <pt x="2150" y="1713" on="0"/>
        <pt x="2150" y="1725" on="1"/>
        <pt x="2150" y="1769" on="0"/>
        <pt x="2115" y="1805" on="1"/>
        <pt x="2071" y="1850" on="0"/>
        <pt x="2012" y="1850" on="1"/>
        <pt x="1813" y="1850" on="1"/>
        <pt x="1714" y="1850" on="0"/>
        <pt x="1714" y="1925" on="1"/>
        <pt x="1714" y="2000" on="0"/>
        <pt x="1814" y="2000" on="1"/>
        <pt x="2015" y="2000" on="1"/>
        <pt x="2135" y="2000" on="0"/>
        <pt x="2229" y="1903" on="1"/>
        <pt x="2301" y="1829" on="0"/>
        <pt x="2301" y="1734" on="1"/>
        <pt x="2301" y="1705" on="0"/>
        <pt x="2294" y="1674" on="1"/>
        <pt x="2226" y="1405" on="0"/>
        <pt x="2123" y="1228" on="1"/>
        <pt x="2204" y="1107" on="0"/>
        <pt x="2204" y="966" on="1"/>
        <pt x="2204" y="908" on="0"/>
        <pt x="2190" y="846" on="1"/>
        <pt x="2054" y="174" on="1"/>
        <pt x="2015" y="0" on="0"/>
        <pt x="1857" y="0" on="1"/>
        <pt x="1744" y="0" on="0"/>
        <pt x="1713" y="100" on="1"/>
        <pt x="1709" y="113" on="0"/>
        <pt x="1709" y="130" on="1"/>
        <pt x="1709" y="243" on="0"/>
        <pt x="1886" y="536" on="1"/>
        <pt x="1793" y="301" on="0"/>
        <pt x="1793" y="226" on="1"/>
        <pt x="1793" y="212" on="0"/>
        <pt x="1796" y="204" on="1"/>
        <pt x="1816" y="150" on="0"/>
        <pt x="1858" y="150" on="1"/>
        <pt x="1894" y="150" on="0"/>
        <pt x="1907" y="209" on="1"/>
        <pt x="2044" y="876" on="1"/>
        <pt x="2053" y="918" on="0"/>
        <pt x="2053" y="957" on="1"/>
        <pt x="2053" y="1027" on="0"/>
        <pt x="2025" y="1090" on="1"/>
        <pt x="2016" y="1080" on="0"/>
        <pt x="2007" y="1070" on="1"/>
      </contour>
    </TTGlyph>
    <TTGlyph name="uni1781" xMin="300" yMin="0" xMax="1296" yMax="1500">
      <contour>
        <pt x="529" y="874" on="1"/>
        <pt x="512" y="868" on="0"/>
        <pt x="498" y="868" on="1"/>
        <pt x="447" y="868" on="0"/>
        <pt x="422" y="937" on="1"/>
        <pt x="402" y="1005" on="0"/>
        <pt x="402" y="1077" on="1"/>
        <pt x="402" y="1137" on="0"/>
        <pt x="416" y="1199" on="1"/>
        <pt x="445" y="1336" on="0"/>
        <pt x="756" y="1500" on="0"/>
        <pt x="962" y="1500" on="1"/>
        <pt x="1148" y="1500" on="0"/>
        <pt x="1236" y="1404" on="1"/>
        <pt x="1296" y="1338" on="0"/>
        <pt x="1296" y="1226" on="1"/>
        <pt x="1296" y="1172" on="0"/>
        <pt x="1282" y="1108" on="1"/>
        <pt x="1245" y="920" on="0"/>
        <pt x="919" y="661" on="1"/>
        <pt x="450" y="291" on="0"/>
        <pt x="450" y="226" on="1"/>
        <pt x="450" y="193" on="0"/>
        <pt x="495" y="171" on="1"/>
        <pt x="541" y="150" on="0"/>
        <pt x="601" y="150" on="1"/>
        <pt x="721" y="150" on="0"/>
        <pt x="906" y="342" on="1"/>
        <pt x="1058" y="508" on="0"/>
        <pt x="1223" y="783" on="1"/>
        <pt x="1161" y="398" on="0"/>
        <pt x="1026" y="250" on="1"/>
        <pt x="788" y="0" on="0"/>
        <pt x="596" y="0" on="1"/>
        <pt x="497" y="0" on="0"/>
        <pt x="423" y="37" on="1"/>
        <pt x="300" y="99" on="0"/>
        <pt x="300" y="234" on="1"/>
        <pt x="300" y="365" on="0"/>
        <pt x="818" y="775" on="1"/>
        <pt x="1108" y="1004" on="0"/>
        <pt x="1136" y="1130" on="1"/>
        <pt x="1142" y="1158" on="0"/>
        <pt x="1142" y="1183" on="1"/>
        <pt x="1142" y="1245" on="0"/>
        <pt x="1103" y="1289" on="1"/>
        <pt x="1047" y="1350" on="0"/>
        <pt x="938" y="1350" on="1"/>
        <pt x="799" y="1350" on="0"/>
        <pt x="578" y="1238" on="0"/>
        <pt x="558" y="1145" on="1"/>
        <pt x="549" y="1106" on="0"/>
        <pt x="549" y="1071" on="1"/>
        <pt x="549" y="1024" on="0"/>
        <pt x="565" y="986" on="1"/>
        <pt x="578" y="956" on="0"/>
        <pt x="578" y="934" on="1"/>
        <pt x="578" y="890" on="0"/>
      </contour>
    </TTGlyph>
    <TTGlyph name="uni178117B6" xMin="300" yMin="0" xMax="2187" yMax="1500">
      <contour>
        <pt x="529" y="874" on="1"/>
        <pt x="512" y="868" on="0"/>
        <pt x="498" y="868" on="1"/>
        <pt x="447" y="868" on="0"/>
        <pt x="422" y="937" on="1"/>
        <pt x="402" y="1005" on="0"/>
        <pt x="402" y="1077" on="1"/>
        <pt x="402" y="1137" on="0"/>
        <pt x="416" y="1199" on="1"/>
        <pt x="445" y="1336" on="0"/>
        <pt x="756" y="1500" on="0"/>
        <pt x="962" y="1500" on="1"/>
        <pt x="1148" y="1500" on="0"/>
        <pt x="1236" y="1404" on="1"/>
        <pt x="1296" y="1338" on="0"/>
        <pt x="1296" y="1226" on="1"/>
        <pt x="1296" y="1172" on="0"/>
        <pt x="1282" y="1108" on="1"/>
        <pt x="1245" y="920" on="0"/>
        <pt x="919" y="661" on="1"/>
        <pt x="450" y="291" on="0"/>
        <pt x="450" y="226" on="1"/>
        <pt x="450" y="193" on="0"/>
        <pt x="495" y="171" on="1"/>
        <pt x="541" y="150" on="0"/>
        <pt x="601" y="150" on="1"/>
        <pt x="721" y="150" on="0"/>
        <pt x="906" y="342" on="1"/>
        <pt x="1024" y="468" on="0"/>
        <pt x="1225" y="823" on="1"/>
        <pt x="1609" y="1500" on="0"/>
        <pt x="1812" y="1500" on="1"/>
        <pt x="2014" y="1500" on="0"/>
        <pt x="2119" y="1302" on="1"/>
        <pt x="2187" y="1174" on="0"/>
        <pt x="2187" y="1022" on="1"/>
        <pt x="2187" y="938" on="0"/>
        <pt x="2166" y="846" on="1"/>
        <pt x="2030" y="174" on="1"/>
        <pt x="1991" y="0" on="0"/>
        <pt x="1833" y="0" on="1"/>
        <pt x="1720" y="0" on="0"/>
        <pt x="1689" y="100" on="1"/>
        <pt x="1685" y="113" on="0"/>
        <pt x="1685" y="130" on="1"/>
        <pt x="1685" y="243" on="0"/>
        <pt x="1862" y="536" on="1"/>
        <pt x="1769" y="301" on="0"/>
        <pt x="1769" y="226" on="1"/>
        <pt x="1769" y="212" on="0"/>
        <pt x="1772" y="204" on="1"/>
        <pt x="1792" y="150" on="0"/>
        <pt x="1834" y="150" on="1"/>
        <pt x="1870" y="150" on="0"/>
        <pt x="1883" y="209" on="1"/>
        <pt x="2020" y="876" on="1"/>
        <pt x="2036" y="948" on="0"/>
        <pt x="2036" y="1015" on="1"/>
        <pt x="2036" y="1116" on="0"/>
        <pt x="1999" y="1204" on="1"/>
        <pt x="1938" y="1350" on="0"/>
        <pt x="1800" y="1350" on="1"/>
        <pt x="1698" y="1350" on="0"/>
        <pt x="1366" y="767" on="1"/>
        <pt x="1160" y="400" on="0"/>
        <pt x="1026" y="250" on="1"/>
        <pt x="788" y="0" on="0"/>
        <pt x="596" y="0" on="1"/>
        <pt x="497" y="0" on="0"/>
        <pt x="423" y="37" on="1"/>
        <pt x="300" y="99" on="0"/>
        <pt x="300" y="234" on="1"/>
        <pt x="300" y="365" on="0"/>
        <pt x="818" y="775" on="1"/>
        <pt x="1108" y="1004" on="0"/>
        <pt x="1136" y="1130" on="1"/>
        <pt x="1142" y="1158" on="0"/>
        <pt x="1142" y="1183" on="1"/>
        <pt x="1142" y="1245" on="0"/>
        <pt x="1103" y="1289" on="1"/>
        <pt x="1047" y="1350" on="0"/>
        <pt x="938" y="1350" on="1"/>
        <pt x="799" y="1350" on="0"/>
        <pt x="578" y="1238" on="0"/>
        <pt x="558" y="1145" on="1"/>
        <pt x="549" y="1106" on="0"/>
        <pt x="549" y="1071" on="1"/>
        <pt x="549" y="1024" on="0"/>
        <pt x="565" y="986" on="1"/>
        <pt x="578" y="956" on="0"/>
        <pt x="578" y="934" on="1"/>
        <pt x="578" y="890" on="0"/>
      </contour>
    </TTGlyph>
    <TTGlyph name="uni178117C5" xMin="300" yMin="0" xMax="2277" yMax="2000">
      <contour>
        <pt x="2008" y="1182" on="1"/>
        <pt x="2004" y="1193" on="0"/>
        <pt x="1999" y="1204" on="1"/>
        <pt x="1938" y="1350" on="0"/>
        <pt x="1800" y="1350" on="1"/>
        <pt x="1698" y="1350" on="0"/>
        <pt x="1366" y="767" on="1"/>
        <pt x="1160" y="400" on="0"/>
        <pt x="1026" y="250" on="1"/>
        <pt x="788" y="0" on="0"/>
        <pt x="596" y="0" on="1"/>
        <pt x="497" y="0" on="0"/>
        <pt x="423" y="37" on="1"/>
        <pt x="300" y="99" on="0"/>
        <pt x="300" y="234" on="1"/>
        <pt x="300" y="365" on="0"/>
        <pt x="818" y="775" on="1"/>
        <pt x="1108" y="1004" on="0"/>
        <pt x="1136" y="1130" on="1"/>
        <pt x="1142" y="1158" on="0"/>
        <pt x="1142" y="1183" on="1"/>
        <pt x="1142" y="1245" on="0"/>
        <pt x="1103" y="1289" on="1"/>
        <pt x="1047" y="1350" on="0"/>
        <pt x="938" y="1350" on="1"/>
        <pt x="799" y="1350" on="0"/>
        <pt x="578" y="1238" on="0"/>
        <pt x="558" y="1145" on="1"/>
        <pt x="549" y="1106" on="0"/>
        <pt x="549" y="1071" on="1"/>
        <pt x="549" y="1024" on="0"/>
        <pt x="565" y="986" on="1"/>
        <pt x="578" y="956" on="0"/>
        <pt x="578" y="934" on="1"/>
        <pt x="578" y="890" on="0"/>
        <pt x="529" y="874" on="1"/>
        <pt x="512" y="868" on="0"/>
        <pt x="498" y="868" on="1"/>
        <pt x="447" y="868" on="0"/>
        <pt x="422" y="937" on="1"/>
        <pt x="402" y="1005" on="0"/>
        <pt x="402" y="1077" on="1"/>
        <pt x="402" y="1137" on="0"/>
        <pt x="416" y="1199" on="1"/>
        <pt x="445" y="1336" on="0"/>
        <pt x="756" y="1500" on="0"/>
        <pt x="962" y="1500" on="1"/>
        <pt x="1148" y="1500" on="0"/>
        <pt x="1236" y="1404" on="1"/>
        <pt x="1296" y="1338" on="0"/>
        <pt x="1296" y="1226" on="1"/>
        <pt x="1296" y="1172" on="0"/>
        <pt x="1282" y="1108" on="1"/>
        <pt x="1245" y="920" on="0"/>
        <pt x="919" y="661" on="1"/>
        <pt x="450" y="291" on="0"/>
        <pt x="450" y="226" on="1"/>
        <pt x="450" y="193" on="0"/>
        <pt x="495" y="171" on="1"/>
        <pt x="541" y="150" on="0"/>
        <pt x="601" y="150" on="1"/>
        <pt x="721" y="150" on="0"/>
        <pt x="906" y="342" on="1"/>
        <pt x="1024" y="468" on="0"/>
        <pt x="1225" y="823" on="1"/>
        <pt x="1609" y="1500" on="0"/>
        <pt x="1812" y="1500" on="1"/>
        <pt x="1959" y="1500" on="0"/>
        <pt x="2055" y="1395" on="1"/>
        <pt x="2123" y="1701" on="1"/>
        <pt x="2126" y="1713" on="0"/>
        <pt x="2126" y="1725" on="1"/>
        <pt x="2126" y="1769" on="0"/>
        <pt x="2091" y="1805" on="1"/>
        <pt x="2047" y="1850" on="0"/>
        <pt x="1988" y="1850" on="1"/>
        <pt x="1789" y="1850" on="1"/>
        <pt x="1690" y="1850" on="0"/>
        <pt x="1690" y="1925" on="1"/>
        <pt x="1690" y="2000" on="0"/>
        <pt x="1790" y="2000" on="1"/>
        <pt x="1991" y="2000" on="1"/>
        <pt x="2111" y="2000" on="0"/>
        <pt x="2205" y="1903" on="1"/>
        <pt x="2277" y="1829" on="0"/>
        <pt x="2277" y="1734" on="1"/>
        <pt x="2277" y="1705" on="0"/>
        <pt x="2270" y="1674" on="1"/>
        <pt x="2213" y="1445" on="0"/>
        <pt x="2129" y="1283" on="1"/>
        <pt x="2187" y="1163" on="0"/>
        <pt x="2187" y="1022" on="1"/>
        <pt x="2187" y="938" on="0"/>
        <pt x="2166" y="846" on="1"/>
        <pt x="2030" y="174" on="1"/>
        <pt x="1991" y="0" on="0"/>
        <pt x="1833" y="0" on="1"/>
        <pt x="1720" y="0" on="0"/>
        <pt x="1689" y="100" on="1"/>
        <pt x="1685" y="113" on="0"/>
        <pt x="1685" y="130" on="1"/>
        <pt x="1685" y="243" on="0"/>
        <pt x="1862" y="536" on="1"/>
        <pt x="1769" y="301" on="0"/>
        <pt x="1769" y="226" on="1"/>
        <pt x="1769" y="212" on="0"/>
        <pt x="1772" y="204" on="1"/>
        <pt x="1792" y="150" on="0"/>
        <pt x="1834" y="150" on="1"/>
        <pt x="1870" y="150" on="0"/>
        <pt x="1883" y="209" on="1"/>
        <pt x="2020" y="876" on="1"/>
        <pt x="2036" y="948" on="0"/>
        <pt x="2036" y="1014" on="1"/>
        <pt x="2036" y="1069" on="0"/>
        <pt x="2025" y="1119" on="1"/>
        <pt x="2005" y="1093" on="0"/>
        <pt x="1983" y="1070" on="1"/>
      </contour>
    </TTGlyph>
    <TTGlyph name="uni1782" xMin="273" yMin="0" xMax="1635" yMax="1501">
      <contour>
        <pt x="349" y="0" on="1"/>
        <pt x="273" y="0" on="0"/>
        <pt x="273" y="89" on="1"/>
        <pt x="273" y="131" on="0"/>
        <pt x="290" y="194" on="1"/>
        <pt x="343" y="386" on="1"/>
        <pt x="426" y="682" on="0"/>
        <pt x="575" y="885" on="1"/>
        <pt x="732" y="1100" on="0"/>
        <pt x="939" y="1100" on="1"/>
        <pt x="1170" y="1100" on="0"/>
        <pt x="1303" y="951" on="1"/>
        <pt x="1435" y="802" on="0"/>
        <pt x="1478" y="575" on="1"/>
        <pt x="1499" y="467" on="0"/>
        <pt x="1499" y="372" on="1"/>
        <pt x="1499" y="265" on="0"/>
        <pt x="1473" y="174" on="1"/>
        <pt x="1424" y="0" on="0"/>
        <pt x="1285" y="0" on="1"/>
        <pt x="1185" y="0" on="0"/>
        <pt x="1185" y="75" on="1"/>
        <pt x="1185" y="150" on="0"/>
        <pt x="1285" y="150" on="1"/>
        <pt x="1309" y="150" on="0"/>
        <pt x="1326" y="209" on="1"/>
        <pt x="1347" y="286" on="0"/>
        <pt x="1347" y="376" on="1"/>
        <pt x="1347" y="458" on="0"/>
        <pt x="1330" y="550" on="1"/>
        <pt x="1294" y="736" on="0"/>
        <pt x="1198" y="843" on="1"/>
        <pt x="1102" y="950" on="0"/>
        <pt x="939" y="950" on="1"/>
        <pt x="937" y="950" on="1"/>
        <pt x="808" y="950" on="0"/>
        <pt x="700" y="802" on="1"/>
        <pt x="565" y="617" on="0"/>
        <pt x="492" y="358" on="1"/>
        <pt x="456" y="228" on="1"/>
        <pt x="573" y="364" on="0"/>
        <pt x="674" y="432" on="1"/>
        <pt x="775" y="500" on="0"/>
        <pt x="858" y="500" on="1"/>
        <pt x="971" y="500" on="0"/>
        <pt x="1028" y="450" on="1"/>
        <pt x="1085" y="400" on="0"/>
        <pt x="1085" y="300" on="1"/>
        <pt x="1085" y="200" on="0"/>
        <pt x="1011" y="200" on="1"/>
        <pt x="936" y="201" on="0"/>
        <pt x="936" y="300" on="1"/>
        <pt x="935" y="350" on="0"/>
        <pt x="858" y="350" on="1"/>
        <pt x="809" y="350" on="0"/>
        <pt x="734" y="292" on="1"/>
        <pt x="660" y="233" on="0"/>
        <pt x="559" y="116" on="1"/>
        <pt x="459" y="0" on="0"/>
      </contour>
      <contour>
        <pt x="487" y="1222" on="1"/>
        <pt x="385" y="1298" on="0"/>
        <pt x="385" y="1350" on="1"/>
        <pt x="386" y="1501" on="0"/>
        <pt x="636" y="1501" on="1"/>
        <pt x="1486" y="1501" on="1"/>
        <pt x="1635" y="1501" on="0"/>
        <pt x="1635" y="1426" on="1"/>
        <pt x="1635" y="1351" on="0"/>
        <pt x="1485" y="1351" on="1"/>
        <pt x="636" y="1351" on="1"/>
        <pt x="540" y="1351" on="0"/>
        <pt x="540" y="1290" on="1"/>
        <pt x="540" y="1282" on="0"/>
        <pt x="541" y="1274" on="1"/>
        <pt x="565" y="1157" on="1"/>
      </contour>
    </TTGlyph>
    <TTGlyph name="uni178217B6" xMin="274" yMin="0" xMax="2216" yMax="1500">
      <contour>
        <pt x="350" y="0" on="1"/>
        <pt x="274" y="0" on="0"/>
        <pt x="274" y="89" on="1"/>
        <pt x="274" y="131" on="0"/>
        <pt x="291" y="194" on="1"/>
        <pt x="344" y="386" on="1"/>
        <pt x="427" y="682" on="0"/>
        <pt x="576" y="885" on="1"/>
        <pt x="733" y="1100" on="0"/>
        <pt x="940" y="1100" on="1"/>
        <pt x="1171" y="1100" on="0"/>
        <pt x="1304" y="951" on="1"/>
        <pt x="1436" y="802" on="0"/>
        <pt x="1479" y="575" on="1"/>
        <pt x="1500" y="467" on="0"/>
        <pt x="1500" y="372" on="1"/>
        <pt x="1500" y="265" on="0"/>
        <pt x="1474" y="174" on="1"/>
        <pt x="1425" y="0" on="0"/>
        <pt x="1286" y="0" on="1"/>
        <pt x="1186" y="0" on="0"/>
        <pt x="1186" y="75" on="1"/>
        <pt x="1186" y="150" on="0"/>
        <pt x="1286" y="150" on="1"/>
        <pt x="1310" y="150" on="0"/>
        <pt x="1327" y="209" on="1"/>
        <pt x="1348" y="286" on="0"/>
        <pt x="1348" y="376" on="1"/>
        <pt x="1348" y="458" on="0"/>
        <pt x="1331" y="550" on="1"/>
        <pt x="1295" y="736" on="0"/>
        <pt x="1199" y="843" on="1"/>
        <pt x="1103" y="950" on="0"/>
        <pt x="940" y="950" on="1"/>
        <pt x="938" y="950" on="1"/>
        <pt x="809" y="950" on="0"/>
        <pt x="701" y="802" on="1"/>
        <pt x="566" y="617" on="0"/>
        <pt x="493" y="358" on="1"/>
        <pt x="457" y="228" on="1"/>
        <pt x="574" y="364" on="0"/>
        <pt x="675" y="432" on="1"/>
        <pt x="776" y="500" on="0"/>
        <pt x="859" y="500" on="1"/>
        <pt x="972" y="500" on="0"/>
        <pt x="1029" y="450" on="1"/>
        <pt x="1086" y="400" on="0"/>
        <pt x="1086" y="300" on="1"/>
        <pt x="1086" y="200" on="0"/>
        <pt x="1012" y="200" on="1"/>
        <pt x="937" y="201" on="0"/>
        <pt x="937" y="300" on="1"/>
        <pt x="936" y="350" on="0"/>
        <pt x="859" y="350" on="1"/>
        <pt x="810" y="350" on="0"/>
        <pt x="735" y="292" on="1"/>
        <pt x="661" y="233" on="0"/>
        <pt x="560" y="116" on="1"/>
        <pt x="460" y="0" on="0"/>
      </contour>
      <contour>
        <pt x="488" y="1221" on="1"/>
        <pt x="386" y="1297" on="0"/>
        <pt x="386" y="1349" on="1"/>
        <pt x="386" y="1500" on="0"/>
        <pt x="637" y="1500" on="1"/>
        <pt x="1627" y="1500" on="1"/>
        <pt x="1890" y="1500" on="0"/>
        <pt x="2075" y="1302" on="1"/>
        <pt x="2216" y="1151" on="0"/>
        <pt x="2216" y="966" on="1"/>
        <pt x="2216" y="908" on="0"/>
        <pt x="2202" y="846" on="1"/>
        <pt x="2066" y="174" on="1"/>
        <pt x="2027" y="0" on="0"/>
        <pt x="1869" y="0" on="1"/>
        <pt x="1756" y="0" on="0"/>
        <pt x="1725" y="100" on="1"/>
        <pt x="1721" y="113" on="0"/>
        <pt x="1721" y="130" on="1"/>
        <pt x="1721" y="243" on="0"/>
        <pt x="1898" y="536" on="1"/>
        <pt x="1805" y="301" on="0"/>
        <pt x="1805" y="226" on="1"/>
        <pt x="1805" y="212" on="0"/>
        <pt x="1808" y="204" on="1"/>
        <pt x="1828" y="150" on="0"/>
        <pt x="1870" y="150" on="1"/>
        <pt x="1906" y="150" on="0"/>
        <pt x="1919" y="209" on="1"/>
        <pt x="2056" y="876" on="1"/>
        <pt x="2065" y="918" on="0"/>
        <pt x="2065" y="957" on="1"/>
        <pt x="2065" y="1092" on="0"/>
        <pt x="1960" y="1204" on="1"/>
        <pt x="1824" y="1350" on="0"/>
        <pt x="1626" y="1350" on="1"/>
        <pt x="637" y="1350" on="1"/>
        <pt x="541" y="1350" on="0"/>
        <pt x="541" y="1289" on="1"/>
        <pt x="541" y="1281" on="0"/>
        <pt x="542" y="1273" on="1"/>
        <pt x="566" y="1156" on="1"/>
      </contour>
    </TTGlyph>
    <TTGlyph name="uni178217C5" xMin="274" yMin="0" xMax="2313" yMax="2000">
      <contour>
        <pt x="291" y="194" on="1"/>
        <pt x="344" y="386" on="1"/>
        <pt x="427" y="682" on="0"/>
        <pt x="576" y="885" on="1"/>
        <pt x="733" y="1100" on="0"/>
        <pt x="940" y="1100" on="1"/>
        <pt x="1171" y="1100" on="0"/>
        <pt x="1304" y="951" on="1"/>
        <pt x="1436" y="802" on="0"/>
        <pt x="1479" y="575" on="1"/>
        <pt x="1500" y="467" on="0"/>
        <pt x="1500" y="372" on="1"/>
        <pt x="1500" y="265" on="0"/>
        <pt x="1474" y="174" on="1"/>
        <pt x="1425" y="0" on="0"/>
        <pt x="1286" y="0" on="1"/>
        <pt x="1186" y="0" on="0"/>
        <pt x="1186" y="75" on="1"/>
        <pt x="1186" y="150" on="0"/>
        <pt x="1286" y="150" on="1"/>
        <pt x="1310" y="150" on="0"/>
        <pt x="1327" y="209" on="1"/>
        <pt x="1348" y="286" on="0"/>
        <pt x="1348" y="376" on="1"/>
        <pt x="1348" y="458" on="0"/>
        <pt x="1331" y="550" on="1"/>
        <pt x="1295" y="736" on="0"/>
        <pt x="1199" y="843" on="1"/>
        <pt x="1103" y="950" on="0"/>
        <pt x="940" y="950" on="1"/>
        <pt x="938" y="950" on="1"/>
        <pt x="809" y="950" on="0"/>
        <pt x="701" y="802" on="1"/>
        <pt x="566" y="617" on="0"/>
        <pt x="493" y="358" on="1"/>
        <pt x="457" y="228" on="1"/>
        <pt x="574" y="364" on="0"/>
        <pt x="675" y="432" on="1"/>
        <pt x="776" y="500" on="0"/>
        <pt x="859" y="500" on="1"/>
        <pt x="972" y="500" on="0"/>
        <pt x="1029" y="450" on="1"/>
        <pt x="1086" y="400" on="0"/>
        <pt x="1086" y="300" on="1"/>
        <pt x="1086" y="200" on="0"/>
        <pt x="1012" y="200" on="1"/>
        <pt x="937" y="201" on="0"/>
        <pt x="937" y="300" on="1"/>
        <pt x="936" y="350" on="0"/>
        <pt x="859" y="350" on="1"/>
        <pt x="810" y="350" on="0"/>
        <pt x="735" y="292" on="1"/>
        <pt x="661" y="233" on="0"/>
        <pt x="560" y="116" on="1"/>
        <pt x="460" y="0" on="0"/>
        <pt x="350" y="0" on="1"/>
        <pt x="274" y="0" on="0"/>
        <pt x="274" y="89" on="1"/>
        <pt x="274" y="131" on="0"/>
      </contour>
      <contour>
        <pt x="2028" y="1110" on="1"/>
        <pt x="2002" y="1159" on="0"/>
        <pt x="1960" y="1204" on="1"/>
        <pt x="1824" y="1350" on="0"/>
        <pt x="1626" y="1350" on="1"/>
        <pt x="637" y="1350" on="1"/>
        <pt x="541" y="1350" on="0"/>
        <pt x="541" y="1289" on="1"/>
        <pt x="541" y="1281" on="0"/>
        <pt x="542" y="1273" on="1"/>
        <pt x="566" y="1156" on="1"/>
        <pt x="488" y="1221" on="1"/>
        <pt x="386" y="1297" on="0"/>
        <pt x="386" y="1349" on="1"/>
        <pt x="386" y="1500" on="0"/>
        <pt x="637" y="1500" on="1"/>
        <pt x="1627" y="1500" on="1"/>
        <pt x="1887" y="1500" on="0"/>
        <pt x="2071" y="1306" on="1"/>
        <pt x="2159" y="1701" on="1"/>
        <pt x="2162" y="1713" on="0"/>
        <pt x="2162" y="1725" on="1"/>
        <pt x="2162" y="1769" on="0"/>
        <pt x="2127" y="1805" on="1"/>
        <pt x="2083" y="1850" on="0"/>
        <pt x="2024" y="1850" on="1"/>
        <pt x="1825" y="1850" on="1"/>
        <pt x="1726" y="1850" on="0"/>
        <pt x="1726" y="1925" on="1"/>
        <pt x="1726" y="2000" on="0"/>
        <pt x="1826" y="2000" on="1"/>
        <pt x="2027" y="2000" on="1"/>
        <pt x="2147" y="2000" on="0"/>
        <pt x="2241" y="1903" on="1"/>
        <pt x="2313" y="1829" on="0"/>
        <pt x="2313" y="1734" on="1"/>
        <pt x="2313" y="1705" on="0"/>
        <pt x="2306" y="1674" on="1"/>
        <pt x="2238" y="1405" on="0"/>
        <pt x="2135" y="1228" on="1"/>
        <pt x="2216" y="1107" on="0"/>
        <pt x="2216" y="966" on="1"/>
        <pt x="2216" y="908" on="0"/>
        <pt x="2202" y="846" on="1"/>
        <pt x="2066" y="174" on="1"/>
        <pt x="2027" y="0" on="0"/>
        <pt x="1869" y="0" on="1"/>
        <pt x="1756" y="0" on="0"/>
        <pt x="1725" y="100" on="1"/>
        <pt x="1721" y="113" on="0"/>
        <pt x="1721" y="130" on="1"/>
        <pt x="1721" y="243" on="0"/>
        <pt x="1898" y="536" on="1"/>
        <pt x="1805" y="301" on="0"/>
        <pt x="1805" y="226" on="1"/>
        <pt x="1805" y="212" on="0"/>
        <pt x="1808" y="204" on="1"/>
        <pt x="1828" y="150" on="0"/>
        <pt x="1870" y="150" on="1"/>
        <pt x="1906" y="150" on="0"/>
        <pt x="1919" y="209" on="1"/>
        <pt x="2056" y="876" on="1"/>
        <pt x="2065" y="918" on="0"/>
        <pt x="2065" y="957" on="1"/>
        <pt x="2065" y="1027" on="0"/>
        <pt x="2037" y="1090" on="1"/>
        <pt x="2028" y="1080" on="0"/>
        <pt x="2019" y="1070" on="1"/>
      </contour>
    </TTGlyph>
    <TTGlyph name="uni1783" xMin="217" yMin="0" xMax="2654" yMax="1500">
      <contour>
        <pt x="1288" y="399" on="1"/>
        <pt x="1316" y="350" on="1"/>
        <pt x="1430" y="150" on="0"/>
        <pt x="1557" y="150" on="1"/>
        <pt x="1700" y="150" on="0"/>
        <pt x="1828" y="312" on="1"/>
        <pt x="1956" y="475" on="0"/>
        <pt x="2025" y="800" on="1"/>
        <pt x="2107" y="1187" on="1"/>
        <pt x="2133" y="1305" on="0"/>
        <pt x="2214" y="1400" on="1"/>
        <pt x="2301" y="1500" on="0"/>
        <pt x="2435" y="1500" on="1"/>
        <pt x="2530" y="1500" on="0"/>
        <pt x="2654" y="1397" on="0"/>
        <pt x="2654" y="1323" on="1"/>
        <pt x="2654" y="1248" on="0"/>
        <pt x="2624" y="1200" on="1"/>
        <pt x="2624" y="1210" on="1"/>
        <pt x="2624" y="1283" on="0"/>
        <pt x="2568" y="1316" on="1"/>
        <pt x="2508" y="1350" on="0"/>
        <pt x="2448" y="1350" on="1"/>
        <pt x="2368" y="1350" on="0"/>
        <pt x="2322" y="1297" on="1"/>
        <pt x="2276" y="1244" on="0"/>
        <pt x="2258" y="1157" on="1"/>
        <pt x="2175" y="773" on="1"/>
        <pt x="2092" y="386" on="0"/>
        <pt x="1927" y="193" on="1"/>
        <pt x="1761" y="0" on="0"/>
        <pt x="1555" y="0" on="1"/>
        <pt x="1368" y="0" on="0"/>
        <pt x="1197" y="241" on="1"/>
        <pt x="1178" y="216" on="0"/>
        <pt x="1159" y="193" on="1"/>
        <pt x="993" y="0" on="0"/>
        <pt x="794" y="0" on="1"/>
        <pt x="545" y="0" on="0"/>
        <pt x="451" y="144" on="1"/>
        <pt x="406" y="214" on="0"/>
        <pt x="406" y="359" on="1"/>
        <pt x="406" y="515" on="0"/>
        <pt x="458" y="758" on="1"/>
        <pt x="496" y="938" on="1"/>
        <pt x="558" y="1236" on="1"/>
        <pt x="562" y="1259" on="0"/>
        <pt x="562" y="1278" on="1"/>
        <pt x="562" y="1305" on="0"/>
        <pt x="553" y="1322" on="1"/>
        <pt x="538" y="1350" on="0"/>
        <pt x="496" y="1350" on="1"/>
        <pt x="453" y="1350" on="0"/>
        <pt x="423" y="1309" on="1"/>
        <pt x="393" y="1268" on="0"/>
        <pt x="376" y="1186" on="1"/>
        <pt x="370" y="1157" on="0"/>
        <pt x="370" y="1138" on="1"/>
        <pt x="370" y="1100" on="0"/>
        <pt x="395" y="1100" on="1"/>
        <pt x="396" y="1100" on="1"/>
        <pt x="447" y="1100" on="0"/>
        <pt x="447" y="1026" on="1"/>
        <pt x="447" y="951" on="0"/>
        <pt x="396" y="950" on="1"/>
        <pt x="285" y="950" on="0"/>
        <pt x="243" y="1015" on="1"/>
        <pt x="217" y="1055" on="0"/>
        <pt x="217" y="1119" on="1"/>
        <pt x="217" y="1161" on="0"/>
        <pt x="228" y="1212" on="1"/>
        <pt x="259" y="1356" on="0"/>
        <pt x="326" y="1428" on="1"/>
        <pt x="393" y="1500" on="0"/>
        <pt x="496" y="1500" on="1"/>
        <pt x="603" y="1500" on="0"/>
        <pt x="670" y="1424" on="1"/>
        <pt x="717" y="1372" on="0"/>
        <pt x="717" y="1288" on="1"/>
        <pt x="717" y="1252" on="0"/>
        <pt x="708" y="1210" on="1"/>
        <pt x="608" y="737" on="1"/>
        <pt x="559" y="507" on="0"/>
        <pt x="559" y="378" on="1"/>
        <pt x="559" y="291" on="0"/>
        <pt x="582" y="250" on="1"/>
        <pt x="640" y="150" on="0"/>
        <pt x="796" y="150" on="1"/>
        <pt x="932" y="150" on="0"/>
        <pt x="1060" y="312" on="1"/>
        <pt x="1188" y="475" on="0"/>
        <pt x="1257" y="800" on="1"/>
        <pt x="1288" y="938" on="1"/>
        <pt x="1141" y="1005" on="0"/>
        <pt x="1076" y="1082" on="1"/>
        <pt x="1026" y="1142" on="0"/>
        <pt x="1026" y="1208" on="1"/>
        <pt x="1026" y="1227" on="0"/>
        <pt x="1030" y="1246" on="1"/>
        <pt x="1057" y="1373" on="0"/>
        <pt x="1130" y="1436" on="1"/>
        <pt x="1203" y="1500" on="0"/>
        <pt x="1316" y="1500" on="1"/>
        <pt x="1417" y="1500" on="0"/>
        <pt x="1565" y="1408" on="1"/>
        <pt x="1641" y="1360" on="0"/>
        <pt x="1641" y="1312" on="1"/>
        <pt x="1641" y="1296" on="0"/>
        <pt x="1632" y="1280" on="1"/>
        <pt x="1615" y="1248" on="0"/>
        <pt x="1580" y="1248" on="1"/>
        <pt x="1546" y="1248" on="0"/>
        <pt x="1495" y="1277" on="1"/>
        <pt x="1375" y="1350" on="0"/>
        <pt x="1315" y="1350" on="1"/>
        <pt x="1266" y="1350" on="0"/>
        <pt x="1229" y="1319" on="1"/>
        <pt x="1193" y="1288" on="0"/>
        <pt x="1180" y="1227" on="1"/>
        <pt x="1178" y="1217" on="0"/>
        <pt x="1178" y="1206" on="1"/>
        <pt x="1178" y="1153" on="0"/>
        <pt x="1232" y="1090" on="1"/>
        <pt x="1296" y="1014" on="0"/>
        <pt x="1438" y="924" on="1"/>
        <pt x="1407" y="773" on="1"/>
        <pt x="1360" y="555" on="0"/>
      </contour>
    </TTGlyph>
    <TTGlyph name="uni178317B6" xMin="217" yMin="0" xMax="3053" yMax="1500">
      <contour>
        <pt x="1197" y="241" on="1"/>
        <pt x="1178" y="216" on="0"/>
        <pt x="1159" y="193" on="1"/>
        <pt x="993" y="0" on="0"/>
        <pt x="794" y="0" on="1"/>
        <pt x="545" y="0" on="0"/>
        <pt x="451" y="144" on="1"/>
        <pt x="406" y="214" on="0"/>
        <pt x="406" y="359" on="1"/>
        <pt x="406" y="515" on="0"/>
        <pt x="458" y="758" on="1"/>
        <pt x="496" y="938" on="1"/>
        <pt x="558" y="1236" on="1"/>
        <pt x="562" y="1259" on="0"/>
        <pt x="562" y="1278" on="1"/>
        <pt x="562" y="1305" on="0"/>
        <pt x="553" y="1322" on="1"/>
        <pt x="538" y="1350" on="0"/>
        <pt x="496" y="1350" on="1"/>
        <pt x="453" y="1350" on="0"/>
        <pt x="423" y="1309" on="1"/>
        <pt x="393" y="1268" on="0"/>
        <pt x="376" y="1186" on="1"/>
        <pt x="370" y="1157" on="0"/>
        <pt x="370" y="1138" on="1"/>
        <pt x="370" y="1100" on="0"/>
        <pt x="395" y="1100" on="1"/>
        <pt x="396" y="1100" on="1"/>
        <pt x="447" y="1100" on="0"/>
        <pt x="447" y="1026" on="1"/>
        <pt x="447" y="951" on="0"/>
        <pt x="396" y="950" on="1"/>
        <pt x="285" y="950" on="0"/>
        <pt x="243" y="1015" on="1"/>
        <pt x="217" y="1055" on="0"/>
        <pt x="217" y="1119" on="1"/>
        <pt x="217" y="1161" on="0"/>
        <pt x="228" y="1212" on="1"/>
        <pt x="259" y="1356" on="0"/>
        <pt x="326" y="1428" on="1"/>
        <pt x="393" y="1500" on="0"/>
        <pt x="496" y="1500" on="1"/>
        <pt x="603" y="1500" on="0"/>
        <pt x="670" y="1424" on="1"/>
        <pt x="717" y="1372" on="0"/>
        <pt x="717" y="1288" on="1"/>
        <pt x="717" y="1252" on="0"/>
        <pt x="708" y="1210" on="1"/>
        <pt x="608" y="737" on="1"/>
        <pt x="559" y="507" on="0"/>
        <pt x="559" y="378" on="1"/>
        <pt x="559" y="291" on="0"/>
        <pt x="582" y="250" on="1"/>
        <pt x="640" y="150" on="0"/>
        <pt x="796" y="150" on="1"/>
        <pt x="932" y="150" on="0"/>
        <pt x="1060" y="312" on="1"/>
        <pt x="1188" y="475" on="0"/>
        <pt x="1257" y="800" on="1"/>
        <pt x="1288" y="938" on="1"/>
        <pt x="1141" y="1005" on="0"/>
        <pt x="1076" y="1082" on="1"/>
        <pt x="1026" y="1142" on="0"/>
        <pt x="1026" y="1208" on="1"/>
        <pt x="1026" y="1227" on="0"/>
        <pt x="1030" y="1246" on="1"/>
        <pt x="1057" y="1373" on="0"/>
        <pt x="1130" y="1436" on="1"/>
        <pt x="1203" y="1500" on="0"/>
        <pt x="1316" y="1500" on="1"/>
        <pt x="1417" y="1500" on="0"/>
        <pt x="1565" y="1408" on="1"/>
        <pt x="1641" y="1360" on="0"/>
        <pt x="1641" y="1312" on="1"/>
        <pt x="1641" y="1296" on="0"/>
        <pt x="1632" y="1280" on="1"/>
        <pt x="1615" y="1248" on="0"/>
        <pt x="1580" y="1248" on="1"/>
        <pt x="1546" y="1248" on="0"/>
        <pt x="1495" y="1277" on="1"/>
        <pt x="1375" y="1350" on="0"/>
        <pt x="1315" y="1350" on="1"/>
        <pt x="1266" y="1350" on="0"/>
        <pt x="1229" y="1319" on="1"/>
        <pt x="1193" y="1288" on="0"/>
        <pt x="1180" y="1227" on="1"/>
        <pt x="1178" y="1217" on="0"/>
        <pt x="1178" y="1206" on="1"/>
        <pt x="1178" y="1153" on="0"/>
        <pt x="1232" y="1090" on="1"/>
        <pt x="1296" y="1014" on="0"/>
        <pt x="1438" y="924" on="1"/>
        <pt x="1407" y="773" on="1"/>
        <pt x="1360" y="555" on="0"/>
        <pt x="1288" y="399" on="1"/>
        <pt x="1316" y="350" on="1"/>
        <pt x="1430" y="150" on="0"/>
        <pt x="1557" y="150" on="1"/>
        <pt x="1700" y="150" on="0"/>
        <pt x="1828" y="312" on="1"/>
        <pt x="1956" y="475" on="0"/>
        <pt x="2025" y="800" on="1"/>
        <pt x="2069" y="1007" on="1"/>
        <pt x="2122" y="1254" on="0"/>
        <pt x="2254" y="1377" on="1"/>
        <pt x="2385" y="1500" on="0"/>
        <pt x="2596" y="1500" on="1"/>
        <pt x="2858" y="1500" on="0"/>
        <pt x="2975" y="1364" on="1"/>
        <pt x="3053" y="1274" on="0"/>
        <pt x="3053" y="1123" on="1"/>
        <pt x="3053" y="1048" on="0"/>
        <pt x="3034" y="958" on="1"/>
        <pt x="2860" y="174" on="1"/>
        <pt x="2811" y="0" on="0"/>
        <pt x="2663" y="0" on="1"/>
        <pt x="2550" y="0" on="0"/>
        <pt x="2519" y="100" on="1"/>
        <pt x="2515" y="113" on="0"/>
        <pt x="2515" y="130" on="1"/>
        <pt x="2515" y="243" on="0"/>
        <pt x="2692" y="536" on="1"/>
        <pt x="2599" y="301" on="0"/>
        <pt x="2599" y="226" on="1"/>
        <pt x="2599" y="212" on="0"/>
        <pt x="2602" y="204" on="1"/>
        <pt x="2622" y="150" on="0"/>
        <pt x="2664" y="150" on="1"/>
        <pt x="2696" y="150" on="0"/>
        <pt x="2713" y="209" on="1"/>
        <pt x="2884" y="973" on="1"/>
        <pt x="2898" y="1037" on="0"/>
        <pt x="2898" y="1090" on="1"/>
        <pt x="2898" y="1194" on="0"/>
        <pt x="2846" y="1256" on="1"/>
        <pt x="2766" y="1350" on="0"/>
        <pt x="2598" y="1350" on="1"/>
        <pt x="2448" y="1350" on="0"/>
        <pt x="2353" y="1257" on="1"/>
        <pt x="2259" y="1164" on="0"/>
        <pt x="2220" y="977" on="1"/>
        <pt x="2175" y="773" on="1"/>
        <pt x="2092" y="386" on="0"/>
        <pt x="1927" y="193" on="1"/>
        <pt x="1761" y="0" on="0"/>
        <pt x="1555" y="0" on="1"/>
        <pt x="1368" y="0" on="0"/>
      </contour>
    </TTGlyph>
    <TTGlyph name="uni178317C5" xMin="217" yMin="0" xMax="3163" yMax="2000">
      <contour>
        <pt x="1197" y="241" on="1"/>
        <pt x="1178" y="216" on="0"/>
        <pt x="1159" y="193" on="1"/>
        <pt x="993" y="0" on="0"/>
        <pt x="794" y="0" on="1"/>
        <pt x="545" y="0" on="0"/>
        <pt x="451" y="144" on="1"/>
        <pt x="406" y="214" on="0"/>
        <pt x="406" y="359" on="1"/>
        <pt x="406" y="515" on="0"/>
        <pt x="458" y="758" on="1"/>
        <pt x="496" y="938" on="1"/>
        <pt x="558" y="1236" on="1"/>
        <pt x="562" y="1259" on="0"/>
        <pt x="562" y="1278" on="1"/>
        <pt x="562" y="1305" on="0"/>
        <pt x="553" y="1322" on="1"/>
        <pt x="538" y="1350" on="0"/>
        <pt x="496" y="1350" on="1"/>
        <pt x="453" y="1350" on="0"/>
        <pt x="423" y="1309" on="1"/>
        <pt x="393" y="1268" on="0"/>
        <pt x="376" y="1186" on="1"/>
        <pt x="370" y="1157" on="0"/>
        <pt x="370" y="1138" on="1"/>
        <pt x="370" y="1100" on="0"/>
        <pt x="395" y="1100" on="1"/>
        <pt x="396" y="1100" on="1"/>
        <pt x="447" y="1100" on="0"/>
        <pt x="447" y="1026" on="1"/>
        <pt x="447" y="951" on="0"/>
        <pt x="396" y="950" on="1"/>
        <pt x="285" y="950" on="0"/>
        <pt x="243" y="1015" on="1"/>
        <pt x="217" y="1055" on="0"/>
        <pt x="217" y="1119" on="1"/>
        <pt x="217" y="1161" on="0"/>
        <pt x="228" y="1212" on="1"/>
        <pt x="259" y="1356" on="0"/>
        <pt x="326" y="1428" on="1"/>
        <pt x="393" y="1500" on="0"/>
        <pt x="496" y="1500" on="1"/>
        <pt x="603" y="1500" on="0"/>
        <pt x="670" y="1424" on="1"/>
        <pt x="717" y="1372" on="0"/>
        <pt x="717" y="1288" on="1"/>
        <pt x="717" y="1252" on="0"/>
        <pt x="708" y="1210" on="1"/>
        <pt x="608" y="737" on="1"/>
        <pt x="559" y="507" on="0"/>
        <pt x="559" y="378" on="1"/>
        <pt x="559" y="291" on="0"/>
        <pt x="582" y="250" on="1"/>
        <pt x="640" y="150" on="0"/>
        <pt x="796" y="150" on="1"/>
        <pt x="932" y="150" on="0"/>
        <pt x="1060" y="312" on="1"/>
        <pt x="1188" y="475" on="0"/>
        <pt x="1257" y="800" on="1"/>
        <pt x="1288" y="938" on="1"/>
        <pt x="1141" y="1005" on="0"/>
        <pt x="1076" y="1082" on="1"/>
        <pt x="1026" y="1142" on="0"/>
        <pt x="1026" y="1208" on="1"/>
        <pt x="1026" y="1227" on="0"/>
        <pt x="1030" y="1246" on="1"/>
        <pt x="1057" y="1373" on="0"/>
        <pt x="1130" y="1436" on="1"/>
        <pt x="1203" y="1500" on="0"/>
        <pt x="1316" y="1500" on="1"/>
        <pt x="1417" y="1500" on="0"/>
        <pt x="1565" y="1408" on="1"/>
        <pt x="1641" y="1360" on="0"/>
        <pt x="1641" y="1312" on="1"/>
        <pt x="1641" y="1296" on="0"/>
        <pt x="1632" y="1280" on="1"/>
        <pt x="1615" y="1248" on="0"/>
        <pt x="1580" y="1248" on="1"/>
        <pt x="1546" y="1248" on="0"/>
        <pt x="1495" y="1277" on="1"/>
        <pt x="1375" y="1350" on="0"/>
        <pt x="1315" y="1350" on="1"/>
        <pt x="1266" y="1350" on="0"/>
        <pt x="1229" y="1319" on="1"/>
        <pt x="1193" y="1288" on="0"/>
        <pt x="1180" y="1227" on="1"/>
        <pt x="1178" y="1217" on="0"/>
        <pt x="1178" y="1206" on="1"/>
        <pt x="1178" y="1153" on="0"/>
        <pt x="1232" y="1090" on="1"/>
        <pt x="1296" y="1014" on="0"/>
        <pt x="1438" y="924" on="1"/>
        <pt x="1407" y="773" on="1"/>
        <pt x="1360" y="555" on="0"/>
        <pt x="1288" y="399" on="1"/>
        <pt x="1316" y="350" on="1"/>
        <pt x="1430" y="150" on="0"/>
        <pt x="1557" y="150" on="1"/>
        <pt x="1700" y="150" on="0"/>
        <pt x="1828" y="312" on="1"/>
        <pt x="1956" y="475" on="0"/>
        <pt x="2025" y="800" on="1"/>
        <pt x="2069" y="1007" on="1"/>
        <pt x="2122" y="1254" on="0"/>
        <pt x="2254" y="1377" on="1"/>
        <pt x="2385" y="1500" on="0"/>
        <pt x="2596" y="1500" on="1"/>
        <pt x="2823" y="1500" on="0"/>
        <pt x="2942" y="1397" on="1"/>
        <pt x="3009" y="1701" on="1"/>
        <pt x="3012" y="1713" on="0"/>
        <pt x="3012" y="1725" on="1"/>
        <pt x="3012" y="1769" on="0"/>
        <pt x="2977" y="1805" on="1"/>
        <pt x="2933" y="1850" on="0"/>
        <pt x="2874" y="1850" on="1"/>
        <pt x="2675" y="1850" on="1"/>
        <pt x="2576" y="1850" on="0"/>
        <pt x="2576" y="1925" on="1"/>
        <pt x="2576" y="2000" on="0"/>
        <pt x="2676" y="2000" on="1"/>
        <pt x="2877" y="2000" on="1"/>
        <pt x="2997" y="2000" on="0"/>
        <pt x="3091" y="1903" on="1"/>
        <pt x="3163" y="1829" on="0"/>
        <pt x="3163" y="1734" on="1"/>
        <pt x="3163" y="1705" on="0"/>
        <pt x="3156" y="1674" on="1"/>
        <pt x="3100" y="1453" on="0"/>
        <pt x="3020" y="1293" on="1"/>
        <pt x="3053" y="1221" on="0"/>
        <pt x="3053" y="1122" on="1"/>
        <pt x="3053" y="1048" on="0"/>
        <pt x="3034" y="958" on="1"/>
        <pt x="2860" y="174" on="1"/>
        <pt x="2811" y="0" on="0"/>
        <pt x="2663" y="0" on="1"/>
        <pt x="2550" y="0" on="0"/>
        <pt x="2519" y="100" on="1"/>
        <pt x="2515" y="113" on="0"/>
        <pt x="2515" y="130" on="1"/>
        <pt x="2515" y="243" on="0"/>
        <pt x="2692" y="536" on="1"/>
        <pt x="2599" y="301" on="0"/>
        <pt x="2599" y="226" on="1"/>
        <pt x="2599" y="212" on="0"/>
        <pt x="2602" y="204" on="1"/>
        <pt x="2622" y="150" on="0"/>
        <pt x="2664" y="150" on="1"/>
        <pt x="2696" y="150" on="0"/>
        <pt x="2713" y="209" on="1"/>
        <pt x="2884" y="973" on="1"/>
        <pt x="2897" y="1036" on="0"/>
        <pt x="2897" y="1088" on="1"/>
        <pt x="2897" y="1102" on="1"/>
        <pt x="2883" y="1085" on="0"/>
        <pt x="2869" y="1070" on="1"/>
        <pt x="2890" y="1164" on="1"/>
        <pt x="2878" y="1218" on="0"/>
        <pt x="2846" y="1256" on="1"/>
        <pt x="2766" y="1350" on="0"/>
        <pt x="2598" y="1350" on="1"/>
        <pt x="2448" y="1350" on="0"/>
        <pt x="2353" y="1257" on="1"/>
        <pt x="2259" y="1164" on="0"/>
        <pt x="2220" y="977" on="1"/>
        <pt x="2175" y="773" on="1"/>
        <pt x="2092" y="386" on="0"/>
        <pt x="1927" y="193" on="1"/>
        <pt x="1761" y="0" on="0"/>
        <pt x="1555" y="0" on="1"/>
        <pt x="1368" y="0" on="0"/>
      </contour>
    </TTGlyph>
    <TTGlyph name="uni1784" xMin="217" yMin="0" xMax="1527" yMax="1911">
      <contour>
        <pt x="1211" y="1260" on="1"/>
        <pt x="1363" y="1276" on="0"/>
        <pt x="1373" y="1323" on="1"/>
        <pt x="1376" y="1337" on="0"/>
        <pt x="1376" y="1348" on="1"/>
        <pt x="1376" y="1369" on="0"/>
        <pt x="1366" y="1381" on="1"/>
        <pt x="1350" y="1400" on="0"/>
        <pt x="1310" y="1400" on="1"/>
        <pt x="1266" y="1400" on="0"/>
        <pt x="1238" y="1360" on="1"/>
        <pt x="1210" y="1319" on="0"/>
        <pt x="1210" y="1270" on="1"/>
        <pt x="1210" y="1266" on="0"/>
      </contour>
      <contour>
        <pt x="1097" y="1101" on="1"/>
        <pt x="1051" y="1100" on="0"/>
        <pt x="1000" y="1100" on="1"/>
        <pt x="684" y="1100" on="0"/>
        <pt x="568" y="1236" on="1"/>
        <pt x="495" y="1327" on="0"/>
        <pt x="495" y="1445" on="1"/>
        <pt x="495" y="1490" on="0"/>
        <pt x="506" y="1540" on="1"/>
        <pt x="570" y="1776" on="0"/>
        <pt x="758" y="1857" on="1"/>
        <pt x="883" y="1911" on="0"/>
        <pt x="981" y="1911" on="1"/>
        <pt x="1031" y="1911" on="0"/>
        <pt x="1074" y="1897" on="1"/>
        <pt x="897" y="1858" on="0"/>
        <pt x="791" y="1761" on="1"/>
        <pt x="686" y="1664" on="0"/>
        <pt x="653" y="1510" on="1"/>
        <pt x="649" y="1490" on="0"/>
        <pt x="649" y="1471" on="1"/>
        <pt x="649" y="1404" on="0"/>
        <pt x="698" y="1342" on="1"/>
        <pt x="777" y="1251" on="0"/>
        <pt x="1001" y="1251" on="1"/>
        <pt x="1061" y="1251" on="1"/>
        <pt x="1060" y="1263" on="0"/>
        <pt x="1060" y="1272" on="1"/>
        <pt x="1060" y="1400" on="0"/>
        <pt x="1123" y="1475" on="1"/>
        <pt x="1186" y="1550" on="0"/>
        <pt x="1309" y="1550" on="1"/>
        <pt x="1409" y="1550" on="0"/>
        <pt x="1477" y="1479" on="1"/>
        <pt x="1527" y="1425" on="0"/>
        <pt x="1527" y="1346" on="1"/>
        <pt x="1527" y="1318" on="0"/>
        <pt x="1521" y="1288" on="1"/>
        <pt x="1501" y="1194" on="0"/>
        <pt x="1395" y="1147" on="1"/>
        <pt x="1346" y="1125" on="0"/>
        <pt x="1255" y="1113" on="1"/>
        <pt x="1265" y="1085" on="0"/>
        <pt x="1278" y="1052" on="1"/>
        <pt x="1321" y="938" on="0"/>
        <pt x="1321" y="835" on="1"/>
        <pt x="1321" y="775" on="0"/>
        <pt x="1307" y="719" on="1"/>
        <pt x="1213" y="280" on="1"/>
        <pt x="1183" y="140" on="0"/>
        <pt x="1104" y="70" on="1"/>
        <pt x="1025" y="0" on="0"/>
        <pt x="931" y="0" on="1"/>
        <pt x="857" y="0" on="0"/>
        <pt x="665" y="200" on="1"/>
        <pt x="611" y="250" on="0"/>
        <pt x="550" y="250" on="1"/>
        <pt x="489" y="250" on="0"/>
        <pt x="434" y="150" on="1"/>
        <pt x="348" y="0" on="0"/>
        <pt x="275" y="0" on="1"/>
        <pt x="217" y="0" on="0"/>
        <pt x="217" y="58" on="1"/>
        <pt x="217" y="73" on="0"/>
        <pt x="221" y="92" on="1"/>
        <pt x="241" y="184" on="1"/>
        <pt x="357" y="736" on="1"/>
        <pt x="360" y="752" on="0"/>
        <pt x="360" y="765" on="1"/>
        <pt x="360" y="850" on="0"/>
        <pt x="250" y="850" on="1"/>
        <pt x="300" y="1000" on="0"/>
        <pt x="381" y="1000" on="1"/>
        <pt x="462" y="1000" on="0"/>
        <pt x="499" y="925" on="1"/>
        <pt x="520" y="882" on="0"/>
        <pt x="520" y="820" on="1"/>
        <pt x="520" y="771" on="0"/>
        <pt x="507" y="710" on="1"/>
        <pt x="434" y="366" on="1"/>
        <pt x="468" y="400" on="0"/>
        <pt x="551" y="400" on="1"/>
        <pt x="654" y="400" on="0"/>
        <pt x="752" y="307" on="1"/>
        <pt x="937" y="150" on="1"/>
        <pt x="964" y="150" on="0"/>
        <pt x="1006" y="188" on="1"/>
        <pt x="1047" y="227" on="0"/>
        <pt x="1064" y="303" on="1"/>
        <pt x="1160" y="750" on="1"/>
        <pt x="1166" y="778" on="0"/>
        <pt x="1166" y="810" on="1"/>
        <pt x="1166" y="892" on="0"/>
        <pt x="1128" y="1005" on="1"/>
        <pt x="1110" y="1058" on="0"/>
      </contour>
    </TTGlyph>
    <TTGlyph name="uni178417B6" xMin="217" yMin="0" xMax="2213" yMax="1911">
      <contour>
        <pt x="1097" y="1101" on="1"/>
        <pt x="1051" y="1100" on="0"/>
        <pt x="1000" y="1100" on="1"/>
        <pt x="684" y="1100" on="0"/>
        <pt x="568" y="1236" on="1"/>
        <pt x="495" y="1327" on="0"/>
        <pt x="495" y="1445" on="1"/>
        <pt x="495" y="1490" on="0"/>
        <pt x="506" y="1540" on="1"/>
        <pt x="570" y="1776" on="0"/>
        <pt x="758" y="1857" on="1"/>
        <pt x="883" y="1911" on="0"/>
        <pt x="981" y="1911" on="1"/>
        <pt x="1031" y="1911" on="0"/>
        <pt x="1074" y="1897" on="1"/>
        <pt x="897" y="1858" on="0"/>
        <pt x="791" y="1761" on="1"/>
        <pt x="686" y="1664" on="0"/>
        <pt x="653" y="1510" on="1"/>
        <pt x="649" y="1490" on="0"/>
        <pt x="649" y="1471" on="1"/>
        <pt x="649" y="1404" on="0"/>
        <pt x="698" y="1342" on="1"/>
        <pt x="777" y="1251" on="0"/>
        <pt x="1001" y="1251" on="1"/>
        <pt x="1061" y="1251" on="1"/>
        <pt x="1060" y="1263" on="0"/>
        <pt x="1060" y="1272" on="1"/>
        <pt x="1060" y="1400" on="0"/>
        <pt x="1123" y="1475" on="1"/>
        <pt x="1186" y="1550" on="0"/>
        <pt x="1309" y="1550" on="1"/>
        <pt x="1409" y="1550" on="0"/>
        <pt x="1477" y="1479" on="1"/>
        <pt x="1496" y="1459" on="0"/>
        <pt x="1508" y="1434" on="1"/>
        <pt x="1646" y="1500" on="0"/>
        <pt x="1786" y="1500" on="1"/>
        <pt x="2018" y="1500" on="0"/>
        <pt x="2135" y="1364" on="1"/>
        <pt x="2213" y="1274" on="0"/>
        <pt x="2213" y="1123" on="1"/>
        <pt x="2213" y="1048" on="0"/>
        <pt x="2194" y="958" on="1"/>
        <pt x="2020" y="174" on="1"/>
        <pt x="1971" y="0" on="0"/>
        <pt x="1823" y="0" on="1"/>
        <pt x="1710" y="0" on="0"/>
        <pt x="1679" y="100" on="1"/>
        <pt x="1675" y="113" on="0"/>
        <pt x="1675" y="130" on="1"/>
        <pt x="1675" y="243" on="0"/>
        <pt x="1852" y="536" on="1"/>
        <pt x="1759" y="301" on="0"/>
        <pt x="1759" y="226" on="1"/>
        <pt x="1759" y="212" on="0"/>
        <pt x="1762" y="204" on="1"/>
        <pt x="1782" y="150" on="0"/>
        <pt x="1824" y="150" on="1"/>
        <pt x="1856" y="150" on="0"/>
        <pt x="1873" y="209" on="1"/>
        <pt x="2044" y="973" on="1"/>
        <pt x="2058" y="1037" on="0"/>
        <pt x="2058" y="1090" on="1"/>
        <pt x="2058" y="1194" on="0"/>
        <pt x="2006" y="1256" on="1"/>
        <pt x="1926" y="1350" on="0"/>
        <pt x="1788" y="1350" on="1"/>
        <pt x="1652" y="1350" on="0"/>
        <pt x="1520" y="1285" on="1"/>
        <pt x="1499" y="1193" on="0"/>
        <pt x="1395" y="1147" on="1"/>
        <pt x="1356" y="1130" on="0"/>
        <pt x="1292" y="1119" on="1"/>
        <pt x="1278" y="1105" on="0"/>
        <pt x="1264" y="1090" on="1"/>
        <pt x="1270" y="1072" on="0"/>
        <pt x="1278" y="1052" on="1"/>
        <pt x="1321" y="938" on="0"/>
        <pt x="1321" y="835" on="1"/>
        <pt x="1321" y="775" on="0"/>
        <pt x="1307" y="719" on="1"/>
        <pt x="1213" y="280" on="1"/>
        <pt x="1183" y="140" on="0"/>
        <pt x="1104" y="70" on="1"/>
        <pt x="1025" y="0" on="0"/>
        <pt x="931" y="0" on="1"/>
        <pt x="857" y="0" on="0"/>
        <pt x="665" y="200" on="1"/>
        <pt x="611" y="250" on="0"/>
        <pt x="550" y="250" on="1"/>
        <pt x="489" y="250" on="0"/>
        <pt x="434" y="150" on="1"/>
        <pt x="348" y="0" on="0"/>
        <pt x="275" y="0" on="1"/>
        <pt x="217" y="0" on="0"/>
        <pt x="217" y="58" on="1"/>
        <pt x="217" y="73" on="0"/>
        <pt x="221" y="92" on="1"/>
        <pt x="241" y="184" on="1"/>
        <pt x="357" y="736" on="1"/>
        <pt x="360" y="752" on="0"/>
        <pt x="360" y="765" on="1"/>
        <pt x="360" y="850" on="0"/>
        <pt x="250" y="850" on="1"/>
        <pt x="300" y="1000" on="0"/>
        <pt x="381" y="1000" on="1"/>
        <pt x="462" y="1000" on="0"/>
        <pt x="499" y="925" on="1"/>
        <pt x="520" y="882" on="0"/>
        <pt x="520" y="820" on="1"/>
        <pt x="520" y="771" on="0"/>
        <pt x="507" y="710" on="1"/>
        <pt x="434" y="366" on="1"/>
        <pt x="468" y="400" on="0"/>
        <pt x="551" y="400" on="1"/>
        <pt x="654" y="400" on="0"/>
        <pt x="752" y="307" on="1"/>
        <pt x="937" y="150" on="1"/>
        <pt x="964" y="150" on="0"/>
        <pt x="1006" y="188" on="1"/>
        <pt x="1047" y="227" on="0"/>
        <pt x="1064" y="303" on="1"/>
        <pt x="1160" y="750" on="1"/>
        <pt x="1166" y="778" on="0"/>
        <pt x="1166" y="810" on="1"/>
        <pt x="1166" y="892" on="0"/>
        <pt x="1128" y="1005" on="1"/>
        <pt x="1110" y="1058" on="0"/>
      </contour>
      <contour>
        <pt x="1347" y="1293" on="1"/>
        <pt x="1360" y="1312" on="0"/>
        <pt x="1374" y="1329" on="1"/>
        <pt x="1376" y="1340" on="0"/>
        <pt x="1376" y="1349" on="1"/>
        <pt x="1376" y="1369" on="0"/>
        <pt x="1366" y="1381" on="1"/>
        <pt x="1350" y="1400" on="0"/>
        <pt x="1310" y="1400" on="1"/>
        <pt x="1266" y="1400" on="0"/>
        <pt x="1238" y="1360" on="1"/>
        <pt x="1210" y="1319" on="0"/>
        <pt x="1210" y="1270" on="1"/>
        <pt x="1210" y="1266" on="0"/>
        <pt x="1211" y="1260" on="1"/>
        <pt x="1307" y="1270" on="0"/>
      </contour>
    </TTGlyph>
    <TTGlyph name="uni178417C5" xMin="217" yMin="0" xMax="2322" yMax="2000">
      <contour>
        <pt x="1097" y="1101" on="1"/>
        <pt x="1051" y="1100" on="0"/>
        <pt x="1000" y="1100" on="1"/>
        <pt x="684" y="1100" on="0"/>
        <pt x="568" y="1236" on="1"/>
        <pt x="495" y="1327" on="0"/>
        <pt x="495" y="1445" on="1"/>
        <pt x="495" y="1490" on="0"/>
        <pt x="506" y="1540" on="1"/>
        <pt x="570" y="1776" on="0"/>
        <pt x="758" y="1857" on="1"/>
        <pt x="883" y="1911" on="0"/>
        <pt x="981" y="1911" on="1"/>
        <pt x="1031" y="1911" on="0"/>
        <pt x="1074" y="1897" on="1"/>
        <pt x="897" y="1858" on="0"/>
        <pt x="791" y="1761" on="1"/>
        <pt x="686" y="1664" on="0"/>
        <pt x="653" y="1510" on="1"/>
        <pt x="649" y="1490" on="0"/>
        <pt x="649" y="1471" on="1"/>
        <pt x="649" y="1404" on="0"/>
        <pt x="698" y="1342" on="1"/>
        <pt x="777" y="1251" on="0"/>
        <pt x="1001" y="1251" on="1"/>
        <pt x="1061" y="1251" on="1"/>
        <pt x="1060" y="1263" on="0"/>
        <pt x="1060" y="1272" on="1"/>
        <pt x="1060" y="1400" on="0"/>
        <pt x="1123" y="1475" on="1"/>
        <pt x="1186" y="1550" on="0"/>
        <pt x="1309" y="1550" on="1"/>
        <pt x="1409" y="1550" on="0"/>
        <pt x="1477" y="1479" on="1"/>
        <pt x="1496" y="1459" on="0"/>
        <pt x="1508" y="1434" on="1"/>
        <pt x="1646" y="1500" on="0"/>
        <pt x="1786" y="1500" on="1"/>
        <pt x="1986" y="1500" on="0"/>
        <pt x="2101" y="1399" on="1"/>
        <pt x="2168" y="1701" on="1"/>
        <pt x="2171" y="1713" on="0"/>
        <pt x="2171" y="1725" on="1"/>
        <pt x="2171" y="1769" on="0"/>
        <pt x="2136" y="1805" on="1"/>
        <pt x="2092" y="1850" on="0"/>
        <pt x="2033" y="1850" on="1"/>
        <pt x="1834" y="1850" on="1"/>
        <pt x="1735" y="1850" on="0"/>
        <pt x="1735" y="1925" on="1"/>
        <pt x="1735" y="2000" on="0"/>
        <pt x="1835" y="2000" on="1"/>
        <pt x="2036" y="2000" on="1"/>
        <pt x="2156" y="2000" on="0"/>
        <pt x="2250" y="1903" on="1"/>
        <pt x="2322" y="1829" on="0"/>
        <pt x="2322" y="1734" on="1"/>
        <pt x="2322" y="1705" on="0"/>
        <pt x="2315" y="1674" on="1"/>
        <pt x="2260" y="1453" on="0"/>
        <pt x="2180" y="1294" on="1"/>
        <pt x="2213" y="1221" on="0"/>
        <pt x="2213" y="1123" on="1"/>
        <pt x="2213" y="1048" on="0"/>
        <pt x="2194" y="958" on="1"/>
        <pt x="2020" y="174" on="1"/>
        <pt x="1971" y="0" on="0"/>
        <pt x="1823" y="0" on="1"/>
        <pt x="1710" y="0" on="0"/>
        <pt x="1679" y="100" on="1"/>
        <pt x="1675" y="113" on="0"/>
        <pt x="1675" y="130" on="1"/>
        <pt x="1675" y="243" on="0"/>
        <pt x="1852" y="536" on="1"/>
        <pt x="1759" y="301" on="0"/>
        <pt x="1759" y="226" on="1"/>
        <pt x="1759" y="212" on="0"/>
        <pt x="1762" y="204" on="1"/>
        <pt x="1782" y="150" on="0"/>
        <pt x="1824" y="150" on="1"/>
        <pt x="1856" y="150" on="0"/>
        <pt x="1873" y="209" on="1"/>
        <pt x="2044" y="973" on="1"/>
        <pt x="2057" y="1037" on="0"/>
        <pt x="2057" y="1089" on="1"/>
        <pt x="2057" y="1103" on="1"/>
        <pt x="2043" y="1086" on="0"/>
        <pt x="2028" y="1070" on="1"/>
        <pt x="2049" y="1166" on="1"/>
        <pt x="2037" y="1219" on="0"/>
        <pt x="2006" y="1256" on="1"/>
        <pt x="1926" y="1350" on="0"/>
        <pt x="1788" y="1350" on="1"/>
        <pt x="1652" y="1350" on="0"/>
        <pt x="1520" y="1285" on="1"/>
        <pt x="1499" y="1193" on="0"/>
        <pt x="1395" y="1147" on="1"/>
        <pt x="1356" y="1130" on="0"/>
        <pt x="1292" y="1119" on="1"/>
        <pt x="1278" y="1105" on="0"/>
        <pt x="1264" y="1090" on="1"/>
        <pt x="1270" y="1072" on="0"/>
        <pt x="1278" y="1052" on="1"/>
        <pt x="1321" y="938" on="0"/>
        <pt x="1321" y="835" on="1"/>
        <pt x="1321" y="775" on="0"/>
        <pt x="1307" y="719" on="1"/>
        <pt x="1213" y="280" on="1"/>
        <pt x="1183" y="140" on="0"/>
        <pt x="1104" y="70" on="1"/>
        <pt x="1025" y="0" on="0"/>
        <pt x="931" y="0" on="1"/>
        <pt x="857" y="0" on="0"/>
        <pt x="665" y="200" on="1"/>
        <pt x="611" y="250" on="0"/>
        <pt x="550" y="250" on="1"/>
        <pt x="489" y="250" on="0"/>
        <pt x="434" y="150" on="1"/>
        <pt x="348" y="0" on="0"/>
        <pt x="275" y="0" on="1"/>
        <pt x="217" y="0" on="0"/>
        <pt x="217" y="58" on="1"/>
        <pt x="217" y="73" on="0"/>
        <pt x="221" y="92" on="1"/>
        <pt x="241" y="184" on="1"/>
        <pt x="357" y="736" on="1"/>
        <pt x="360" y="752" on="0"/>
        <pt x="360" y="765" on="1"/>
        <pt x="360" y="850" on="0"/>
        <pt x="250" y="850" on="1"/>
        <pt x="300" y="1000" on="0"/>
        <pt x="381" y="1000" on="1"/>
        <pt x="462" y="1000" on="0"/>
        <pt x="499" y="925" on="1"/>
        <pt x="520" y="882" on="0"/>
        <pt x="520" y="820" on="1"/>
        <pt x="520" y="771" on="0"/>
        <pt x="507" y="710" on="1"/>
        <pt x="434" y="366" on="1"/>
        <pt x="468" y="400" on="0"/>
        <pt x="551" y="400" on="1"/>
        <pt x="654" y="400" on="0"/>
        <pt x="752" y="307" on="1"/>
        <pt x="937" y="150" on="1"/>
        <pt x="964" y="150" on="0"/>
        <pt x="1006" y="188" on="1"/>
        <pt x="1047" y="227" on="0"/>
        <pt x="1064" y="303" on="1"/>
        <pt x="1160" y="750" on="1"/>
        <pt x="1166" y="778" on="0"/>
        <pt x="1166" y="810" on="1"/>
        <pt x="1166" y="892" on="0"/>
        <pt x="1128" y="1005" on="1"/>
        <pt x="1110" y="1058" on="0"/>
      </contour>
      <contour>
        <pt x="1347" y="1293" on="1"/>
        <pt x="1360" y="1312" on="0"/>
        <pt x="1374" y="1329" on="1"/>
        <pt x="1376" y="1340" on="0"/>
        <pt x="1376" y="1349" on="1"/>
        <pt x="1376" y="1369" on="0"/>
        <pt x="1366" y="1381" on="1"/>
        <pt x="1350" y="1400" on="0"/>
        <pt x="1310" y="1400" on="1"/>
        <pt x="1266" y="1400" on="0"/>
        <pt x="1238" y="1360" on="1"/>
        <pt x="1210" y="1319" on="0"/>
        <pt x="1210" y="1270" on="1"/>
        <pt x="1210" y="1266" on="0"/>
        <pt x="1211" y="1260" on="1"/>
        <pt x="1307" y="1270" on="0"/>
      </contour>
    </TTGlyph>
    <TTGlyph name="uni1785" xMin="267" yMin="0" xMax="1567" yMax="1501">
      <contour>
        <pt x="552" y="1001" on="1"/>
        <pt x="463" y="576" on="1"/>
        <pt x="446" y="497" on="0"/>
        <pt x="446" y="433" on="1"/>
        <pt x="446" y="324" on="0"/>
        <pt x="495" y="256" on="1"/>
        <pt x="573" y="150" on="0"/>
        <pt x="772" y="150" on="1"/>
        <pt x="975" y="150" on="0"/>
        <pt x="1095" y="242" on="1"/>
        <pt x="1216" y="334" on="0"/>
        <pt x="1255" y="518" on="1"/>
        <pt x="1301" y="734" on="1"/>
        <pt x="1305" y="757" on="0"/>
        <pt x="1305" y="776" on="1"/>
        <pt x="1305" y="803" on="0"/>
        <pt x="1296" y="820" on="1"/>
        <pt x="1281" y="848" on="0"/>
        <pt x="1239" y="848" on="1"/>
        <pt x="1196" y="848" on="0"/>
        <pt x="1156" y="816" on="0"/>
        <pt x="1143" y="766" on="1"/>
        <pt x="1140" y="749" on="0"/>
        <pt x="1140" y="737" on="1"/>
        <pt x="1140" y="700" on="0"/>
        <pt x="1168" y="700" on="1"/>
        <pt x="1169" y="700" on="1"/>
        <pt x="1220" y="700" on="0"/>
        <pt x="1220" y="626" on="1"/>
        <pt x="1220" y="551" on="0"/>
        <pt x="1169" y="550" on="1"/>
        <pt x="1058" y="550" on="0"/>
        <pt x="1016" y="615" on="1"/>
        <pt x="988" y="659" on="0"/>
        <pt x="988" y="723" on="1"/>
        <pt x="988" y="755" on="0"/>
        <pt x="995" y="792" on="1"/>
        <pt x="1022" y="904" on="0"/>
        <pt x="1136" y="998" on="0"/>
        <pt x="1239" y="998" on="1"/>
        <pt x="1346" y="998" on="0"/>
        <pt x="1413" y="922" on="1"/>
        <pt x="1460" y="870" on="0"/>
        <pt x="1460" y="786" on="1"/>
        <pt x="1460" y="750" on="0"/>
        <pt x="1451" y="708" on="1"/>
        <pt x="1405" y="494" on="1"/>
        <pt x="1352" y="247" on="0"/>
        <pt x="1194" y="124" on="1"/>
        <pt x="1035" y="0" on="0"/>
        <pt x="772" y="0" on="1"/>
        <pt x="481" y="0" on="0"/>
        <pt x="366" y="150" on="1"/>
        <pt x="291" y="248" on="0"/>
        <pt x="291" y="409" on="1"/>
        <pt x="291" y="496" on="0"/>
        <pt x="313" y="601" on="1"/>
        <pt x="419" y="1100" on="1"/>
        <pt x="421" y="1112" on="0"/>
        <pt x="421" y="1123" on="1"/>
        <pt x="421" y="1164" on="0"/>
        <pt x="389" y="1186" on="1"/>
        <pt x="267" y="1268" on="0"/>
        <pt x="267" y="1350" on="1"/>
        <pt x="268" y="1501" on="0"/>
        <pt x="568" y="1501" on="1"/>
        <pt x="1418" y="1501" on="1"/>
        <pt x="1567" y="1501" on="0"/>
        <pt x="1567" y="1426" on="1"/>
        <pt x="1567" y="1351" on="0"/>
        <pt x="1417" y="1351" on="1"/>
        <pt x="568" y="1351" on="1"/>
        <pt x="428" y="1351" on="0"/>
        <pt x="428" y="1297" on="1"/>
        <pt x="428" y="1287" on="0"/>
        <pt x="433" y="1274" on="1"/>
        <pt x="553" y="1057" on="0"/>
        <pt x="553" y="1007" on="1"/>
        <pt x="553" y="1004" on="0"/>
      </contour>
    </TTGlyph>
    <TTGlyph name="uni178517B6" xMin="267" yMin="0" xMax="2217" yMax="1500">
      <contour>
        <pt x="552" y="1001" on="1"/>
        <pt x="463" y="576" on="1"/>
        <pt x="446" y="497" on="0"/>
        <pt x="446" y="433" on="1"/>
        <pt x="446" y="324" on="0"/>
        <pt x="495" y="256" on="1"/>
        <pt x="573" y="150" on="0"/>
        <pt x="772" y="150" on="1"/>
        <pt x="975" y="150" on="0"/>
        <pt x="1095" y="242" on="1"/>
        <pt x="1216" y="334" on="0"/>
        <pt x="1255" y="518" on="1"/>
        <pt x="1301" y="734" on="1"/>
        <pt x="1305" y="757" on="0"/>
        <pt x="1305" y="776" on="1"/>
        <pt x="1305" y="803" on="0"/>
        <pt x="1296" y="820" on="1"/>
        <pt x="1281" y="848" on="0"/>
        <pt x="1239" y="848" on="1"/>
        <pt x="1196" y="848" on="0"/>
        <pt x="1156" y="816" on="0"/>
        <pt x="1143" y="766" on="1"/>
        <pt x="1140" y="749" on="0"/>
        <pt x="1140" y="737" on="1"/>
        <pt x="1140" y="700" on="0"/>
        <pt x="1168" y="700" on="1"/>
        <pt x="1169" y="700" on="1"/>
        <pt x="1220" y="700" on="0"/>
        <pt x="1220" y="626" on="1"/>
        <pt x="1220" y="551" on="0"/>
        <pt x="1169" y="550" on="1"/>
        <pt x="1058" y="550" on="0"/>
        <pt x="1016" y="615" on="1"/>
        <pt x="988" y="659" on="0"/>
        <pt x="988" y="723" on="1"/>
        <pt x="988" y="755" on="0"/>
        <pt x="995" y="792" on="1"/>
        <pt x="1022" y="904" on="0"/>
        <pt x="1136" y="998" on="0"/>
        <pt x="1239" y="998" on="1"/>
        <pt x="1346" y="998" on="0"/>
        <pt x="1413" y="922" on="1"/>
        <pt x="1460" y="870" on="0"/>
        <pt x="1460" y="786" on="1"/>
        <pt x="1460" y="750" on="0"/>
        <pt x="1451" y="708" on="1"/>
        <pt x="1405" y="494" on="1"/>
        <pt x="1352" y="247" on="0"/>
        <pt x="1194" y="124" on="1"/>
        <pt x="1035" y="0" on="0"/>
        <pt x="772" y="0" on="1"/>
        <pt x="481" y="0" on="0"/>
        <pt x="366" y="150" on="1"/>
        <pt x="291" y="248" on="0"/>
        <pt x="291" y="409" on="1"/>
        <pt x="291" y="496" on="0"/>
        <pt x="313" y="601" on="1"/>
        <pt x="419" y="1100" on="1"/>
        <pt x="421" y="1112" on="0"/>
        <pt x="421" y="1123" on="1"/>
        <pt x="421" y="1164" on="0"/>
        <pt x="389" y="1186" on="1"/>
        <pt x="267" y="1268" on="0"/>
        <pt x="267" y="1350" on="1"/>
        <pt x="268" y="1500" on="0"/>
        <pt x="568" y="1500" on="1"/>
        <pt x="1418" y="1500" on="1"/>
        <pt x="1891" y="1500" on="0"/>
        <pt x="2076" y="1302" on="1"/>
        <pt x="2217" y="1151" on="0"/>
        <pt x="2217" y="966" on="1"/>
        <pt x="2217" y="908" on="0"/>
        <pt x="2203" y="846" on="1"/>
        <pt x="2067" y="174" on="1"/>
        <pt x="2028" y="0" on="0"/>
        <pt x="1870" y="0" on="1"/>
        <pt x="1757" y="0" on="0"/>
        <pt x="1726" y="100" on="1"/>
        <pt x="1722" y="113" on="0"/>
        <pt x="1722" y="130" on="1"/>
        <pt x="1722" y="243" on="0"/>
        <pt x="1899" y="536" on="1"/>
        <pt x="1806" y="301" on="0"/>
        <pt x="1806" y="226" on="1"/>
        <pt x="1806" y="212" on="0"/>
        <pt x="1809" y="204" on="1"/>
        <pt x="1829" y="150" on="0"/>
        <pt x="1871" y="150" on="1"/>
        <pt x="1907" y="150" on="0"/>
        <pt x="1920" y="209" on="1"/>
        <pt x="2057" y="876" on="1"/>
        <pt x="2066" y="918" on="0"/>
        <pt x="2066" y="957" on="1"/>
        <pt x="2066" y="1092" on="0"/>
        <pt x="1961" y="1204" on="1"/>
        <pt x="1825" y="1350" on="0"/>
        <pt x="1417" y="1350" on="1"/>
        <pt x="568" y="1350" on="1"/>
        <pt x="428" y="1350" on="0"/>
        <pt x="428" y="1297" on="1"/>
        <pt x="428" y="1286" on="0"/>
        <pt x="433" y="1274" on="1"/>
        <pt x="553" y="1057" on="0"/>
        <pt x="553" y="1007" on="1"/>
        <pt x="553" y="1004" on="0"/>
      </contour>
    </TTGlyph>
    <TTGlyph name="uni178517C5" xMin="267" yMin="0" xMax="2324" yMax="2000">
      <contour>
        <pt x="2036" y="1096" on="1"/>
        <pt x="2010" y="1152" on="0"/>
        <pt x="1961" y="1204" on="1"/>
        <pt x="1825" y="1350" on="0"/>
        <pt x="1417" y="1350" on="1"/>
        <pt x="568" y="1350" on="1"/>
        <pt x="428" y="1350" on="0"/>
        <pt x="428" y="1297" on="1"/>
        <pt x="428" y="1286" on="0"/>
        <pt x="433" y="1274" on="1"/>
        <pt x="553" y="1057" on="0"/>
        <pt x="553" y="1007" on="1"/>
        <pt x="553" y="1004" on="0"/>
        <pt x="552" y="1001" on="1"/>
        <pt x="463" y="576" on="1"/>
        <pt x="446" y="497" on="0"/>
        <pt x="446" y="433" on="1"/>
        <pt x="446" y="324" on="0"/>
        <pt x="495" y="256" on="1"/>
        <pt x="573" y="150" on="0"/>
        <pt x="772" y="150" on="1"/>
        <pt x="975" y="150" on="0"/>
        <pt x="1095" y="242" on="1"/>
        <pt x="1216" y="334" on="0"/>
        <pt x="1255" y="518" on="1"/>
        <pt x="1301" y="734" on="1"/>
        <pt x="1305" y="757" on="0"/>
        <pt x="1305" y="776" on="1"/>
        <pt x="1305" y="803" on="0"/>
        <pt x="1296" y="820" on="1"/>
        <pt x="1281" y="848" on="0"/>
        <pt x="1239" y="848" on="1"/>
        <pt x="1196" y="848" on="0"/>
        <pt x="1156" y="816" on="0"/>
        <pt x="1143" y="766" on="1"/>
        <pt x="1140" y="749" on="0"/>
        <pt x="1140" y="737" on="1"/>
        <pt x="1140" y="700" on="0"/>
        <pt x="1168" y="700" on="1"/>
        <pt x="1169" y="700" on="1"/>
        <pt x="1220" y="700" on="0"/>
        <pt x="1220" y="626" on="1"/>
        <pt x="1220" y="551" on="0"/>
        <pt x="1169" y="550" on="1"/>
        <pt x="1058" y="550" on="0"/>
        <pt x="1016" y="615" on="1"/>
        <pt x="988" y="659" on="0"/>
        <pt x="988" y="723" on="1"/>
        <pt x="988" y="755" on="0"/>
        <pt x="995" y="792" on="1"/>
        <pt x="1022" y="904" on="0"/>
        <pt x="1136" y="998" on="0"/>
        <pt x="1239" y="998" on="1"/>
        <pt x="1346" y="998" on="0"/>
        <pt x="1413" y="922" on="1"/>
        <pt x="1460" y="870" on="0"/>
        <pt x="1460" y="786" on="1"/>
        <pt x="1460" y="750" on="0"/>
        <pt x="1451" y="708" on="1"/>
        <pt x="1405" y="494" on="1"/>
        <pt x="1352" y="247" on="0"/>
        <pt x="1194" y="124" on="1"/>
        <pt x="1035" y="0" on="0"/>
        <pt x="772" y="0" on="1"/>
        <pt x="481" y="0" on="0"/>
        <pt x="366" y="150" on="1"/>
        <pt x="291" y="248" on="0"/>
        <pt x="291" y="409" on="1"/>
        <pt x="291" y="496" on="0"/>
        <pt x="313" y="601" on="1"/>
        <pt x="419" y="1100" on="1"/>
        <pt x="421" y="1112" on="0"/>
        <pt x="421" y="1123" on="1"/>
        <pt x="421" y="1164" on="0"/>
        <pt x="389" y="1186" on="1"/>
        <pt x="267" y="1268" on="0"/>
        <pt x="267" y="1350" on="1"/>
        <pt x="268" y="1500" on="0"/>
        <pt x="568" y="1500" on="1"/>
        <pt x="1418" y="1500" on="1"/>
        <pt x="1891" y="1500" on="0"/>
        <pt x="2076" y="1302" on="1"/>
        <pt x="2078" y="1300" on="0"/>
        <pt x="2080" y="1297" on="1"/>
        <pt x="2170" y="1701" on="1"/>
        <pt x="2173" y="1713" on="0"/>
        <pt x="2173" y="1725" on="1"/>
        <pt x="2173" y="1769" on="0"/>
        <pt x="2138" y="1805" on="1"/>
        <pt x="2094" y="1850" on="0"/>
        <pt x="2035" y="1850" on="1"/>
        <pt x="1836" y="1850" on="1"/>
        <pt x="1737" y="1850" on="0"/>
        <pt x="1737" y="1925" on="1"/>
        <pt x="1737" y="2000" on="0"/>
        <pt x="1837" y="2000" on="1"/>
        <pt x="2038" y="2000" on="1"/>
        <pt x="2158" y="2000" on="0"/>
        <pt x="2252" y="1903" on="1"/>
        <pt x="2324" y="1829" on="0"/>
        <pt x="2324" y="1734" on="1"/>
        <pt x="2324" y="1705" on="0"/>
        <pt x="2317" y="1674" on="1"/>
        <pt x="2248" y="1399" on="0"/>
        <pt x="2141" y="1220" on="1"/>
        <pt x="2217" y="1102" on="0"/>
        <pt x="2217" y="966" on="1"/>
        <pt x="2217" y="908" on="0"/>
        <pt x="2203" y="846" on="1"/>
        <pt x="2067" y="174" on="1"/>
        <pt x="2028" y="0" on="0"/>
        <pt x="1870" y="0" on="1"/>
        <pt x="1757" y="0" on="0"/>
        <pt x="1726" y="100" on="1"/>
        <pt x="1722" y="113" on="0"/>
        <pt x="1722" y="130" on="1"/>
        <pt x="1722" y="243" on="0"/>
        <pt x="1899" y="536" on="1"/>
        <pt x="1806" y="301" on="0"/>
        <pt x="1806" y="226" on="1"/>
        <pt x="1806" y="212" on="0"/>
        <pt x="1809" y="204" on="1"/>
        <pt x="1829" y="150" on="0"/>
        <pt x="1871" y="150" on="1"/>
        <pt x="1907" y="150" on="0"/>
        <pt x="1920" y="209" on="1"/>
        <pt x="2057" y="876" on="1"/>
        <pt x="2066" y="917" on="0"/>
        <pt x="2066" y="957" on="1"/>
        <pt x="2066" y="1022" on="0"/>
        <pt x="2041" y="1082" on="1"/>
        <pt x="2036" y="1076" on="0"/>
        <pt x="2030" y="1070" on="1"/>
      </contour>
    </TTGlyph>
    <TTGlyph name="uni1786" xMin="150" yMin="0" xMax="1750" yMax="1501">
      <contour>
        <pt x="300" y="300" on="0"/>
        <pt x="300" y="250" on="1"/>
        <pt x="300" y="150" on="0"/>
        <pt x="350" y="150" on="1"/>
        <pt x="399" y="150" on="0"/>
        <pt x="420" y="250" on="1"/>
        <pt x="442" y="350" on="1"/>
        <pt x="401" y="350" on="1"/>
        <pt x="350" y="350" on="0"/>
        <pt x="325" y="325" on="1"/>
      </contour>
      <contour>
        <pt x="1438" y="518" on="1"/>
        <pt x="1484" y="734" on="1"/>
        <pt x="1488" y="757" on="0"/>
        <pt x="1488" y="776" on="1"/>
        <pt x="1488" y="803" on="0"/>
        <pt x="1479" y="820" on="1"/>
        <pt x="1464" y="848" on="0"/>
        <pt x="1422" y="848" on="1"/>
        <pt x="1379" y="848" on="0"/>
        <pt x="1339" y="816" on="0"/>
        <pt x="1326" y="766" on="1"/>
        <pt x="1323" y="749" on="0"/>
        <pt x="1323" y="737" on="1"/>
        <pt x="1323" y="700" on="0"/>
        <pt x="1351" y="700" on="1"/>
        <pt x="1352" y="700" on="1"/>
        <pt x="1403" y="700" on="0"/>
        <pt x="1403" y="626" on="1"/>
        <pt x="1403" y="551" on="0"/>
        <pt x="1352" y="550" on="1"/>
        <pt x="1241" y="550" on="0"/>
        <pt x="1199" y="615" on="1"/>
        <pt x="1171" y="659" on="0"/>
        <pt x="1171" y="723" on="1"/>
        <pt x="1171" y="755" on="0"/>
        <pt x="1178" y="792" on="1"/>
        <pt x="1205" y="904" on="0"/>
        <pt x="1319" y="998" on="0"/>
        <pt x="1422" y="998" on="1"/>
        <pt x="1529" y="998" on="0"/>
        <pt x="1596" y="922" on="1"/>
        <pt x="1643" y="870" on="0"/>
        <pt x="1643" y="786" on="1"/>
        <pt x="1643" y="750" on="0"/>
        <pt x="1634" y="708" on="1"/>
        <pt x="1588" y="494" on="1"/>
        <pt x="1526" y="223" on="0"/>
        <pt x="1452" y="139" on="1"/>
        <pt x="1330" y="0" on="0"/>
        <pt x="1205" y="0" on="1"/>
        <pt x="1075" y="0" on="0"/>
        <pt x="938" y="172" on="1"/>
        <pt x="855" y="275" on="0"/>
        <pt x="792" y="312" on="1"/>
        <pt x="729" y="350" on="0"/>
        <pt x="622" y="350" on="1"/>
        <pt x="595" y="350" on="1"/>
        <pt x="572" y="229" on="1"/>
        <pt x="546" y="114" on="0"/>
        <pt x="491" y="57" on="1"/>
        <pt x="435" y="0" on="0"/>
        <pt x="350" y="0" on="1"/>
        <pt x="250" y="0" on="0"/>
        <pt x="200" y="62" on="1"/>
        <pt x="150" y="125" on="0"/>
        <pt x="150" y="250" on="1"/>
        <pt x="150" y="375" on="0"/>
        <pt x="213" y="438" on="1"/>
        <pt x="275" y="500" on="0"/>
        <pt x="401" y="500" on="1"/>
        <pt x="473" y="500" on="1"/>
        <pt x="602" y="1100" on="1"/>
        <pt x="604" y="1112" on="0"/>
        <pt x="604" y="1123" on="1"/>
        <pt x="604" y="1164" on="0"/>
        <pt x="572" y="1186" on="1"/>
        <pt x="450" y="1268" on="0"/>
        <pt x="450" y="1350" on="1"/>
        <pt x="451" y="1501" on="0"/>
        <pt x="751" y="1501" on="1"/>
        <pt x="1601" y="1501" on="1"/>
        <pt x="1750" y="1501" on="0"/>
        <pt x="1750" y="1426" on="1"/>
        <pt x="1750" y="1351" on="0"/>
        <pt x="1600" y="1351" on="1"/>
        <pt x="751" y="1351" on="1"/>
        <pt x="611" y="1351" on="0"/>
        <pt x="611" y="1297" on="1"/>
        <pt x="611" y="1287" on="0"/>
        <pt x="616" y="1274" on="1"/>
        <pt x="736" y="1057" on="0"/>
        <pt x="736" y="1007" on="1"/>
        <pt x="736" y="1004" on="0"/>
        <pt x="735" y="1001" on="1"/>
        <pt x="627" y="500" on="1"/>
        <pt x="762" y="500" on="0"/>
        <pt x="863" y="447" on="1"/>
        <pt x="964" y="394" on="0"/>
        <pt x="1054" y="272" on="1"/>
        <pt x="1143" y="150" on="0"/>
        <pt x="1205" y="150" on="1"/>
        <pt x="1269" y="150" on="0"/>
        <pt x="1330" y="230" on="1"/>
        <pt x="1392" y="311" on="0"/>
      </contour>
    </TTGlyph>
    <TTGlyph name="uni178617B6" xMin="150" yMin="0" xMax="2500" yMax="1501">
      <contour>
        <pt x="300" y="300" on="0"/>
        <pt x="300" y="250" on="1"/>
        <pt x="300" y="150" on="0"/>
        <pt x="350" y="150" on="1"/>
        <pt x="399" y="150" on="0"/>
        <pt x="420" y="250" on="1"/>
        <pt x="442" y="350" on="1"/>
        <pt x="401" y="350" on="1"/>
        <pt x="350" y="350" on="0"/>
        <pt x="325" y="325" on="1"/>
      </contour>
      <contour>
        <pt x="1438" y="518" on="1"/>
        <pt x="1484" y="734" on="1"/>
        <pt x="1488" y="757" on="0"/>
        <pt x="1488" y="776" on="1"/>
        <pt x="1488" y="803" on="0"/>
        <pt x="1479" y="820" on="1"/>
        <pt x="1464" y="848" on="0"/>
        <pt x="1422" y="848" on="1"/>
        <pt x="1379" y="848" on="0"/>
        <pt x="1339" y="816" on="0"/>
        <pt x="1326" y="766" on="1"/>
        <pt x="1323" y="749" on="0"/>
        <pt x="1323" y="737" on="1"/>
        <pt x="1323" y="700" on="0"/>
        <pt x="1351" y="700" on="1"/>
        <pt x="1352" y="700" on="1"/>
        <pt x="1403" y="700" on="0"/>
        <pt x="1403" y="626" on="1"/>
        <pt x="1403" y="551" on="0"/>
        <pt x="1352" y="550" on="1"/>
        <pt x="1241" y="550" on="0"/>
        <pt x="1199" y="615" on="1"/>
        <pt x="1171" y="659" on="0"/>
        <pt x="1171" y="723" on="1"/>
        <pt x="1171" y="755" on="0"/>
        <pt x="1178" y="792" on="1"/>
        <pt x="1205" y="904" on="0"/>
        <pt x="1319" y="998" on="0"/>
        <pt x="1422" y="998" on="1"/>
        <pt x="1529" y="998" on="0"/>
        <pt x="1596" y="922" on="1"/>
        <pt x="1643" y="870" on="0"/>
        <pt x="1643" y="786" on="1"/>
        <pt x="1643" y="750" on="0"/>
        <pt x="1634" y="708" on="1"/>
        <pt x="1588" y="494" on="1"/>
        <pt x="1526" y="223" on="0"/>
        <pt x="1452" y="139" on="1"/>
        <pt x="1330" y="0" on="0"/>
        <pt x="1205" y="0" on="1"/>
        <pt x="1075" y="0" on="0"/>
        <pt x="938" y="172" on="1"/>
        <pt x="855" y="275" on="0"/>
        <pt x="792" y="312" on="1"/>
        <pt x="729" y="350" on="0"/>
        <pt x="622" y="350" on="1"/>
        <pt x="595" y="350" on="1"/>
        <pt x="572" y="229" on="1"/>
        <pt x="546" y="114" on="0"/>
        <pt x="491" y="57" on="1"/>
        <pt x="435" y="0" on="0"/>
        <pt x="350" y="0" on="1"/>
        <pt x="250" y="0" on="0"/>
        <pt x="200" y="62" on="1"/>
        <pt x="150" y="125" on="0"/>
        <pt x="150" y="250" on="1"/>
        <pt x="150" y="375" on="0"/>
        <pt x="213" y="438" on="1"/>
        <pt x="275" y="500" on="0"/>
        <pt x="401" y="500" on="1"/>
        <pt x="473" y="500" on="1"/>
        <pt x="602" y="1100" on="1"/>
        <pt x="604" y="1112" on="0"/>
        <pt x="604" y="1123" on="1"/>
        <pt x="604" y="1164" on="0"/>
        <pt x="572" y="1186" on="1"/>
        <pt x="450" y="1268" on="0"/>
        <pt x="450" y="1350" on="1"/>
        <pt x="451" y="1501" on="0"/>
        <pt x="751" y="1501" on="1"/>
        <pt x="1691" y="1501" on="1"/>
        <pt x="2174" y="1500" on="0"/>
        <pt x="2359" y="1302" on="1"/>
        <pt x="2500" y="1151" on="0"/>
        <pt x="2500" y="966" on="1"/>
        <pt x="2500" y="908" on="0"/>
        <pt x="2486" y="846" on="1"/>
        <pt x="2350" y="174" on="1"/>
        <pt x="2311" y="0" on="0"/>
        <pt x="2153" y="0" on="1"/>
        <pt x="2040" y="0" on="0"/>
        <pt x="2009" y="100" on="1"/>
        <pt x="2005" y="113" on="0"/>
        <pt x="2005" y="130" on="1"/>
        <pt x="2005" y="243" on="0"/>
        <pt x="2182" y="536" on="1"/>
        <pt x="2089" y="301" on="0"/>
        <pt x="2089" y="226" on="1"/>
        <pt x="2089" y="212" on="0"/>
        <pt x="2092" y="204" on="1"/>
        <pt x="2112" y="150" on="0"/>
        <pt x="2154" y="150" on="1"/>
        <pt x="2190" y="150" on="0"/>
        <pt x="2203" y="209" on="1"/>
        <pt x="2340" y="876" on="1"/>
        <pt x="2349" y="918" on="0"/>
        <pt x="2349" y="957" on="1"/>
        <pt x="2349" y="1092" on="0"/>
        <pt x="2244" y="1204" on="1"/>
        <pt x="2108" y="1350" on="0"/>
        <pt x="1690" y="1351" on="1"/>
        <pt x="751" y="1351" on="1"/>
        <pt x="611" y="1351" on="0"/>
        <pt x="611" y="1297" on="1"/>
        <pt x="611" y="1287" on="0"/>
        <pt x="616" y="1274" on="1"/>
        <pt x="736" y="1057" on="0"/>
        <pt x="736" y="1007" on="1"/>
        <pt x="736" y="1004" on="0"/>
        <pt x="735" y="1001" on="1"/>
        <pt x="627" y="500" on="1"/>
        <pt x="762" y="500" on="0"/>
        <pt x="863" y="447" on="1"/>
        <pt x="964" y="394" on="0"/>
        <pt x="1054" y="272" on="1"/>
        <pt x="1143" y="150" on="0"/>
        <pt x="1205" y="150" on="1"/>
        <pt x="1269" y="150" on="0"/>
        <pt x="1330" y="230" on="1"/>
        <pt x="1392" y="311" on="0"/>
      </contour>
    </TTGlyph>
    <TTGlyph name="uni178617C5" xMin="150" yMin="0" xMax="2607" yMax="2000">
      <contour>
        <pt x="300" y="250" on="1"/>
        <pt x="300" y="150" on="0"/>
        <pt x="350" y="150" on="1"/>
        <pt x="399" y="150" on="0"/>
        <pt x="420" y="250" on="1"/>
        <pt x="442" y="350" on="1"/>
        <pt x="401" y="350" on="1"/>
        <pt x="350" y="350" on="0"/>
        <pt x="325" y="325" on="1"/>
        <pt x="300" y="300" on="0"/>
      </contour>
      <contour>
        <pt x="2319" y="1096" on="1"/>
        <pt x="2293" y="1152" on="0"/>
        <pt x="2244" y="1204" on="1"/>
        <pt x="2108" y="1350" on="0"/>
        <pt x="1690" y="1351" on="1"/>
        <pt x="751" y="1351" on="1"/>
        <pt x="611" y="1351" on="0"/>
        <pt x="611" y="1297" on="1"/>
        <pt x="611" y="1287" on="0"/>
        <pt x="616" y="1274" on="1"/>
        <pt x="736" y="1057" on="0"/>
        <pt x="736" y="1007" on="1"/>
        <pt x="736" y="1004" on="0"/>
        <pt x="735" y="1001" on="1"/>
        <pt x="627" y="500" on="1"/>
        <pt x="762" y="500" on="0"/>
        <pt x="863" y="447" on="1"/>
        <pt x="964" y="394" on="0"/>
        <pt x="1054" y="272" on="1"/>
        <pt x="1143" y="150" on="0"/>
        <pt x="1205" y="150" on="1"/>
        <pt x="1269" y="150" on="0"/>
        <pt x="1330" y="230" on="1"/>
        <pt x="1392" y="311" on="0"/>
        <pt x="1438" y="518" on="1"/>
        <pt x="1484" y="734" on="1"/>
        <pt x="1488" y="757" on="0"/>
        <pt x="1488" y="776" on="1"/>
        <pt x="1488" y="803" on="0"/>
        <pt x="1479" y="820" on="1"/>
        <pt x="1464" y="848" on="0"/>
        <pt x="1422" y="848" on="1"/>
        <pt x="1379" y="848" on="0"/>
        <pt x="1339" y="816" on="0"/>
        <pt x="1326" y="766" on="1"/>
        <pt x="1323" y="749" on="0"/>
        <pt x="1323" y="737" on="1"/>
        <pt x="1323" y="700" on="0"/>
        <pt x="1351" y="700" on="1"/>
        <pt x="1352" y="700" on="1"/>
        <pt x="1403" y="700" on="0"/>
        <pt x="1403" y="626" on="1"/>
        <pt x="1403" y="551" on="0"/>
        <pt x="1352" y="550" on="1"/>
        <pt x="1241" y="550" on="0"/>
        <pt x="1199" y="615" on="1"/>
        <pt x="1171" y="659" on="0"/>
        <pt x="1171" y="723" on="1"/>
        <pt x="1171" y="755" on="0"/>
        <pt x="1178" y="792" on="1"/>
        <pt x="1205" y="904" on="0"/>
        <pt x="1319" y="998" on="0"/>
        <pt x="1422" y="998" on="1"/>
        <pt x="1529" y="998" on="0"/>
        <pt x="1596" y="922" on="1"/>
        <pt x="1643" y="870" on="0"/>
        <pt x="1643" y="786" on="1"/>
        <pt x="1643" y="750" on="0"/>
        <pt x="1634" y="708" on="1"/>
        <pt x="1588" y="494" on="1"/>
        <pt x="1526" y="223" on="0"/>
        <pt x="1452" y="139" on="1"/>
        <pt x="1330" y="0" on="0"/>
        <pt x="1205" y="0" on="1"/>
        <pt x="1075" y="0" on="0"/>
        <pt x="938" y="172" on="1"/>
        <pt x="855" y="275" on="0"/>
        <pt x="792" y="312" on="1"/>
        <pt x="729" y="350" on="0"/>
        <pt x="622" y="350" on="1"/>
        <pt x="595" y="350" on="1"/>
        <pt x="572" y="229" on="1"/>
        <pt x="546" y="114" on="0"/>
        <pt x="491" y="57" on="1"/>
        <pt x="435" y="0" on="0"/>
        <pt x="350" y="0" on="1"/>
        <pt x="250" y="0" on="0"/>
        <pt x="200" y="62" on="1"/>
        <pt x="150" y="125" on="0"/>
        <pt x="150" y="250" on="1"/>
        <pt x="150" y="375" on="0"/>
        <pt x="213" y="438" on="1"/>
        <pt x="275" y="500" on="0"/>
        <pt x="401" y="500" on="1"/>
        <pt x="473" y="500" on="1"/>
        <pt x="602" y="1100" on="1"/>
        <pt x="604" y="1112" on="0"/>
        <pt x="604" y="1123" on="1"/>
        <pt x="604" y="1164" on="0"/>
        <pt x="572" y="1186" on="1"/>
        <pt x="450" y="1268" on="0"/>
        <pt x="450" y="1350" on="1"/>
        <pt x="451" y="1501" on="0"/>
        <pt x="751" y="1501" on="1"/>
        <pt x="1691" y="1501" on="1"/>
        <pt x="2174" y="1500" on="0"/>
        <pt x="2359" y="1302" on="1"/>
        <pt x="2361" y="1300" on="0"/>
        <pt x="2363" y="1297" on="1"/>
        <pt x="2453" y="1701" on="1"/>
        <pt x="2456" y="1713" on="0"/>
        <pt x="2456" y="1725" on="1"/>
        <pt x="2456" y="1769" on="0"/>
        <pt x="2421" y="1805" on="1"/>
        <pt x="2377" y="1850" on="0"/>
        <pt x="2318" y="1850" on="1"/>
        <pt x="2119" y="1850" on="1"/>
        <pt x="2020" y="1850" on="0"/>
        <pt x="2020" y="1925" on="1"/>
        <pt x="2020" y="2000" on="0"/>
        <pt x="2120" y="2000" on="1"/>
        <pt x="2321" y="2000" on="1"/>
        <pt x="2441" y="2000" on="0"/>
        <pt x="2535" y="1903" on="1"/>
        <pt x="2607" y="1829" on="0"/>
        <pt x="2607" y="1734" on="1"/>
        <pt x="2607" y="1705" on="0"/>
        <pt x="2600" y="1674" on="1"/>
        <pt x="2531" y="1399" on="0"/>
        <pt x="2424" y="1220" on="1"/>
        <pt x="2500" y="1102" on="0"/>
        <pt x="2500" y="966" on="1"/>
        <pt x="2500" y="908" on="0"/>
        <pt x="2486" y="846" on="1"/>
        <pt x="2350" y="174" on="1"/>
        <pt x="2311" y="0" on="0"/>
        <pt x="2153" y="0" on="1"/>
        <pt x="2040" y="0" on="0"/>
        <pt x="2009" y="100" on="1"/>
        <pt x="2005" y="113" on="0"/>
        <pt x="2005" y="130" on="1"/>
        <pt x="2005" y="243" on="0"/>
        <pt x="2182" y="536" on="1"/>
        <pt x="2089" y="301" on="0"/>
        <pt x="2089" y="226" on="1"/>
        <pt x="2089" y="212" on="0"/>
        <pt x="2092" y="204" on="1"/>
        <pt x="2112" y="150" on="0"/>
        <pt x="2154" y="150" on="1"/>
        <pt x="2190" y="150" on="0"/>
        <pt x="2203" y="209" on="1"/>
        <pt x="2340" y="876" on="1"/>
        <pt x="2349" y="917" on="0"/>
        <pt x="2349" y="957" on="1"/>
        <pt x="2349" y="1022" on="0"/>
        <pt x="2324" y="1082" on="1"/>
        <pt x="2319" y="1076" on="0"/>
        <pt x="2313" y="1070" on="1"/>
      </contour>
    </TTGlyph>
    <TTGlyph name="uni1787" xMin="216" yMin="0" xMax="1575" yMax="2001">
      <contour>
        <pt x="508" y="366" on="1"/>
        <pt x="542" y="400" on="0"/>
        <pt x="625" y="400" on="1"/>
        <pt x="728" y="400" on="0"/>
        <pt x="826" y="307" on="1"/>
        <pt x="1011" y="150" on="1"/>
        <pt x="1038" y="150" on="0"/>
        <pt x="1080" y="188" on="1"/>
        <pt x="1121" y="227" on="0"/>
        <pt x="1138" y="303" on="1"/>
        <pt x="1224" y="700" on="1"/>
        <pt x="1236" y="755" on="0"/>
        <pt x="1236" y="799" on="1"/>
        <pt x="1236" y="832" on="0"/>
        <pt x="1229" y="859" on="1"/>
        <pt x="1213" y="921" on="0"/>
        <pt x="1162" y="1005" on="1"/>
        <pt x="1262" y="982" on="0"/>
        <pt x="1336" y="902" on="1"/>
        <pt x="1384" y="850" on="0"/>
        <pt x="1384" y="766" on="1"/>
        <pt x="1384" y="722" on="0"/>
        <pt x="1371" y="669" on="1"/>
        <pt x="1287" y="280" on="1"/>
        <pt x="1257" y="140" on="0"/>
        <pt x="1178" y="70" on="1"/>
        <pt x="1099" y="0" on="0"/>
        <pt x="1005" y="0" on="1"/>
        <pt x="931" y="0" on="0"/>
        <pt x="739" y="200" on="1"/>
        <pt x="685" y="250" on="0"/>
        <pt x="624" y="250" on="1"/>
        <pt x="563" y="250" on="0"/>
        <pt x="508" y="150" on="1"/>
        <pt x="422" y="0" on="0"/>
        <pt x="349" y="0" on="1"/>
        <pt x="291" y="0" on="0"/>
        <pt x="291" y="58" on="1"/>
        <pt x="291" y="73" on="0"/>
        <pt x="295" y="92" on="1"/>
        <pt x="315" y="184" on="1"/>
        <pt x="478" y="938" on="1"/>
        <pt x="331" y="1005" on="0"/>
        <pt x="266" y="1082" on="1"/>
        <pt x="216" y="1142" on="0"/>
        <pt x="216" y="1208" on="1"/>
        <pt x="216" y="1227" on="0"/>
        <pt x="220" y="1246" on="1"/>
        <pt x="247" y="1373" on="0"/>
        <pt x="320" y="1436" on="1"/>
        <pt x="393" y="1500" on="0"/>
        <pt x="649" y="1500" on="1"/>
        <pt x="665" y="1500" on="1"/>
        <pt x="908" y="1500" on="0"/>
        <pt x="1031" y="1471" on="1"/>
        <pt x="1125" y="1449" on="0"/>
        <pt x="1210" y="1449" on="1"/>
        <pt x="1242" y="1449" on="0"/>
        <pt x="1272" y="1452" on="1"/>
        <pt x="1385" y="1462" on="0"/>
        <pt x="1415" y="1596" on="1"/>
        <pt x="1422" y="1629" on="0"/>
        <pt x="1422" y="1661" on="1"/>
        <pt x="1422" y="1753" on="0"/>
        <pt x="1361" y="1828" on="1"/>
        <pt x="1280" y="1929" on="0"/>
        <pt x="1089" y="2001" on="1"/>
        <pt x="1372" y="2000" on="0"/>
        <pt x="1490" y="1892" on="1"/>
        <pt x="1575" y="1814" on="0"/>
        <pt x="1575" y="1680" on="1"/>
        <pt x="1575" y="1628" on="0"/>
        <pt x="1562" y="1567" on="1"/>
        <pt x="1513" y="1341" on="0"/>
        <pt x="1321" y="1316" on="1"/>
        <pt x="1233" y="1305" on="0"/>
        <pt x="1159" y="1305" on="1"/>
        <pt x="1070" y="1305" on="0"/>
        <pt x="1001" y="1321" on="1"/>
        <pt x="877" y="1350" on="0"/>
        <pt x="678" y="1350" on="1"/>
        <pt x="665" y="1350" on="1"/>
        <pt x="456" y="1350" on="0"/>
        <pt x="419" y="1319" on="1"/>
        <pt x="383" y="1288" on="0"/>
        <pt x="370" y="1227" on="1"/>
        <pt x="368" y="1217" on="0"/>
        <pt x="368" y="1206" on="1"/>
        <pt x="368" y="1153" on="0"/>
        <pt x="422" y="1090" on="1"/>
        <pt x="486" y="1014" on="0"/>
        <pt x="628" y="924" on="1"/>
      </contour>
    </TTGlyph>
    <TTGlyph name="uni178717B6" xMin="216" yMin="0" xMax="2249" yMax="2001">
      <contour>
        <pt x="1425" y="1350" on="1"/>
        <pt x="1380" y="1324" on="0"/>
        <pt x="1321" y="1316" on="1"/>
        <pt x="1233" y="1305" on="0"/>
        <pt x="1159" y="1305" on="1"/>
        <pt x="1070" y="1305" on="0"/>
        <pt x="1001" y="1321" on="1"/>
        <pt x="877" y="1350" on="0"/>
        <pt x="678" y="1350" on="1"/>
        <pt x="665" y="1350" on="1"/>
        <pt x="456" y="1350" on="0"/>
        <pt x="419" y="1319" on="1"/>
        <pt x="383" y="1288" on="0"/>
        <pt x="370" y="1227" on="1"/>
        <pt x="368" y="1217" on="0"/>
        <pt x="368" y="1206" on="1"/>
        <pt x="368" y="1153" on="0"/>
        <pt x="422" y="1090" on="1"/>
        <pt x="486" y="1014" on="0"/>
        <pt x="628" y="924" on="1"/>
        <pt x="508" y="366" on="1"/>
        <pt x="542" y="400" on="0"/>
        <pt x="625" y="400" on="1"/>
        <pt x="728" y="400" on="0"/>
        <pt x="826" y="307" on="1"/>
        <pt x="1011" y="150" on="1"/>
        <pt x="1038" y="150" on="0"/>
        <pt x="1080" y="188" on="1"/>
        <pt x="1121" y="227" on="0"/>
        <pt x="1138" y="303" on="1"/>
        <pt x="1224" y="700" on="1"/>
        <pt x="1236" y="755" on="0"/>
        <pt x="1236" y="799" on="1"/>
        <pt x="1236" y="832" on="0"/>
        <pt x="1229" y="859" on="1"/>
        <pt x="1213" y="921" on="0"/>
        <pt x="1162" y="1005" on="1"/>
        <pt x="1262" y="982" on="0"/>
        <pt x="1336" y="902" on="1"/>
        <pt x="1384" y="850" on="0"/>
        <pt x="1384" y="766" on="1"/>
        <pt x="1384" y="722" on="0"/>
        <pt x="1371" y="669" on="1"/>
        <pt x="1287" y="280" on="1"/>
        <pt x="1257" y="140" on="0"/>
        <pt x="1178" y="70" on="1"/>
        <pt x="1099" y="0" on="0"/>
        <pt x="1005" y="0" on="1"/>
        <pt x="931" y="0" on="0"/>
        <pt x="739" y="200" on="1"/>
        <pt x="685" y="250" on="0"/>
        <pt x="624" y="250" on="1"/>
        <pt x="563" y="250" on="0"/>
        <pt x="508" y="150" on="1"/>
        <pt x="422" y="0" on="0"/>
        <pt x="349" y="0" on="1"/>
        <pt x="291" y="0" on="0"/>
        <pt x="291" y="58" on="1"/>
        <pt x="291" y="73" on="0"/>
        <pt x="295" y="92" on="1"/>
        <pt x="315" y="184" on="1"/>
        <pt x="478" y="938" on="1"/>
        <pt x="331" y="1005" on="0"/>
        <pt x="266" y="1082" on="1"/>
        <pt x="216" y="1142" on="0"/>
        <pt x="216" y="1208" on="1"/>
        <pt x="216" y="1227" on="0"/>
        <pt x="220" y="1246" on="1"/>
        <pt x="247" y="1373" on="0"/>
        <pt x="320" y="1436" on="1"/>
        <pt x="393" y="1500" on="0"/>
        <pt x="649" y="1500" on="1"/>
        <pt x="665" y="1500" on="1"/>
        <pt x="908" y="1500" on="0"/>
        <pt x="1031" y="1471" on="1"/>
        <pt x="1125" y="1449" on="0"/>
        <pt x="1210" y="1449" on="1"/>
        <pt x="1242" y="1449" on="0"/>
        <pt x="1272" y="1452" on="1"/>
        <pt x="1385" y="1462" on="0"/>
        <pt x="1415" y="1596" on="1"/>
        <pt x="1422" y="1629" on="0"/>
        <pt x="1422" y="1661" on="1"/>
        <pt x="1422" y="1753" on="0"/>
        <pt x="1361" y="1828" on="1"/>
        <pt x="1280" y="1929" on="0"/>
        <pt x="1089" y="2001" on="1"/>
        <pt x="1372" y="2000" on="0"/>
        <pt x="1490" y="1892" on="1"/>
        <pt x="1575" y="1814" on="0"/>
        <pt x="1575" y="1680" on="1"/>
        <pt x="1575" y="1628" on="0"/>
        <pt x="1562" y="1567" on="1"/>
        <pt x="1554" y="1531" on="0"/>
        <pt x="1543" y="1500" on="1"/>
        <pt x="1610" y="1500" on="1"/>
        <pt x="1923" y="1500" on="0"/>
        <pt x="2108" y="1302" on="1"/>
        <pt x="2249" y="1151" on="0"/>
        <pt x="2249" y="966" on="1"/>
        <pt x="2249" y="908" on="0"/>
        <pt x="2235" y="846" on="1"/>
        <pt x="2099" y="174" on="1"/>
        <pt x="2060" y="0" on="0"/>
        <pt x="1902" y="0" on="1"/>
        <pt x="1789" y="0" on="0"/>
        <pt x="1758" y="100" on="1"/>
        <pt x="1754" y="113" on="0"/>
        <pt x="1754" y="130" on="1"/>
        <pt x="1754" y="243" on="0"/>
        <pt x="1931" y="536" on="1"/>
        <pt x="1838" y="301" on="0"/>
        <pt x="1838" y="226" on="1"/>
        <pt x="1838" y="212" on="0"/>
        <pt x="1841" y="204" on="1"/>
        <pt x="1861" y="150" on="0"/>
        <pt x="1903" y="150" on="1"/>
        <pt x="1939" y="150" on="0"/>
        <pt x="1952" y="209" on="1"/>
        <pt x="2089" y="876" on="1"/>
        <pt x="2098" y="918" on="0"/>
        <pt x="2098" y="957" on="1"/>
        <pt x="2098" y="1092" on="0"/>
        <pt x="1993" y="1204" on="1"/>
        <pt x="1857" y="1350" on="0"/>
        <pt x="1609" y="1350" on="1"/>
      </contour>
    </TTGlyph>
    <TTGlyph name="uni178717C5" xMin="216" yMin="0" xMax="2356" yMax="2001">
      <contour>
        <pt x="1425" y="1350" on="1"/>
        <pt x="1380" y="1324" on="0"/>
        <pt x="1321" y="1316" on="1"/>
        <pt x="1233" y="1305" on="0"/>
        <pt x="1159" y="1305" on="1"/>
        <pt x="1070" y="1305" on="0"/>
        <pt x="1001" y="1321" on="1"/>
        <pt x="877" y="1350" on="0"/>
        <pt x="678" y="1350" on="1"/>
        <pt x="665" y="1350" on="1"/>
        <pt x="456" y="1350" on="0"/>
        <pt x="419" y="1319" on="1"/>
        <pt x="383" y="1288" on="0"/>
        <pt x="370" y="1227" on="1"/>
        <pt x="368" y="1217" on="0"/>
        <pt x="368" y="1206" on="1"/>
        <pt x="368" y="1153" on="0"/>
        <pt x="422" y="1090" on="1"/>
        <pt x="486" y="1014" on="0"/>
        <pt x="628" y="924" on="1"/>
        <pt x="508" y="366" on="1"/>
        <pt x="542" y="400" on="0"/>
        <pt x="625" y="400" on="1"/>
        <pt x="728" y="400" on="0"/>
        <pt x="826" y="307" on="1"/>
        <pt x="1011" y="150" on="1"/>
        <pt x="1038" y="150" on="0"/>
        <pt x="1080" y="188" on="1"/>
        <pt x="1121" y="227" on="0"/>
        <pt x="1138" y="303" on="1"/>
        <pt x="1224" y="700" on="1"/>
        <pt x="1236" y="755" on="0"/>
        <pt x="1236" y="799" on="1"/>
        <pt x="1236" y="832" on="0"/>
        <pt x="1229" y="859" on="1"/>
        <pt x="1213" y="921" on="0"/>
        <pt x="1162" y="1005" on="1"/>
        <pt x="1262" y="982" on="0"/>
        <pt x="1336" y="902" on="1"/>
        <pt x="1384" y="850" on="0"/>
        <pt x="1384" y="766" on="1"/>
        <pt x="1384" y="722" on="0"/>
        <pt x="1371" y="669" on="1"/>
        <pt x="1287" y="280" on="1"/>
        <pt x="1257" y="140" on="0"/>
        <pt x="1178" y="70" on="1"/>
        <pt x="1099" y="0" on="0"/>
        <pt x="1005" y="0" on="1"/>
        <pt x="931" y="0" on="0"/>
        <pt x="739" y="200" on="1"/>
        <pt x="685" y="250" on="0"/>
        <pt x="624" y="250" on="1"/>
        <pt x="563" y="250" on="0"/>
        <pt x="508" y="150" on="1"/>
        <pt x="422" y="0" on="0"/>
        <pt x="349" y="0" on="1"/>
        <pt x="291" y="0" on="0"/>
        <pt x="291" y="58" on="1"/>
        <pt x="291" y="73" on="0"/>
        <pt x="295" y="92" on="1"/>
        <pt x="315" y="184" on="1"/>
        <pt x="478" y="938" on="1"/>
        <pt x="331" y="1005" on="0"/>
        <pt x="266" y="1082" on="1"/>
        <pt x="216" y="1142" on="0"/>
        <pt x="216" y="1208" on="1"/>
        <pt x="216" y="1227" on="0"/>
        <pt x="220" y="1246" on="1"/>
        <pt x="247" y="1373" on="0"/>
        <pt x="320" y="1436" on="1"/>
        <pt x="393" y="1500" on="0"/>
        <pt x="649" y="1500" on="1"/>
        <pt x="665" y="1500" on="1"/>
        <pt x="908" y="1500" on="0"/>
        <pt x="1031" y="1471" on="1"/>
        <pt x="1125" y="1449" on="0"/>
        <pt x="1210" y="1449" on="1"/>
        <pt x="1242" y="1449" on="0"/>
        <pt x="1272" y="1452" on="1"/>
        <pt x="1385" y="1462" on="0"/>
        <pt x="1415" y="1596" on="1"/>
        <pt x="1422" y="1629" on="0"/>
        <pt x="1422" y="1661" on="1"/>
        <pt x="1422" y="1753" on="0"/>
        <pt x="1361" y="1828" on="1"/>
        <pt x="1280" y="1929" on="0"/>
        <pt x="1089" y="2001" on="1"/>
        <pt x="1372" y="2000" on="0"/>
        <pt x="1490" y="1892" on="1"/>
        <pt x="1575" y="1814" on="0"/>
        <pt x="1575" y="1680" on="1"/>
        <pt x="1575" y="1628" on="0"/>
        <pt x="1562" y="1567" on="1"/>
        <pt x="1554" y="1531" on="0"/>
        <pt x="1543" y="1500" on="1"/>
        <pt x="1610" y="1500" on="1"/>
        <pt x="1923" y="1500" on="0"/>
        <pt x="2108" y="1302" on="1"/>
        <pt x="2110" y="1300" on="0"/>
        <pt x="2112" y="1297" on="1"/>
        <pt x="2202" y="1701" on="1"/>
        <pt x="2205" y="1713" on="0"/>
        <pt x="2205" y="1725" on="1"/>
        <pt x="2205" y="1769" on="0"/>
        <pt x="2170" y="1805" on="1"/>
        <pt x="2126" y="1850" on="0"/>
        <pt x="2067" y="1850" on="1"/>
        <pt x="1868" y="1850" on="1"/>
        <pt x="1769" y="1850" on="0"/>
        <pt x="1769" y="1925" on="1"/>
        <pt x="1769" y="2000" on="0"/>
        <pt x="1869" y="2000" on="1"/>
        <pt x="2070" y="2000" on="1"/>
        <pt x="2190" y="2000" on="0"/>
        <pt x="2284" y="1903" on="1"/>
        <pt x="2356" y="1829" on="0"/>
        <pt x="2356" y="1734" on="1"/>
        <pt x="2356" y="1705" on="0"/>
        <pt x="2349" y="1674" on="1"/>
        <pt x="2280" y="1399" on="0"/>
        <pt x="2173" y="1220" on="1"/>
        <pt x="2249" y="1102" on="0"/>
        <pt x="2249" y="966" on="1"/>
        <pt x="2249" y="908" on="0"/>
        <pt x="2235" y="846" on="1"/>
        <pt x="2099" y="174" on="1"/>
        <pt x="2060" y="0" on="0"/>
        <pt x="1902" y="0" on="1"/>
        <pt x="1789" y="0" on="0"/>
        <pt x="1758" y="100" on="1"/>
        <pt x="1754" y="113" on="0"/>
        <pt x="1754" y="130" on="1"/>
        <pt x="1754" y="243" on="0"/>
        <pt x="1931" y="536" on="1"/>
        <pt x="1838" y="301" on="0"/>
        <pt x="1838" y="226" on="1"/>
        <pt x="1838" y="212" on="0"/>
        <pt x="1841" y="204" on="1"/>
        <pt x="1861" y="150" on="0"/>
        <pt x="1903" y="150" on="1"/>
        <pt x="1939" y="150" on="0"/>
        <pt x="1952" y="209" on="1"/>
        <pt x="2089" y="876" on="1"/>
        <pt x="2098" y="917" on="0"/>
        <pt x="2098" y="957" on="1"/>
        <pt x="2098" y="1022" on="0"/>
        <pt x="2073" y="1082" on="1"/>
        <pt x="2068" y="1076" on="0"/>
        <pt x="2062" y="1070" on="1"/>
        <pt x="2068" y="1096" on="1"/>
        <pt x="2042" y="1152" on="0"/>
        <pt x="1993" y="1204" on="1"/>
        <pt x="1857" y="1350" on="0"/>
        <pt x="1609" y="1350" on="1"/>
      </contour>
    </TTGlyph>
    <TTGlyph name="uni1788" xMin="217" yMin="0" xMax="3431" yMax="1500">
      <contour>
        <pt x="427" y="404" on="1"/>
        <pt x="383" y="265" on="1"/>
        <pt x="373" y="232" on="0"/>
        <pt x="373" y="209" on="1"/>
        <pt x="373" y="192" on="0"/>
        <pt x="378" y="180" on="1"/>
        <pt x="390" y="150" on="0"/>
        <pt x="422" y="150" on="1"/>
        <pt x="457" y="150" on="0"/>
        <pt x="515" y="212" on="1"/>
        <pt x="573" y="275" on="0"/>
        <pt x="585" y="333" on="1"/>
        <pt x="587" y="343" on="0"/>
        <pt x="587" y="352" on="1"/>
        <pt x="587" y="369" on="0"/>
        <pt x="579" y="382" on="1"/>
        <pt x="567" y="401" on="0"/>
        <pt x="532" y="411" on="1"/>
        <pt x="519" y="415" on="0"/>
        <pt x="501" y="415" on="1"/>
        <pt x="471" y="415" on="0"/>
      </contour>
      <contour>
        <pt x="2065" y="399" on="1"/>
        <pt x="2093" y="350" on="1"/>
        <pt x="2207" y="150" on="0"/>
        <pt x="2334" y="150" on="1"/>
        <pt x="2477" y="150" on="0"/>
        <pt x="2605" y="312" on="1"/>
        <pt x="2733" y="475" on="0"/>
        <pt x="2802" y="800" on="1"/>
        <pt x="2884" y="1187" on="1"/>
        <pt x="2910" y="1305" on="0"/>
        <pt x="2991" y="1400" on="1"/>
        <pt x="3078" y="1500" on="0"/>
        <pt x="3212" y="1500" on="1"/>
        <pt x="3307" y="1500" on="0"/>
        <pt x="3431" y="1397" on="0"/>
        <pt x="3431" y="1323" on="1"/>
        <pt x="3431" y="1248" on="0"/>
        <pt x="3401" y="1200" on="1"/>
        <pt x="3401" y="1210" on="1"/>
        <pt x="3401" y="1283" on="0"/>
        <pt x="3345" y="1316" on="1"/>
        <pt x="3285" y="1350" on="0"/>
        <pt x="3225" y="1350" on="1"/>
        <pt x="3145" y="1350" on="0"/>
        <pt x="3099" y="1297" on="1"/>
        <pt x="3053" y="1244" on="0"/>
        <pt x="3035" y="1157" on="1"/>
        <pt x="2952" y="773" on="1"/>
        <pt x="2869" y="386" on="0"/>
        <pt x="2704" y="193" on="1"/>
        <pt x="2538" y="0" on="0"/>
        <pt x="2332" y="0" on="1"/>
        <pt x="2145" y="0" on="0"/>
        <pt x="1974" y="241" on="1"/>
        <pt x="1955" y="216" on="0"/>
        <pt x="1936" y="193" on="1"/>
        <pt x="1770" y="0" on="0"/>
        <pt x="1571" y="0" on="1"/>
        <pt x="1375" y="0" on="0"/>
        <pt x="1281" y="150" on="1"/>
        <pt x="1193" y="291" on="0"/>
        <pt x="1193" y="564" on="1"/>
        <pt x="1193" y="599" on="1"/>
        <pt x="1199" y="1000" on="1"/>
        <pt x="1199" y="1023" on="1"/>
        <pt x="1199" y="1181" on="0"/>
        <pt x="1146" y="1262" on="1"/>
        <pt x="1089" y="1350" on="0"/>
        <pt x="973" y="1350" on="1"/>
        <pt x="843" y="1350" on="0"/>
        <pt x="751" y="1255" on="1"/>
        <pt x="657" y="1160" on="0"/>
        <pt x="601" y="971" on="1"/>
        <pt x="472" y="554" on="1"/>
        <pt x="499" y="557" on="0"/>
        <pt x="524" y="557" on="1"/>
        <pt x="572" y="557" on="0"/>
        <pt x="609" y="546" on="1"/>
        <pt x="664" y="529" on="0"/>
        <pt x="708" y="466" on="1"/>
        <pt x="739" y="422" on="0"/>
        <pt x="739" y="363" on="1"/>
        <pt x="739" y="336" on="0"/>
        <pt x="733" y="307" on="1"/>
        <pt x="712" y="204" on="0"/>
        <pt x="618" y="102" on="1"/>
        <pt x="523" y="0" on="0"/>
        <pt x="422" y="0" on="1"/>
        <pt x="297" y="0" on="0"/>
        <pt x="245" y="80" on="1"/>
        <pt x="217" y="123" on="0"/>
        <pt x="217" y="185" on="1"/>
        <pt x="217" y="236" on="0"/>
        <pt x="237" y="300" on="1"/>
        <pt x="458" y="1015" on="1"/>
        <pt x="531" y="1258" on="0"/>
        <pt x="659" y="1379" on="1"/>
        <pt x="788" y="1500" on="0"/>
        <pt x="973" y="1500" on="1"/>
        <pt x="1167" y="1500" on="0"/>
        <pt x="1261" y="1375" on="1"/>
        <pt x="1349" y="1258" on="0"/>
        <pt x="1349" y="1029" on="1"/>
        <pt x="1349" y="999" on="1"/>
        <pt x="1341" y="601" on="1"/>
        <pt x="1341" y="566" on="1"/>
        <pt x="1341" y="367" on="0"/>
        <pt x="1394" y="263" on="1"/>
        <pt x="1452" y="150" on="0"/>
        <pt x="1573" y="150" on="1"/>
        <pt x="1709" y="150" on="0"/>
        <pt x="1837" y="312" on="1"/>
        <pt x="1965" y="475" on="0"/>
        <pt x="2034" y="800" on="1"/>
        <pt x="2065" y="938" on="1"/>
        <pt x="1918" y="1005" on="0"/>
        <pt x="1853" y="1082" on="1"/>
        <pt x="1803" y="1142" on="0"/>
        <pt x="1803" y="1208" on="1"/>
        <pt x="1803" y="1227" on="0"/>
        <pt x="1807" y="1246" on="1"/>
        <pt x="1834" y="1373" on="0"/>
        <pt x="1907" y="1436" on="1"/>
        <pt x="1980" y="1500" on="0"/>
        <pt x="2093" y="1500" on="1"/>
        <pt x="2194" y="1500" on="0"/>
        <pt x="2342" y="1408" on="1"/>
        <pt x="2418" y="1360" on="0"/>
        <pt x="2418" y="1312" on="1"/>
        <pt x="2418" y="1296" on="0"/>
        <pt x="2409" y="1280" on="1"/>
        <pt x="2392" y="1248" on="0"/>
        <pt x="2357" y="1248" on="1"/>
        <pt x="2323" y="1248" on="0"/>
        <pt x="2272" y="1277" on="1"/>
        <pt x="2152" y="1350" on="0"/>
        <pt x="2092" y="1350" on="1"/>
        <pt x="2043" y="1350" on="0"/>
        <pt x="2006" y="1319" on="1"/>
        <pt x="1970" y="1288" on="0"/>
        <pt x="1957" y="1227" on="1"/>
        <pt x="1955" y="1217" on="0"/>
        <pt x="1955" y="1206" on="1"/>
        <pt x="1955" y="1153" on="0"/>
        <pt x="2009" y="1090" on="1"/>
        <pt x="2073" y="1014" on="0"/>
        <pt x="2215" y="924" on="1"/>
        <pt x="2184" y="773" on="1"/>
        <pt x="2137" y="555" on="0"/>
      </contour>
    </TTGlyph>
    <TTGlyph name="uni178817B6" xMin="217" yMin="0" xMax="3830" yMax="1500">
      <contour>
        <pt x="427" y="404" on="1"/>
        <pt x="383" y="265" on="1"/>
        <pt x="373" y="232" on="0"/>
        <pt x="373" y="209" on="1"/>
        <pt x="373" y="192" on="0"/>
        <pt x="378" y="180" on="1"/>
        <pt x="390" y="150" on="0"/>
        <pt x="422" y="150" on="1"/>
        <pt x="457" y="150" on="0"/>
        <pt x="515" y="212" on="1"/>
        <pt x="573" y="275" on="0"/>
        <pt x="585" y="333" on="1"/>
        <pt x="587" y="343" on="0"/>
        <pt x="587" y="352" on="1"/>
        <pt x="587" y="369" on="0"/>
        <pt x="579" y="382" on="1"/>
        <pt x="567" y="401" on="0"/>
        <pt x="532" y="411" on="1"/>
        <pt x="519" y="415" on="0"/>
        <pt x="501" y="415" on="1"/>
        <pt x="471" y="415" on="0"/>
      </contour>
      <contour>
        <pt x="1974" y="241" on="1"/>
        <pt x="1955" y="216" on="0"/>
        <pt x="1936" y="193" on="1"/>
        <pt x="1770" y="0" on="0"/>
        <pt x="1571" y="0" on="1"/>
        <pt x="1375" y="0" on="0"/>
        <pt x="1281" y="150" on="1"/>
        <pt x="1193" y="291" on="0"/>
        <pt x="1193" y="564" on="1"/>
        <pt x="1193" y="599" on="1"/>
        <pt x="1199" y="1000" on="1"/>
        <pt x="1199" y="1023" on="1"/>
        <pt x="1199" y="1181" on="0"/>
        <pt x="1146" y="1262" on="1"/>
        <pt x="1089" y="1350" on="0"/>
        <pt x="973" y="1350" on="1"/>
        <pt x="843" y="1350" on="0"/>
        <pt x="751" y="1255" on="1"/>
        <pt x="657" y="1160" on="0"/>
        <pt x="601" y="971" on="1"/>
        <pt x="472" y="554" on="1"/>
        <pt x="499" y="557" on="0"/>
        <pt x="524" y="557" on="1"/>
        <pt x="572" y="557" on="0"/>
        <pt x="609" y="546" on="1"/>
        <pt x="664" y="529" on="0"/>
        <pt x="708" y="466" on="1"/>
        <pt x="739" y="422" on="0"/>
        <pt x="739" y="363" on="1"/>
        <pt x="739" y="336" on="0"/>
        <pt x="733" y="307" on="1"/>
        <pt x="712" y="204" on="0"/>
        <pt x="618" y="102" on="1"/>
        <pt x="523" y="0" on="0"/>
        <pt x="422" y="0" on="1"/>
        <pt x="297" y="0" on="0"/>
        <pt x="245" y="80" on="1"/>
        <pt x="217" y="123" on="0"/>
        <pt x="217" y="185" on="1"/>
        <pt x="217" y="236" on="0"/>
        <pt x="237" y="300" on="1"/>
        <pt x="458" y="1015" on="1"/>
        <pt x="531" y="1258" on="0"/>
        <pt x="659" y="1379" on="1"/>
        <pt x="788" y="1500" on="0"/>
        <pt x="973" y="1500" on="1"/>
        <pt x="1167" y="1500" on="0"/>
        <pt x="1261" y="1375" on="1"/>
        <pt x="1349" y="1258" on="0"/>
        <pt x="1349" y="1029" on="1"/>
        <pt x="1349" y="999" on="1"/>
        <pt x="1341" y="601" on="1"/>
        <pt x="1341" y="566" on="1"/>
        <pt x="1341" y="367" on="0"/>
        <pt x="1394" y="263" on="1"/>
        <pt x="1452" y="150" on="0"/>
        <pt x="1573" y="150" on="1"/>
        <pt x="1709" y="150" on="0"/>
        <pt x="1837" y="312" on="1"/>
        <pt x="1965" y="475" on="0"/>
        <pt x="2034" y="800" on="1"/>
        <pt x="2065" y="938" on="1"/>
        <pt x="1918" y="1005" on="0"/>
        <pt x="1853" y="1082" on="1"/>
        <pt x="1803" y="1142" on="0"/>
        <pt x="1803" y="1208" on="1"/>
        <pt x="1803" y="1227" on="0"/>
        <pt x="1807" y="1246" on="1"/>
        <pt x="1834" y="1373" on="0"/>
        <pt x="1907" y="1436" on="1"/>
        <pt x="1980" y="1500" on="0"/>
        <pt x="2093" y="1500" on="1"/>
        <pt x="2194" y="1500" on="0"/>
        <pt x="2342" y="1408" on="1"/>
        <pt x="2418" y="1360" on="0"/>
        <pt x="2418" y="1312" on="1"/>
        <pt x="2418" y="1296" on="0"/>
        <pt x="2409" y="1280" on="1"/>
        <pt x="2392" y="1248" on="0"/>
        <pt x="2357" y="1248" on="1"/>
        <pt x="2323" y="1248" on="0"/>
        <pt x="2272" y="1277" on="1"/>
        <pt x="2152" y="1350" on="0"/>
        <pt x="2092" y="1350" on="1"/>
        <pt x="2043" y="1350" on="0"/>
        <pt x="2006" y="1319" on="1"/>
        <pt x="1970" y="1288" on="0"/>
        <pt x="1957" y="1227" on="1"/>
        <pt x="1955" y="1217" on="0"/>
        <pt x="1955" y="1206" on="1"/>
        <pt x="1955" y="1153" on="0"/>
        <pt x="2009" y="1090" on="1"/>
        <pt x="2073" y="1014" on="0"/>
        <pt x="2215" y="924" on="1"/>
        <pt x="2184" y="773" on="1"/>
        <pt x="2137" y="555" on="0"/>
        <pt x="2065" y="399" on="1"/>
        <pt x="2093" y="350" on="1"/>
        <pt x="2207" y="150" on="0"/>
        <pt x="2334" y="150" on="1"/>
        <pt x="2477" y="150" on="0"/>
        <pt x="2605" y="312" on="1"/>
        <pt x="2733" y="475" on="0"/>
        <pt x="2802" y="800" on="1"/>
        <pt x="2846" y="1007" on="1"/>
        <pt x="2899" y="1254" on="0"/>
        <pt x="3031" y="1377" on="1"/>
        <pt x="3162" y="1500" on="0"/>
        <pt x="3373" y="1500" on="1"/>
        <pt x="3635" y="1500" on="0"/>
        <pt x="3752" y="1364" on="1"/>
        <pt x="3830" y="1274" on="0"/>
        <pt x="3830" y="1123" on="1"/>
        <pt x="3830" y="1048" on="0"/>
        <pt x="3811" y="958" on="1"/>
        <pt x="3637" y="174" on="1"/>
        <pt x="3588" y="0" on="0"/>
        <pt x="3440" y="0" on="1"/>
        <pt x="3327" y="0" on="0"/>
        <pt x="3296" y="100" on="1"/>
        <pt x="3292" y="113" on="0"/>
        <pt x="3292" y="130" on="1"/>
        <pt x="3292" y="243" on="0"/>
        <pt x="3469" y="536" on="1"/>
        <pt x="3376" y="301" on="0"/>
        <pt x="3376" y="226" on="1"/>
        <pt x="3376" y="212" on="0"/>
        <pt x="3379" y="204" on="1"/>
        <pt x="3399" y="150" on="0"/>
        <pt x="3441" y="150" on="1"/>
        <pt x="3473" y="150" on="0"/>
        <pt x="3490" y="209" on="1"/>
        <pt x="3661" y="973" on="1"/>
        <pt x="3675" y="1037" on="0"/>
        <pt x="3675" y="1090" on="1"/>
        <pt x="3675" y="1194" on="0"/>
        <pt x="3623" y="1256" on="1"/>
        <pt x="3543" y="1350" on="0"/>
        <pt x="3375" y="1350" on="1"/>
        <pt x="3225" y="1350" on="0"/>
        <pt x="3130" y="1257" on="1"/>
        <pt x="3036" y="1164" on="0"/>
        <pt x="2997" y="977" on="1"/>
        <pt x="2952" y="773" on="1"/>
        <pt x="2869" y="386" on="0"/>
        <pt x="2704" y="193" on="1"/>
        <pt x="2538" y="0" on="0"/>
        <pt x="2332" y="0" on="1"/>
        <pt x="2145" y="0" on="0"/>
      </contour>
    </TTGlyph>
    <TTGlyph name="uni178817C5" xMin="217" yMin="0" xMax="3950" yMax="2000">
      <contour>
        <pt x="427" y="404" on="1"/>
        <pt x="383" y="265" on="1"/>
        <pt x="373" y="232" on="0"/>
        <pt x="373" y="209" on="1"/>
        <pt x="373" y="192" on="0"/>
        <pt x="378" y="180" on="1"/>
        <pt x="390" y="150" on="0"/>
        <pt x="422" y="150" on="1"/>
        <pt x="457" y="150" on="0"/>
        <pt x="515" y="212" on="1"/>
        <pt x="573" y="275" on="0"/>
        <pt x="585" y="333" on="1"/>
        <pt x="587" y="343" on="0"/>
        <pt x="587" y="352" on="1"/>
        <pt x="587" y="369" on="0"/>
        <pt x="579" y="382" on="1"/>
        <pt x="567" y="401" on="0"/>
        <pt x="532" y="411" on="1"/>
        <pt x="519" y="415" on="0"/>
        <pt x="501" y="415" on="1"/>
        <pt x="471" y="415" on="0"/>
      </contour>
      <contour>
        <pt x="1974" y="241" on="1"/>
        <pt x="1955" y="216" on="0"/>
        <pt x="1936" y="193" on="1"/>
        <pt x="1770" y="0" on="0"/>
        <pt x="1571" y="0" on="1"/>
        <pt x="1375" y="0" on="0"/>
        <pt x="1281" y="150" on="1"/>
        <pt x="1193" y="291" on="0"/>
        <pt x="1193" y="564" on="1"/>
        <pt x="1193" y="599" on="1"/>
        <pt x="1199" y="1000" on="1"/>
        <pt x="1199" y="1023" on="1"/>
        <pt x="1199" y="1181" on="0"/>
        <pt x="1146" y="1262" on="1"/>
        <pt x="1089" y="1350" on="0"/>
        <pt x="973" y="1350" on="1"/>
        <pt x="843" y="1350" on="0"/>
        <pt x="751" y="1255" on="1"/>
        <pt x="657" y="1160" on="0"/>
        <pt x="601" y="971" on="1"/>
        <pt x="472" y="554" on="1"/>
        <pt x="499" y="557" on="0"/>
        <pt x="524" y="557" on="1"/>
        <pt x="572" y="557" on="0"/>
        <pt x="609" y="546" on="1"/>
        <pt x="664" y="529" on="0"/>
        <pt x="708" y="466" on="1"/>
        <pt x="739" y="422" on="0"/>
        <pt x="739" y="363" on="1"/>
        <pt x="739" y="336" on="0"/>
        <pt x="733" y="307" on="1"/>
        <pt x="712" y="204" on="0"/>
        <pt x="618" y="102" on="1"/>
        <pt x="523" y="0" on="0"/>
        <pt x="422" y="0" on="1"/>
        <pt x="297" y="0" on="0"/>
        <pt x="245" y="80" on="1"/>
        <pt x="217" y="123" on="0"/>
        <pt x="217" y="185" on="1"/>
        <pt x="217" y="236" on="0"/>
        <pt x="237" y="300" on="1"/>
        <pt x="458" y="1015" on="1"/>
        <pt x="531" y="1258" on="0"/>
        <pt x="659" y="1379" on="1"/>
        <pt x="788" y="1500" on="0"/>
        <pt x="973" y="1500" on="1"/>
        <pt x="1167" y="1500" on="0"/>
        <pt x="1261" y="1375" on="1"/>
        <pt x="1349" y="1258" on="0"/>
        <pt x="1349" y="1029" on="1"/>
        <pt x="1349" y="999" on="1"/>
        <pt x="1341" y="601" on="1"/>
        <pt x="1341" y="566" on="1"/>
        <pt x="1341" y="367" on="0"/>
        <pt x="1394" y="263" on="1"/>
        <pt x="1452" y="150" on="0"/>
        <pt x="1573" y="150" on="1"/>
        <pt x="1709" y="150" on="0"/>
        <pt x="1837" y="312" on="1"/>
        <pt x="1965" y="475" on="0"/>
        <pt x="2034" y="800" on="1"/>
        <pt x="2065" y="938" on="1"/>
        <pt x="1918" y="1005" on="0"/>
        <pt x="1853" y="1082" on="1"/>
        <pt x="1803" y="1142" on="0"/>
        <pt x="1803" y="1208" on="1"/>
        <pt x="1803" y="1227" on="0"/>
        <pt x="1807" y="1246" on="1"/>
        <pt x="1834" y="1373" on="0"/>
        <pt x="1907" y="1436" on="1"/>
        <pt x="1980" y="1500" on="0"/>
        <pt x="2093" y="1500" on="1"/>
        <pt x="2194" y="1500" on="0"/>
        <pt x="2342" y="1408" on="1"/>
        <pt x="2418" y="1360" on="0"/>
        <pt x="2418" y="1312" on="1"/>
        <pt x="2418" y="1296" on="0"/>
        <pt x="2409" y="1280" on="1"/>
        <pt x="2392" y="1248" on="0"/>
        <pt x="2357" y="1248" on="1"/>
        <pt x="2323" y="1248" on="0"/>
        <pt x="2272" y="1277" on="1"/>
        <pt x="2152" y="1350" on="0"/>
        <pt x="2092" y="1350" on="1"/>
        <pt x="2043" y="1350" on="0"/>
        <pt x="2006" y="1319" on="1"/>
        <pt x="1970" y="1288" on="0"/>
        <pt x="1957" y="1227" on="1"/>
        <pt x="1955" y="1217" on="0"/>
        <pt x="1955" y="1206" on="1"/>
        <pt x="1955" y="1153" on="0"/>
        <pt x="2009" y="1090" on="1"/>
        <pt x="2073" y="1014" on="0"/>
        <pt x="2215" y="924" on="1"/>
        <pt x="2184" y="773" on="1"/>
        <pt x="2137" y="555" on="0"/>
        <pt x="2065" y="399" on="1"/>
        <pt x="2093" y="350" on="1"/>
        <pt x="2207" y="150" on="0"/>
        <pt x="2334" y="150" on="1"/>
        <pt x="2477" y="150" on="0"/>
        <pt x="2605" y="312" on="1"/>
        <pt x="2733" y="475" on="0"/>
        <pt x="2802" y="800" on="1"/>
        <pt x="2846" y="1007" on="1"/>
        <pt x="2899" y="1254" on="0"/>
        <pt x="3031" y="1377" on="1"/>
        <pt x="3162" y="1500" on="0"/>
        <pt x="3373" y="1500" on="1"/>
        <pt x="3609" y="1500" on="0"/>
        <pt x="3727" y="1390" on="1"/>
        <pt x="3796" y="1701" on="1"/>
        <pt x="3799" y="1713" on="0"/>
        <pt x="3799" y="1725" on="1"/>
        <pt x="3799" y="1769" on="0"/>
        <pt x="3764" y="1805" on="1"/>
        <pt x="3720" y="1850" on="0"/>
        <pt x="3661" y="1850" on="1"/>
        <pt x="3462" y="1850" on="1"/>
        <pt x="3363" y="1850" on="0"/>
        <pt x="3363" y="1925" on="1"/>
        <pt x="3363" y="2000" on="0"/>
        <pt x="3463" y="2000" on="1"/>
        <pt x="3664" y="2000" on="1"/>
        <pt x="3784" y="2000" on="0"/>
        <pt x="3878" y="1903" on="1"/>
        <pt x="3950" y="1829" on="0"/>
        <pt x="3950" y="1734" on="1"/>
        <pt x="3950" y="1705" on="0"/>
        <pt x="3943" y="1674" on="1"/>
        <pt x="3886" y="1445" on="0"/>
        <pt x="3802" y="1283" on="1"/>
        <pt x="3830" y="1214" on="0"/>
        <pt x="3830" y="1123" on="1"/>
        <pt x="3830" y="1048" on="0"/>
        <pt x="3811" y="958" on="1"/>
        <pt x="3637" y="174" on="1"/>
        <pt x="3588" y="0" on="0"/>
        <pt x="3440" y="0" on="1"/>
        <pt x="3327" y="0" on="0"/>
        <pt x="3296" y="100" on="1"/>
        <pt x="3292" y="113" on="0"/>
        <pt x="3292" y="130" on="1"/>
        <pt x="3292" y="243" on="0"/>
        <pt x="3469" y="536" on="1"/>
        <pt x="3376" y="301" on="0"/>
        <pt x="3376" y="226" on="1"/>
        <pt x="3376" y="212" on="0"/>
        <pt x="3379" y="204" on="1"/>
        <pt x="3399" y="150" on="0"/>
        <pt x="3441" y="150" on="1"/>
        <pt x="3473" y="150" on="0"/>
        <pt x="3490" y="209" on="1"/>
        <pt x="3661" y="973" on="1"/>
        <pt x="3675" y="1037" on="0"/>
        <pt x="3675" y="1091" on="1"/>
        <pt x="3665" y="1080" on="0"/>
        <pt x="3656" y="1070" on="1"/>
        <pt x="3671" y="1139" on="1"/>
        <pt x="3662" y="1209" on="0"/>
        <pt x="3623" y="1256" on="1"/>
        <pt x="3543" y="1350" on="0"/>
        <pt x="3375" y="1350" on="1"/>
        <pt x="3225" y="1350" on="0"/>
        <pt x="3130" y="1257" on="1"/>
        <pt x="3036" y="1164" on="0"/>
        <pt x="2997" y="977" on="1"/>
        <pt x="2952" y="773" on="1"/>
        <pt x="2869" y="386" on="0"/>
        <pt x="2704" y="193" on="1"/>
        <pt x="2538" y="0" on="0"/>
        <pt x="2332" y="0" on="1"/>
        <pt x="2145" y="0" on="0"/>
      </contour>
    </TTGlyph>
    <TTGlyph name="uni1789" xMin="144" yMin="-700" xMax="2609" yMax="1501">
      <contour>
        <pt x="490" y="409" on="1"/>
        <pt x="472" y="409" on="1"/>
        <pt x="438" y="409" on="0"/>
        <pt x="395" y="402" on="1"/>
        <pt x="366" y="265" on="1"/>
        <pt x="359" y="233" on="0"/>
        <pt x="359" y="211" on="1"/>
        <pt x="359" y="192" on="0"/>
        <pt x="364" y="179" on="1"/>
        <pt x="373" y="150" on="0"/>
        <pt x="405" y="150" on="1"/>
        <pt x="440" y="150" on="0"/>
        <pt x="498" y="212" on="1"/>
        <pt x="556" y="275" on="0"/>
        <pt x="568" y="333" on="1"/>
        <pt x="570" y="340" on="0"/>
        <pt x="570" y="346" on="1"/>
        <pt x="570" y="367" on="0"/>
        <pt x="552" y="384" on="1"/>
        <pt x="530" y="406" on="0"/>
      </contour>
      <contour>
        <pt x="1625" y="1057" on="1"/>
        <pt x="1624" y="1081" on="0"/>
        <pt x="1618" y="1117" on="1"/>
        <pt x="1610" y="1167" on="0"/>
        <pt x="1573" y="1229" on="1"/>
        <pt x="1536" y="1292" on="0"/>
        <pt x="1496" y="1321" on="1"/>
        <pt x="1457" y="1350" on="0"/>
        <pt x="1420" y="1350" on="1"/>
        <pt x="1350" y="1350" on="0"/>
        <pt x="1198" y="1026" on="1"/>
        <pt x="1046" y="700" on="0"/>
        <pt x="981" y="700" on="1"/>
        <pt x="934" y="700" on="0"/>
        <pt x="934" y="797" on="1"/>
        <pt x="934" y="832" on="0"/>
        <pt x="940" y="881" on="1"/>
        <pt x="951" y="924" on="0"/>
        <pt x="951" y="967" on="1"/>
        <pt x="951" y="1108" on="0"/>
        <pt x="839" y="1257" on="1"/>
        <pt x="767" y="1350" on="0"/>
        <pt x="709" y="1350" on="1"/>
        <pt x="656" y="1322" on="0"/>
        <pt x="611" y="1263" on="1"/>
        <pt x="566" y="1203" on="0"/>
        <pt x="545" y="1104" on="1"/>
        <pt x="430" y="558" on="1"/>
        <pt x="464" y="563" on="0"/>
        <pt x="494" y="563" on="1"/>
        <pt x="542" y="563" on="0"/>
        <pt x="582" y="550" on="1"/>
        <pt x="647" y="529" on="0"/>
        <pt x="691" y="466" on="1"/>
        <pt x="722" y="422" on="0"/>
        <pt x="722" y="363" on="1"/>
        <pt x="722" y="336" on="0"/>
        <pt x="716" y="307" on="1"/>
        <pt x="695" y="204" on="0"/>
        <pt x="601" y="102" on="1"/>
        <pt x="506" y="0" on="0"/>
        <pt x="405" y="0" on="1"/>
        <pt x="280" y="0" on="0"/>
        <pt x="234" y="75" on="1"/>
        <pt x="207" y="119" on="0"/>
        <pt x="207" y="190" on="1"/>
        <pt x="207" y="238" on="0"/>
        <pt x="220" y="300" on="1"/>
        <pt x="396" y="1125" on="1"/>
        <pt x="425" y="1268" on="0"/>
        <pt x="496" y="1362" on="1"/>
        <pt x="568" y="1456" on="0"/>
        <pt x="681" y="1501" on="1"/>
        <pt x="708" y="1501" on="1"/>
        <pt x="836" y="1501" on="0"/>
        <pt x="953" y="1367" on="1"/>
        <pt x="1033" y="1264" on="0"/>
        <pt x="1069" y="1126" on="1"/>
        <pt x="1161" y="1327" on="0"/>
        <pt x="1240" y="1414" on="1"/>
        <pt x="1319" y="1500" on="0"/>
        <pt x="1427" y="1500" on="1"/>
        <pt x="1506" y="1500" on="0"/>
        <pt x="1578" y="1446" on="1"/>
        <pt x="1650" y="1393" on="0"/>
        <pt x="1702" y="1308" on="1"/>
        <pt x="1715" y="1287" on="0"/>
        <pt x="1725" y="1266" on="1"/>
        <pt x="1797" y="1379" on="0"/>
        <pt x="1881" y="1423" on="1"/>
        <pt x="2030" y="1500" on="0"/>
        <pt x="2182" y="1500" on="1"/>
        <pt x="2414" y="1500" on="0"/>
        <pt x="2531" y="1364" on="1"/>
        <pt x="2609" y="1274" on="0"/>
        <pt x="2609" y="1123" on="1"/>
        <pt x="2609" y="1048" on="0"/>
        <pt x="2590" y="958" on="1"/>
        <pt x="2381" y="-22" on="1"/>
        <pt x="2286" y="-470" on="0"/>
        <pt x="2091" y="-585" on="1"/>
        <pt x="1896" y="-700" on="0"/>
        <pt x="1685" y="-700" on="1"/>
        <pt x="1534" y="-700" on="0"/>
        <pt x="1390" y="-656" on="1"/>
        <pt x="1235" y="-613" on="0"/>
        <pt x="1157" y="-525" on="1"/>
        <pt x="1078" y="-437" on="0"/>
        <pt x="977" y="-394" on="1"/>
        <pt x="875" y="-350" on="0"/>
        <pt x="750" y="-350" on="1"/>
        <pt x="626" y="-350" on="0"/>
        <pt x="515" y="-396" on="1"/>
        <pt x="405" y="-442" on="0"/>
        <pt x="310" y="-535" on="1"/>
        <pt x="263" y="-581" on="0"/>
        <pt x="226" y="-591" on="1"/>
        <pt x="217" y="-593" on="0"/>
        <pt x="208" y="-593" on="1"/>
        <pt x="183" y="-593" on="0"/>
        <pt x="163" y="-573" on="1"/>
        <pt x="144" y="-552" on="0"/>
        <pt x="144" y="-527" on="1"/>
        <pt x="144" y="-519" on="0"/>
        <pt x="146" y="-510" on="1"/>
        <pt x="155" y="-475" on="0"/>
        <pt x="200" y="-432" on="1"/>
        <pt x="320" y="-316" on="0"/>
        <pt x="458" y="-258" on="1"/>
        <pt x="597" y="-200" on="0"/>
        <pt x="753" y="-200" on="1"/>
        <pt x="910" y="-200" on="0"/>
        <pt x="1037" y="-255" on="1"/>
        <pt x="1165" y="-310" on="0"/>
        <pt x="1263" y="-419" on="1"/>
        <pt x="1322" y="-484" on="0"/>
        <pt x="1451" y="-517" on="1"/>
        <pt x="1570" y="-550" on="0"/>
        <pt x="1689" y="-550" on="1"/>
        <pt x="1837" y="-550" on="0"/>
        <pt x="1993" y="-472" on="1"/>
        <pt x="2149" y="-395" on="0"/>
        <pt x="2234" y="7" on="1"/>
        <pt x="2440" y="973" on="1"/>
        <pt x="2454" y="1037" on="0"/>
        <pt x="2454" y="1090" on="1"/>
        <pt x="2454" y="1194" on="0"/>
        <pt x="2402" y="1256" on="1"/>
        <pt x="2322" y="1350" on="0"/>
        <pt x="2184" y="1350" on="1"/>
        <pt x="1965" y="1350" on="0"/>
        <pt x="1758" y="1181" on="1"/>
        <pt x="1763" y="1166" on="0"/>
        <pt x="1765" y="1151" on="1"/>
        <pt x="1776" y="1079" on="0"/>
        <pt x="1776" y="1041" on="1"/>
        <pt x="1776" y="1002" on="0"/>
        <pt x="1762" y="935" on="1"/>
        <pt x="1571" y="174" on="1"/>
        <pt x="1522" y="0" on="0"/>
        <pt x="1374" y="0" on="1"/>
        <pt x="1261" y="0" on="0"/>
        <pt x="1230" y="100" on="1"/>
        <pt x="1226" y="113" on="0"/>
        <pt x="1226" y="130" on="1"/>
        <pt x="1226" y="243" on="0"/>
        <pt x="1403" y="536" on="1"/>
        <pt x="1310" y="301" on="0"/>
        <pt x="1310" y="226" on="1"/>
        <pt x="1310" y="212" on="0"/>
        <pt x="1313" y="204" on="1"/>
        <pt x="1333" y="150" on="0"/>
        <pt x="1375" y="150" on="1"/>
        <pt x="1407" y="150" on="0"/>
        <pt x="1424" y="209" on="1"/>
        <pt x="1615" y="962" on="1"/>
        <pt x="1626" y="1015" on="0"/>
        <pt x="1626" y="1041" on="1"/>
        <pt x="1626" y="1054" on="1"/>
        <pt x="1624" y="1052" on="0"/>
        <pt x="1623" y="1051" on="1"/>
        <pt x="1624" y="1054" on="0"/>
      </contour>
    </TTGlyph>
    <TTGlyph name="uni1789.alt" xMin="207" yMin="0" xMax="2609" yMax="1501">
      <contour>
        <pt x="395" y="402" on="1"/>
        <pt x="366" y="265" on="1"/>
        <pt x="359" y="233" on="0"/>
        <pt x="359" y="211" on="1"/>
        <pt x="359" y="192" on="0"/>
        <pt x="364" y="179" on="1"/>
        <pt x="373" y="150" on="0"/>
        <pt x="405" y="150" on="1"/>
        <pt x="440" y="150" on="0"/>
        <pt x="498" y="212" on="1"/>
        <pt x="556" y="275" on="0"/>
        <pt x="568" y="333" on="1"/>
        <pt x="570" y="340" on="0"/>
        <pt x="570" y="346" on="1"/>
        <pt x="570" y="367" on="0"/>
        <pt x="552" y="384" on="1"/>
        <pt x="530" y="406" on="0"/>
        <pt x="490" y="409" on="1"/>
        <pt x="472" y="409" on="1"/>
        <pt x="438" y="409" on="0"/>
      </contour>
      <contour>
        <pt x="2440" y="973" on="1"/>
        <pt x="2454" y="1037" on="0"/>
        <pt x="2454" y="1090" on="1"/>
        <pt x="2454" y="1194" on="0"/>
        <pt x="2402" y="1256" on="1"/>
        <pt x="2322" y="1350" on="0"/>
        <pt x="2184" y="1350" on="1"/>
        <pt x="1965" y="1350" on="0"/>
        <pt x="1758" y="1181" on="1"/>
        <pt x="1763" y="1166" on="0"/>
        <pt x="1765" y="1151" on="1"/>
        <pt x="1776" y="1079" on="0"/>
        <pt x="1776" y="1041" on="1"/>
        <pt x="1776" y="1002" on="0"/>
        <pt x="1762" y="935" on="1"/>
        <pt x="1571" y="174" on="1"/>
        <pt x="1522" y="0" on="0"/>
        <pt x="1374" y="0" on="1"/>
        <pt x="1261" y="0" on="0"/>
        <pt x="1230" y="100" on="1"/>
        <pt x="1226" y="113" on="0"/>
        <pt x="1226" y="130" on="1"/>
        <pt x="1226" y="243" on="0"/>
        <pt x="1403" y="536" on="1"/>
        <pt x="1310" y="301" on="0"/>
        <pt x="1310" y="226" on="1"/>
        <pt x="1310" y="212" on="0"/>
        <pt x="1313" y="204" on="1"/>
        <pt x="1333" y="150" on="0"/>
        <pt x="1375" y="150" on="1"/>
        <pt x="1407" y="150" on="0"/>
        <pt x="1424" y="209" on="1"/>
        <pt x="1615" y="962" on="1"/>
        <pt x="1626" y="1015" on="0"/>
        <pt x="1626" y="1041" on="1"/>
        <pt x="1626" y="1054" on="1"/>
        <pt x="1624" y="1052" on="0"/>
        <pt x="1623" y="1051" on="1"/>
        <pt x="1624" y="1054" on="0"/>
        <pt x="1625" y="1057" on="1"/>
        <pt x="1624" y="1081" on="0"/>
        <pt x="1618" y="1117" on="1"/>
        <pt x="1610" y="1167" on="0"/>
        <pt x="1573" y="1229" on="1"/>
        <pt x="1536" y="1292" on="0"/>
        <pt x="1496" y="1321" on="1"/>
        <pt x="1457" y="1350" on="0"/>
        <pt x="1420" y="1350" on="1"/>
        <pt x="1350" y="1350" on="0"/>
        <pt x="1198" y="1026" on="1"/>
        <pt x="1046" y="700" on="0"/>
        <pt x="981" y="700" on="1"/>
        <pt x="934" y="700" on="0"/>
        <pt x="934" y="797" on="1"/>
        <pt x="934" y="832" on="0"/>
        <pt x="940" y="881" on="1"/>
        <pt x="951" y="924" on="0"/>
        <pt x="951" y="967" on="1"/>
        <pt x="951" y="1108" on="0"/>
        <pt x="839" y="1257" on="1"/>
        <pt x="767" y="1350" on="0"/>
        <pt x="709" y="1350" on="1"/>
        <pt x="656" y="1322" on="0"/>
        <pt x="611" y="1263" on="1"/>
        <pt x="566" y="1203" on="0"/>
        <pt x="545" y="1104" on="1"/>
        <pt x="430" y="558" on="1"/>
        <pt x="464" y="563" on="0"/>
        <pt x="494" y="563" on="1"/>
        <pt x="542" y="563" on="0"/>
        <pt x="582" y="550" on="1"/>
        <pt x="647" y="529" on="0"/>
        <pt x="691" y="466" on="1"/>
        <pt x="722" y="422" on="0"/>
        <pt x="722" y="363" on="1"/>
        <pt x="722" y="336" on="0"/>
        <pt x="716" y="307" on="1"/>
        <pt x="695" y="204" on="0"/>
        <pt x="601" y="102" on="1"/>
        <pt x="506" y="0" on="0"/>
        <pt x="405" y="0" on="1"/>
        <pt x="280" y="0" on="0"/>
        <pt x="234" y="75" on="1"/>
        <pt x="207" y="119" on="0"/>
        <pt x="207" y="190" on="1"/>
        <pt x="207" y="238" on="0"/>
        <pt x="220" y="300" on="1"/>
        <pt x="396" y="1125" on="1"/>
        <pt x="425" y="1268" on="0"/>
        <pt x="496" y="1362" on="1"/>
        <pt x="568" y="1456" on="0"/>
        <pt x="681" y="1501" on="1"/>
        <pt x="708" y="1501" on="1"/>
        <pt x="836" y="1501" on="0"/>
        <pt x="953" y="1367" on="1"/>
        <pt x="1033" y="1264" on="0"/>
        <pt x="1069" y="1126" on="1"/>
        <pt x="1161" y="1327" on="0"/>
        <pt x="1240" y="1414" on="1"/>
        <pt x="1319" y="1500" on="0"/>
        <pt x="1427" y="1500" on="1"/>
        <pt x="1506" y="1500" on="0"/>
        <pt x="1578" y="1446" on="1"/>
        <pt x="1650" y="1393" on="0"/>
        <pt x="1702" y="1308" on="1"/>
        <pt x="1715" y="1287" on="0"/>
        <pt x="1725" y="1266" on="1"/>
        <pt x="1797" y="1379" on="0"/>
        <pt x="1881" y="1423" on="1"/>
        <pt x="2030" y="1500" on="0"/>
        <pt x="2182" y="1500" on="1"/>
        <pt x="2414" y="1500" on="0"/>
        <pt x="2531" y="1364" on="1"/>
        <pt x="2609" y="1274" on="0"/>
        <pt x="2609" y="1123" on="1"/>
        <pt x="2609" y="1048" on="0"/>
        <pt x="2590" y="958" on="1"/>
        <pt x="2411" y="174" on="1"/>
        <pt x="2362" y="0" on="0"/>
        <pt x="2214" y="0" on="1"/>
        <pt x="2101" y="0" on="0"/>
        <pt x="2070" y="100" on="1"/>
        <pt x="2066" y="113" on="0"/>
        <pt x="2066" y="130" on="1"/>
        <pt x="2066" y="243" on="0"/>
        <pt x="2243" y="536" on="1"/>
        <pt x="2150" y="301" on="0"/>
        <pt x="2150" y="226" on="1"/>
        <pt x="2150" y="212" on="0"/>
        <pt x="2153" y="204" on="1"/>
        <pt x="2173" y="150" on="0"/>
        <pt x="2215" y="150" on="1"/>
        <pt x="2247" y="150" on="0"/>
        <pt x="2264" y="209" on="1"/>
      </contour>
    </TTGlyph>
</ttFont>
